<svg width="18" height="10" viewBox="0 0 18 10" fill="none" xmlns="http://www.w3.org/2000/svg">
<path fill-rule="evenodd" clip-rule="evenodd" d="M1.05666 0.807396C1.11472 0.749192 1.18369 0.703013 1.25962 0.671505C1.33555 0.639997 1.41696 0.623779 1.49916 0.623779C1.58137 0.623779 1.66277 0.639997 1.73871 0.671505C1.81464 0.703013 1.88361 0.749192 1.94166 0.807396L8.99916 7.86615L16.0567 0.807396C16.1148 0.749286 16.1838 0.703191 16.2597 0.671742C16.3356 0.640293 16.417 0.624107 16.4992 0.624107C16.5813 0.624107 16.6627 0.640293 16.7386 0.671742C16.8146 0.703191 16.8836 0.749286 16.9417 0.807396C16.9998 0.865506 17.0459 0.934492 17.0773 1.01042C17.1088 1.08634 17.125 1.16772 17.125 1.2499C17.125 1.33208 17.1088 1.41345 17.0773 1.48938C17.0459 1.5653 16.9998 1.63429 16.9417 1.6924L9.44166 9.1924C9.38361 9.2506 9.31464 9.29678 9.23871 9.32829C9.16277 9.35979 9.08137 9.37601 8.99916 9.37601C8.91695 9.37601 8.83555 9.35979 8.75962 9.32829C8.68369 9.29678 8.61472 9.2506 8.55666 9.1924L1.05666 1.6924C0.99846 1.63434 0.952282 1.56537 0.920774 1.48944C0.889265 1.41351 0.873047 1.33211 0.873047 1.2499C0.873047 1.16769 0.889265 1.08629 0.920774 1.01035C0.952282 0.934423 0.99846 0.865453 1.05666 0.807396Z" fill="#4C5930"/>
</svg>
