<svg width="183" height="57" viewBox="0 0 183 57" fill="none" xmlns="http://www.w3.org/2000/svg">
<path d="M8.8109 18.4612V13.6368H0V42.7117H8.8109V29.2035C8.8109 24.1861 11.2196 22.7066 15.4032 22.7066H17.7486V13.3152C13.9453 13.3152 10.7759 15.3736 8.8109 18.4612Z" fill="#4C5930"/>
<path d="M29.0316 25.3439C29.5387 22.1277 31.7573 20.3266 34.6097 20.3266C37.5256 20.3266 39.9977 22.1277 39.9977 25.3439H29.0316ZM34.7365 13.1865C26.1792 13.1865 20.2207 18.9114 20.2207 28.1742C20.2207 37.3727 26.3059 43.162 34.7365 43.162C41.8993 43.162 46.9703 38.7879 48.3649 33.1273H38.9835C38.2862 34.6711 36.8917 35.9576 34.4196 35.9576C31.5671 35.9576 29.2852 34.1565 28.9682 30.3613H48.872C48.9987 29.4607 48.9987 28.5602 48.9987 27.724C48.9987 18.8471 43.1037 13.1865 34.7365 13.1865Z" fill="#4C5930"/>
<path d="M67.1287 35.3789C63.8326 35.3789 60.8533 32.7416 60.8533 28.1102C60.8533 23.4788 63.8326 20.9701 67.1287 20.9701C70.4883 20.9701 73.4041 23.5431 73.4041 28.1745C73.4041 32.8059 70.4249 35.3789 67.1287 35.3789ZM73.4041 13.0581V17.6252C71.6293 14.9879 68.3965 13.1868 64.5932 13.1868C57.5572 13.1868 51.9791 18.9117 51.9791 28.1102C51.9157 37.3086 57.4938 43.0979 64.5298 43.0979C68.7134 43.0979 71.756 41.1681 73.3407 38.5308V42.7119H82.1516V4.11694C77.3342 4.11694 73.4041 8.10509 73.4041 13.0581Z" fill="#4C5930"/>
<path d="M101.991 35.3786C98.6953 35.3786 95.7161 32.7413 95.7161 28.1099C95.7161 23.4785 98.6953 20.9698 101.991 20.9698C105.351 20.9698 108.267 23.5428 108.267 28.1742C108.267 32.8056 105.351 35.3786 101.991 35.3786ZM108.267 17.7536C106.746 15.1806 103.703 13.1865 99.456 13.1865C92.4199 13.1865 86.8418 18.9114 86.8418 28.1099C86.8418 37.3084 92.4199 43.0976 99.456 43.0976C103.703 43.0976 106.746 41.1036 108.33 38.5306V42.6474H117.141V13.6368H108.33V17.7536H108.267Z" fill="#4C5930"/>
<path d="M132.227 13.6367H123.416V42.7116H132.227V13.6367Z" fill="#4C5930"/>
<path d="M138.564 9.13417V42.8405H147.375V0.257324C142.494 0.257324 138.564 4.24547 138.564 9.13417Z" fill="#4C5930"/>
<path d="M173.492 13.637L166.963 31.8409L160.308 13.637H150.482L162.146 41.747L155.553 56.5417H165.062L183 13.637H173.492Z" fill="#4C5930"/>
<path d="M123.797 8.7482H132.418V0C127.664 0 123.797 3.92382 123.797 8.7482Z" fill="#4C5930"/>
</svg>
