<svg width="123" height="122" viewBox="0 0 123 122" fill="none" xmlns="http://www.w3.org/2000/svg">
<path d="M14.3086 42.8551C14.3086 42.8551 14.261 42.926 14.2482 42.9598L14.2948 43.0248C14.4655 42.7306 14.6513 42.4748 14.8359 42.1829C14.6606 42.419 14.4712 42.6527 14.3086 42.8551Z" fill="#E77622"/>
<path d="M31.9462 85.5651C31.9462 85.5651 31.9985 85.6383 32.0218 85.6709C32.0346 85.6371 31.9695 85.5977 31.9462 85.5651Z" fill="#E77622"/>
<path d="M28.861 59.5066L28.8726 59.5228L28.8808 59.517C28.8808 59.517 28.8668 59.5147 28.861 59.5066Z" fill="#E77622"/>
<path d="M72.6774 17.0788L72.689 17.0951L72.6972 17.0893C72.6972 17.0893 72.6914 17.0811 72.6774 17.0788Z" fill="#E77622"/>
<path d="M73.7344 29.6617C73.6542 29.756 73.5764 29.8362 73.5067 29.9107C73.5485 29.9176 73.6565 29.742 73.7344 29.6617Z" fill="#E77622"/>
<path d="M76.341 100.003L76.1654 99.8089L76.1421 99.7764C76.3025 99.76 76.6001 99.6947 76.6117 99.711L76.5792 99.7343C76.4362 99.775 76.2676 99.7972 76.1956 99.7996L76.3211 99.8204C76.234 99.8705 76.1921 99.8635 76.3968 100.012C76.3968 100.012 76.3782 100.009 76.341 100.003ZM76.0583 99.6765C76.2571 99.6449 76.5093 99.6366 76.3594 99.7193L76.1223 99.7659L76.0641 99.6846L76.0583 99.6765ZM73.7153 96.8647C73.9048 96.889 74.056 96.9285 74.0107 97.0715L74.1397 97.0284C74.4061 97.2805 74.0549 97.1505 74.1992 97.4038C74.2876 97.4758 74.4119 97.2886 74.483 97.5083C74.4156 97.5688 74.4098 97.6467 74.4203 97.7129C74.1807 97.4294 73.9631 97.1424 73.7211 96.8729M71.7454 99.4909L71.5897 99.5654C71.298 99.7248 70.8843 99.9715 70.4113 100.187L70.1137 100.166L70.1288 100.118C70.1288 100.118 70.0661 100.151 70.0498 100.163C62.3724 99.5189 49.7413 98.2749 42.1678 96.4872C41.7677 96.134 41.3838 95.7692 41.0279 95.4091C41.4057 95.5077 41.4826 95.7355 41.7896 95.8724C41.7896 95.8724 41.7919 95.8585 41.7803 95.8422C42.051 95.6363 42.3754 95.7977 42.5743 95.8522L42.6499 95.9579C42.7465 96.1962 43.2588 95.5716 43.0684 95.9414C44.0867 95.9384 45.2608 96.033 46.4048 96.1369C46.5698 96.0066 47.2651 96.2224 47.0498 95.9214C47.3 96.2712 48.1429 96.4183 48.4626 96.4355C48.444 96.4611 48.4452 96.4971 48.3894 96.4879C48.9674 96.9351 49.1471 96.1549 49.6647 96.7068C49.7866 96.3614 50.7064 96.9084 51.0654 96.5164C51.1236 96.5977 51.1399 96.6721 51.1144 96.7396C52.1444 96.8389 53.2617 97.0602 54.1499 97.1503C54.9216 96.9057 55.9437 97.441 56.6224 97.0662C57.1433 97.21 57.992 97.4513 58.7406 97.3462L58.6674 97.3986C59.0871 97.4181 59.5486 97.4445 60.0089 97.4349C60.7924 97.4646 61.4771 97.4421 61.7677 97.3327C62.6166 97.832 63.2536 97.7944 64.1953 97.9937C64.5627 97.94 65.2625 97.9558 66.0077 98.0007C66.7551 98.0316 67.5445 98.0695 67.8781 98.003C68.9977 98.2964 68.6546 97.9886 70.1638 98.3968C70.4334 98.3269 70.7403 98.2918 71.1111 98.2602L71.1809 98.3578C71.21 98.3985 71.2588 98.4496 71.2821 98.4821C71.2344 98.467 71.2356 98.5031 71.1449 98.445C71.2683 98.7379 71.3684 98.9122 71.5103 99.0934C71.5802 99.1911 71.6523 99.2747 71.7442 99.3688L71.8024 99.4501C71.8024 99.4501 71.764 99.4653 71.7396 99.4827M51.0608 103.97C50.5283 103.81 50.0167 103.61 49.5074 103.397C51.8852 104.229 54.5383 104.827 57.4505 105.031C55.2859 104.944 53.1212 104.685 51.0527 103.976M42.7181 95.4173C42.338 95.4187 42.6773 95.2744 42.389 95.1978C42.2809 95.2014 42.3322 95.4106 42.1101 95.3236C42.1077 95.1655 42.0088 95.1132 41.8774 95.0842L43.1911 95.202C43.0122 95.33 42.8495 95.4463 42.775 95.2906L42.7181 95.4173ZM61.1093 96.7216L60.785 96.7323L59.4958 96.7691C56.3068 96.2469 53.0417 96.6151 49.9862 95.8498C49.2237 95.9526 48.4435 95.7729 47.6378 95.5746L61.1093 96.7216ZM60.8512 94.7793C61.0082 94.8268 61.1674 94.8604 61.3244 94.908C61.9627 95.0785 62.622 95.2955 63.094 95.4742L60.857 94.7874L60.8512 94.7793ZM47.2845 90.1473C47.3472 90.1147 47.4844 90.0658 47.4774 90.0216C47.1984 90.0613 47.1449 89.952 47.146 89.9021C47.1309 89.8637 47.1553 89.8463 46.416 89.8955C46.4543 89.8804 46.753 89.8512 46.8751 89.8499C46.5682 89.799 46.2275 89.7352 45.8973 89.6518C45.6102 89.6113 45.9008 89.5878 45.9659 89.5413L46.318 89.4492C46.8387 89.335 47.4409 89.2486 48.0616 89.2226C49.7107 88.5717 51.6337 88.9913 53.3948 88.7891L53.3785 88.8868C55.6976 88.7772 58.058 89.6708 60.2533 90.5227C61.1359 90.9487 61.7882 91.1215 62.6719 91.5836L62.6395 91.6929C64.3381 92.1255 65.4261 93.8185 67.0424 94.5312L66.8553 94.579C67.1958 94.5567 67.5531 95.211 67.7483 94.9853C67.7855 95.0202 67.8367 95.0573 67.8623 95.0759L67.9612 95.2142C68.0263 95.2537 68.0937 95.2792 68.1589 95.3187C68.6137 95.7311 69.0894 96.1899 69.5431 96.6523C68.2874 96.4439 66.9121 96.2227 66.0367 96.0989C66.0948 96.0942 66.2087 96.0988 66.3203 96.1173C65.6541 95.9422 66.0435 95.799 65.1901 95.5856C65.3482 95.5832 65.34 95.589 65.5993 95.6249C65.0575 95.5206 64.9098 95.4172 64.6586 95.2895C64.4074 95.1618 64.0505 95.0237 63.4343 94.9357L63.5331 94.902L62.8216 94.7838C62.9925 94.7477 63.24 94.6813 63.4958 94.7811C62.6296 94.5154 61.7855 94.2463 60.9193 93.9806L59.331 93.5306C58.3486 93.2743 57.3545 93.0017 56.372 92.7454C54.3711 92.2341 52.376 91.7308 50.4121 91.0822L50.5911 91.0403L49.7866 90.9641C49.7866 90.9641 49.8459 90.9094 49.8901 90.9024C49.4191 90.6737 48.9261 90.5345 48.4123 90.4348L47.6879 90.2644C47.5542 90.2494 47.4031 90.21 47.2763 90.1531M40.7359 95.1384L40.7848 95.1895C40.7592 95.171 40.7534 95.1628 40.7359 95.1384ZM48.5861 85.8476C49.5508 85.6494 50.5004 85.4988 51.3167 85.7633C50.3727 85.75 49.4579 85.7773 48.5861 85.8476ZM61.1349 87.4578C62.4978 88.2288 63.9977 88.6929 65.3338 89.4953C65.9932 89.8843 66.7165 90.1907 67.3015 90.6821C67.9109 91.156 68.4855 91.6671 69.0032 92.219C69.6532 92.4918 70.1011 93.032 70.5339 93.62C67.0084 90.3754 63.365 88.3585 59.8223 87.2041C60.2547 87.2759 60.6849 87.3616 61.1209 87.4555M69.2192 97.3512L69.125 97.3571L66.2682 96.4742C67.9541 96.8544 70.355 97.4609 69.225 97.3593M43.2194 86.6984C43.868 86.5051 44.5235 86.3558 45.1954 86.281C44.5003 86.4093 43.8471 86.5446 43.2194 86.6984ZM34.0587 89.636L34.5141 89.3102L34.584 89.4078L34.0587 89.636ZM32.6667 86.9678C32.6667 86.9678 32.6654 86.8458 32.6235 86.7528L32.4527 86.875C32.4502 86.6309 32.434 86.7285 32.4711 86.5913C32.0943 86.2707 32.208 86.0172 31.9951 85.7023C31.9951 85.7023 31.9928 85.7163 31.9765 85.7279C31.6417 85.7584 31.4567 85.4481 31.316 85.3029L31.317 85.1669C31.3506 84.9216 30.6044 85.1847 30.9496 84.9625C30.5135 84.6966 30.0704 84.3865 29.6238 84.0543C29.226 83.7732 28.8504 83.4886 28.4468 83.1994C28.262 83.2333 28.2014 82.9938 27.9085 83.1172C28.0526 83.0265 28.12 82.966 28.1769 82.9253C28.3676 82.8996 28.4338 82.8891 28.4664 82.8658C28.4919 82.8844 28.5315 82.9053 28.5315 82.9053C29.0547 83.1212 28.2139 82.616 28.9592 82.8329C28.9032 82.4796 29.9646 82.5196 30.0723 81.9999C30.1816 82.0324 30.2282 82.0974 30.2329 82.1556C31.1684 81.7446 32.2283 81.3185 33.0348 80.9506C33.5448 80.34 34.7107 80.2684 35.059 79.5521C35.5669 79.3855 36.4072 79.1164 36.973 78.6011L36.937 78.6883C37.6586 78.2705 38.5266 77.662 38.8843 77.1479C39.3134 77.3697 39.5795 77.1057 39.9514 77.0241C40.3394 76.5867 41.3027 76.0084 41.9091 75.3779C42.1312 75.465 42.4378 74.9137 42.6332 75.1182C44.3177 73.3479 46.759 71.7247 48.9738 70.3864C49.1259 70.0318 49.2 69.5853 49.3242 69.226C49.366 69.233 49.3974 69.2597 49.3382 69.3144C49.6541 68.9654 50.1481 68.8826 50.4583 68.5255C50.4583 68.5255 50.4595 68.5615 50.4619 68.6336C50.7046 68.251 51.28 68.196 51.5156 67.6832L51.5947 67.725L51.7654 67.4308C51.8142 67.4819 51.8724 67.5632 51.8306 67.6423C54.2367 65.4542 56.3031 62.8082 58.323 60.1832C58.7864 59.5936 59.2359 59.0016 59.6994 58.4119L59.6774 58.5875L60.0199 57.863C60.0199 57.863 60.0583 57.9339 60.0455 57.9676C60.774 57.2499 61.1906 56.2511 61.7411 55.4393C61.7726 55.4661 61.7645 55.6439 61.8865 55.5567C62.0814 54.8149 62.7951 54.747 62.5703 54.1578C62.6087 54.1426 62.7215 54.1972 62.7157 54.2751C63.5842 52.5843 64.5526 50.8958 65.499 49.2107C65.5675 49.1002 65.6325 48.9677 65.6929 48.863C65.8691 48.0608 66.2069 47.2782 66.5528 46.4899C66.4128 47.549 66.1345 48.621 65.8166 49.672C65.558 50.5824 65.2377 51.4754 64.9651 52.3835C64.6065 53.2916 64.5511 53.9705 64.1646 54.874L64.0448 54.8613C63.9419 55.6972 63.5123 56.4717 63.0966 57.2485C62.6274 58.002 62.1524 58.7475 61.9926 59.6241L61.9006 59.444C61.995 59.7822 61.4582 60.2522 61.7106 60.4159C61.6955 60.4636 61.6665 60.5089 61.6456 60.5485L61.5073 60.6474C61.5074 60.7334 61.4841 60.7869 61.4749 60.8427C61.1521 61.4055 60.8432 61.9707 60.5029 62.5091C60.4182 62.6312 60.3194 62.751 60.2381 62.8952C60.1057 63.0883 59.9687 63.3093 59.8689 63.5651C59.8457 63.6186 59.7946 63.6674 59.7632 63.7267L59.7492 63.6384C59.7086 63.7535 59.654 63.8663 59.6018 63.9651C59.4752 64.1663 59.3509 64.3536 59.2185 64.5466C59.1941 64.5641 59.1918 64.578 59.1674 64.5955C59.1825 64.5478 59.1383 64.5548 59.1743 64.4676C58.2123 65.254 57.7725 66.5644 56.978 67.5507L56.9151 67.3252C56.7248 67.9531 55.8837 68.7023 55.4087 69.3617L55.3691 69.2548L55.2042 69.6431L55.0647 69.5339C54.3688 70.3144 53.8497 71.1529 53.1271 71.8787L53.0585 71.7311C52.5789 72.5905 51.6691 73.1921 51 73.9411L51.0162 73.8435C49.6522 75.0649 48.4161 76.2933 47.1126 77.4961C42.9437 80.8467 38.1493 83.9931 32.6352 86.9411M30.4314 85.4929C30.6477 85.4858 30.8464 85.4543 30.8384 85.6321L30.9441 85.5565C31.2616 85.7598 30.8989 85.6995 31.1001 85.9121C31.1967 85.9783 31.2616 85.7598 31.4012 85.955C31.3118 86.105 31.3758 86.1944 31.4758 86.2827L30.4314 85.4929ZM47.9878 69.936C47.2582 70.7037 46.5229 71.4633 45.6849 71.8044C45.6443 71.8335 45.5978 71.8544 45.549 71.8893C46.3716 71.2518 47.1884 70.6061 47.9796 69.9418M52.1308 66.2227C51.6034 66.809 51.0353 67.3383 50.4265 67.8106C51.0004 67.2894 51.5743 66.7683 52.1308 66.2227ZM28.804 81.9112C28.4845 82.152 28.1951 82.2975 27.8964 82.4128L27.3665 82.5828L27.0561 82.6819C26.9655 82.7098 26.8086 82.7483 26.8377 82.7889L26.7725 82.7495C30.9703 80.9519 34.8854 78.914 38.5574 76.6564C38.1275 77.0008 37.6999 77.3312 37.2619 77.6814C34.3763 79.0445 31.8446 81.1258 28.804 81.9112ZM55.3902 58.5925C55.3507 58.6576 55.3077 58.7007 55.2624 58.7577C54.9465 59.1066 54.6584 59.4602 54.3622 59.8196C54.7095 59.4113 55.0568 59.0031 55.3902 58.5925ZM56.3218 57.3853C56.7318 56.8584 57.1418 56.3315 57.5518 55.8047C57.1592 56.3559 56.7609 56.8991 56.3392 57.4097C56.0465 57.7911 55.7561 58.1587 55.4518 58.5239C55.7445 58.1424 56.0232 57.7586 56.3218 57.3853ZM28.1419 78.9915C28.1419 78.9915 28.0779 78.988 28.0559 78.9915C28.0698 78.9938 28.1059 78.9926 28.1361 78.9833C28.0279 78.9009 28.0267 78.7788 28.0068 78.6823C27.8569 78.6789 28.001 78.5882 27.7313 78.6581C28.0451 78.5812 28.109 78.4986 28.102 78.4544C28.1322 78.4451 28.152 78.4556 28.1578 78.4637C28.2241 78.4532 28.2485 78.4357 28.2729 78.4183C28.2578 78.3799 27.8893 78.3976 28.2612 78.316C27.9102 78.3581 28.3576 78.2101 27.9391 78.2267C28.0275 78.2127 28.0879 78.194 28.1519 78.1975C28.1891 78.2323 28.2542 78.2718 28.3089 78.3311L28.5091 78.8517C28.386 78.903 28.2686 78.9623 28.1535 79.0077M27.1806 77.3553C27.2516 77.4029 27.3144 77.4564 27.3877 77.49C27.1798 77.8354 27.853 78.0547 27.3987 78.4165C27.5615 78.4722 27.4732 78.5722 27.3512 78.6595L27.1888 77.3495L27.1806 77.3553ZM27.0674 76.5265L27.03 76.2336C27.1684 76.3068 27.3102 76.402 27.0836 76.5149L27.0592 76.5324L27.0674 76.5265ZM26.9541 75.6978C27.0006 75.7628 27.0111 75.8291 26.9891 75.9186L26.9541 75.6978ZM27.7746 77.2747L27.7979 77.3073C27.7979 77.3073 27.7502 77.2922 27.7165 77.2794L27.7746 77.2747ZM29.1566 71.3685C29.0471 71.0779 28.9807 70.8303 28.7936 70.8781L28.8318 70.6909C28.6295 70.6144 28.4187 70.0274 28.2894 69.5544C28.1507 69.0511 28.0132 68.4979 27.8083 68.0051C27.6941 67.5704 27.4835 67.3276 27.331 66.908L27.446 66.8626C26.7668 66.2911 27.2811 65.2225 26.5518 64.6498L26.7181 64.6416C26.4565 64.6197 26.5992 64.2348 26.3087 64.3443L26.2924 64.2699L26.3283 64.1827C26.3283 64.1827 26.2632 64.1432 26.2376 64.1246L25.9419 63.3157C25.9382 63.1216 25.8882 62.9484 25.752 62.7753L25.7241 62.6846L25.788 62.6881C25.7392 62.6369 25.7042 62.5881 25.6635 62.5312L25.5948 62.2976C25.5948 62.2976 25.5657 62.2569 25.5785 62.2232C25.6041 62.2418 25.6168 62.2081 25.6599 62.251C25.8466 61.6011 25.2279 61.183 25.0404 60.6286L25.2485 60.6273C24.9485 60.4485 24.9632 59.8847 24.7421 59.5756L24.8363 59.5697L24.6514 59.4315L24.8187 59.3733C24.665 58.9177 24.3695 58.5389 24.189 58.1147L24.3494 58.0984C23.9342 57.7929 24.0432 57.2232 23.7639 56.8328L23.8337 56.8444C23.5821 56.0285 23.2038 55.3277 22.8081 54.6026L20.988 49.5481C21.0507 49.5156 21.1309 49.5074 21.2112 49.5852C21.2588 49.5143 21.204 49.283 20.9646 49.3436C20.9506 49.3412 20.9227 49.3366 20.9146 49.3424L20.762 48.9229C20.9779 48.3996 21.224 47.867 21.4841 47.3368L21.541 47.2961C21.4551 47.4682 21.5086 47.4054 21.4319 47.5217C21.568 47.6948 21.4089 47.9192 21.4404 48.118C21.4404 48.118 21.4427 48.1041 21.459 48.0924C21.7031 48.0039 21.7067 48.1981 21.7428 48.2829L21.7103 48.3922C21.5918 48.5876 22.1915 48.257 21.8743 48.4839C22.2708 48.7289 22.6407 49.0914 22.999 49.4376C23.1582 49.3852 23.2503 49.7374 23.3884 49.4664C23.2352 49.785 23.4237 50.1174 23.5377 50.208C23.4993 50.2231 23.4831 50.2347 23.4656 50.2103C23.3485 50.6998 23.9759 50.2019 23.7682 50.7193C24.0529 50.5157 23.9847 51.1423 24.3926 50.9735C24.3508 51.0526 24.3078 51.0956 24.2509 51.1363C24.5475 51.4651 24.7303 51.9614 24.9514 52.2705C25.4118 52.3469 25.3297 52.9712 25.8481 52.9569C25.9227 53.1987 25.9613 53.6137 26.2776 53.7809L26.2195 53.7855C26.437 54.0725 26.7046 54.4467 27.0732 54.515C26.7781 54.8244 26.9223 54.9057 26.8794 55.1208C27.1608 55.2392 27.3425 55.6994 27.667 55.9468C27.5299 56.0818 27.8915 56.192 27.6544 56.3246C28.5848 57.0239 28.9332 58.3361 28.8666 59.5149C29.0526 59.6031 29.4072 59.6691 29.6293 59.7562C29.6107 59.7818 29.5828 59.7771 29.5712 59.7609C29.6469 59.9526 29.4471 60.2062 29.539 60.3863C29.539 60.3863 29.5018 60.3801 29.4274 60.3678C29.6019 60.5258 29.3114 60.8073 29.5719 60.9652L29.5069 61.0117L29.6325 61.1186C29.5581 61.1349 29.4558 61.1466 29.4325 61.1141C29.6824 62.8042 30.2845 64.5742 30.0857 66.3762L30.0031 66.3123L30.1149 66.6749C30.1149 66.6749 30.0533 66.6575 30.0359 66.6331C29.8501 67.0611 30.0551 67.5538 29.9414 67.9794C29.8937 67.9643 29.8193 67.8946 29.7542 67.9411C29.9579 68.3118 29.3558 68.3982 29.8384 68.6432C29.814 68.6606 29.6942 68.6479 29.6651 68.6073C29.6583 68.8212 29.6341 69.0967 29.6202 69.2664C29.6156 69.3803 29.5948 69.5059 29.5739 69.6315C29.5102 69.8861 29.4313 70.1024 29.3407 70.2163C29.3688 70.5651 29.3341 70.8604 29.3052 71.0778C29.2692 71.251 29.2172 71.6079 29.1693 71.3347M22.0399 60.3527L22.1894 61.5244C22.0218 61.1525 21.8425 60.7643 22.0225 60.4143C22.0411 60.3887 22.0376 60.3666 22.0399 60.3527ZM20.9325 51.9975L21.617 57.1143C21.5274 56.9202 21.4319 56.718 21.3423 56.5239C21.4264 55.2835 20.6398 54.1494 20.982 52.9089C20.776 52.6381 20.8409 52.3335 20.9325 51.9975ZM22.3423 69.886L22.4155 69.8336C21.6782 69.2668 21.5241 68.2951 21.0737 67.5107C20.9677 67.1562 20.7398 66.975 20.5896 66.6275L20.7046 66.5821C20.0441 66.157 20.5736 65.2128 19.9281 64.7401L20.0862 64.7376C19.8304 64.7238 20.0081 64.3878 19.7222 64.4693C19.7164 64.4612 19.7047 64.4449 19.7012 64.4228L19.743 64.3438C19.743 64.3438 19.6977 64.3147 19.6581 64.2938C19.5952 64.0684 19.5288 63.8208 19.474 63.5895C19.4855 63.4337 19.4692 63.2733 19.3563 63.1327C19.347 63.1025 19.3516 63.0746 19.3342 63.0502L19.3981 63.0536C19.3609 63.0188 19.3399 62.9723 19.2992 62.9154C19.2829 62.841 19.2863 62.777 19.2677 62.7166C19.27 62.7026 19.2526 62.6782 19.2711 62.6527C19.277 62.6608 19.313 62.6596 19.3444 62.6863C19.6544 62.1572 19.1136 61.7449 19.0587 61.2555L19.254 61.2879C19.0086 61.0823 19.1629 60.6277 19.0337 60.3267L19.1313 60.3429L18.9825 60.2035L19.1591 60.1755C19.124 59.7826 18.9843 59.4153 18.9271 59.026L19.1026 59.0479C18.7967 58.6889 19.0661 58.2749 18.9647 57.8925L19.0182 57.9157C19.084 57.217 19.0011 56.551 18.9588 55.8559C19.1391 54.2515 19.4996 52.5552 20.0936 50.7902C20.1636 51.0599 20.2091 51.347 20.2465 51.6399C20.3953 51.6933 20.2769 51.9747 20.5419 51.8466C20.2444 51.9979 20.1969 52.327 20.2342 52.4478C20.1923 52.4409 20.1702 52.4444 20.1726 52.4304C19.7961 52.712 20.5877 52.6499 20.1171 52.9373C20.4716 52.9173 20.0557 53.35 20.4905 53.4079C20.4197 53.4463 20.3534 53.4568 20.2813 53.4592C20.3223 53.8602 20.2505 54.2927 20.2809 54.6274C20.6193 54.8772 20.2267 55.3424 20.693 55.513C20.628 55.7316 20.4922 56.0746 20.7063 56.3395L20.6447 56.3221C20.7076 56.6336 20.7788 57.0253 21.0847 57.2123C20.6732 57.359 20.7884 57.4857 20.6629 57.6369C20.8886 57.832 20.8889 58.2621 21.0983 58.5549C20.9205 58.6329 21.2147 58.8036 20.9474 58.8596C21.5907 59.6904 21.5647 60.8401 21.2817 61.8539C21.4596 61.948 21.7933 62.0535 21.991 62.158C21.9666 62.1755 21.9445 62.179 21.9271 62.1546C21.9853 62.322 21.7471 62.5046 21.8251 62.6824C21.8251 62.6824 21.7926 62.677 21.7275 62.6662C21.874 62.8196 21.5452 63.0302 21.7894 63.1998L21.7406 63.2347L21.8465 63.3311C21.7744 63.3335 21.664 63.351 21.6349 63.3103C21.7684 64.8377 22.447 66.3194 22.5619 67.8724L22.477 67.8225L22.6748 68.099C22.6284 68.12 22.6028 68.1014 22.569 68.0886C22.474 68.4886 22.7799 68.8476 22.7895 69.2219C22.7511 69.2371 22.6581 69.1929 22.5988 69.2476C22.8815 69.4881 22.3539 69.7302 22.8422 69.8113C22.7957 69.8322 22.7213 69.8485 22.6899 69.8218C22.7562 69.9834 22.7726 70.1438 22.8169 70.3088C22.6947 70.138 22.5598 70.0009 22.3563 69.8883M20.6467 50.3086L20.6409 50.3005C20.6409 50.3005 20.6815 50.2714 20.7059 50.2539L20.7222 50.3283C20.7222 50.3283 20.6664 50.3191 20.6525 50.3168M20.5732 49.9309C20.6476 49.9145 20.6604 49.8808 20.6615 49.8308L20.7023 50.0598C20.6535 50.0087 20.6023 49.9715 20.5732 49.9309ZM22.4284 47.9523C22.2692 48.0047 22.1321 48.0536 22.2052 47.9153L22.0995 47.9909C21.9436 47.8933 22.1843 47.8688 22.1214 47.7293C22.0737 47.7142 21.9436 47.8933 21.9284 47.769C22.0376 47.6294 22.0329 47.5713 21.998 47.5225C22.1469 47.6619 22.2819 47.799 22.4226 47.9442M27.5578 54.2299C27.3658 54.0475 27.1739 53.8652 26.9797 53.6967C26.6991 53.0122 26.2093 52.465 25.715 51.9457C25.2345 51.4287 24.7889 50.8744 24.4898 50.2155C24.1386 50.0855 23.9884 49.738 23.8348 49.3685C25.3679 51.0136 26.6035 52.6379 27.5496 54.2357M29.6904 58.9994C29.4356 58.5915 29.1447 58.1848 29.2421 57.7709C29.2444 57.757 29.2328 57.7407 29.2491 57.7291C29.4074 58.1568 29.56 58.5763 29.6904 58.9994ZM72.5859 29.794C72.421 30.0104 72.2642 30.2209 72.105 30.3593C72.2549 30.1907 72.4094 29.9941 72.5859 29.794ZM72.9344 29.3358C73.4849 28.6101 74.0877 27.6995 74.638 26.6296C74.5767 27.0424 74.5141 27.419 74.2666 27.5715L74.3086 27.7505C73.836 28.568 74.1261 27.7704 73.6929 28.3507C73.5593 28.5938 73.8418 28.5761 73.4399 29.0112C73.2992 28.952 73.1295 29.1102 72.9262 29.3416M69.4251 31.563L69.4391 31.5653L69.4332 31.5572L69.4251 31.563ZM69.4262 31.513L69.4402 31.5153L69.4344 31.5072L69.4262 31.513ZM71.6781 24.4682C71.6721 24.0299 71.6939 23.5963 71.6368 23.3789C71.6494 23.0871 71.5296 23.0744 71.4957 22.8036L71.6026 22.678C71.3806 22.677 71.4431 22.3003 71.5023 22.0736C71.5835 21.8433 71.6403 21.5445 71.3693 21.3204L71.5367 21.3482C71.3018 21.2948 71.5109 21.0715 71.2343 21.0973L71.2354 21.0473L71.3005 21.0007C71.3005 21.0007 71.2516 20.9496 71.2237 20.945L71.1745 20.3777C71.207 20.2684 71.222 20.1347 71.1406 20.0209L71.1359 19.9627L71.1917 19.972C71.1626 19.9313 71.1394 19.8988 71.1242 19.8604L71.1078 19.7C71.1078 19.7 71.0985 19.6698 71.1171 19.6442C71.1346 19.6686 71.159 19.6512 71.1904 19.6779C71.5435 19.2778 71.0713 18.927 71.0455 18.5643L71.235 18.5886C70.9966 18.4272 71.1545 18.0807 71.0276 17.8517L71.1334 17.8621L70.9938 17.753L71.1705 17.7249C71.1575 17.4146 70.9656 17.1462 70.9224 16.8451L71.0805 16.8427C70.756 16.5953 71.022 16.2452 70.8741 15.9698L70.9299 15.9791C70.9064 15.4304 70.7293 14.9423 70.557 14.4262L70.0365 9.40117C70.1668 9.56616 70.2866 9.75092 70.4065 9.93567C70.5611 9.91116 70.5333 10.1646 70.7401 9.95523C70.5089 10.1821 70.5591 10.4413 70.6196 10.5086C70.5894 10.518 70.5731 10.5296 70.5615 10.5133C70.2815 10.8611 70.9916 10.5131 70.6268 10.8969C70.9522 10.7502 70.6537 11.2096 71.0745 11.0931C71.0152 11.1478 70.9502 11.1943 70.8897 11.2129C71.0178 11.4779 71.0622 11.815 71.153 12.0451C71.5157 12.1053 71.2172 12.5647 71.6915 12.5574C71.6556 12.7306 71.5872 13.0132 71.8384 13.1409L71.7802 13.1456C71.8757 13.3478 71.9956 13.6186 72.3084 13.6776C71.9376 13.8813 72.0539 13.958 71.961 14.0859C72.1971 14.1753 72.2461 14.4844 72.4659 14.6715C72.3021 14.7518 72.602 14.8446 72.3382 14.9226C73.0348 15.4325 73.0284 16.3346 72.7116 17.0776C72.8778 17.1554 73.1987 17.2087 73.401 17.2853C73.3766 17.3027 73.3546 17.3062 73.3371 17.2818C73.3941 17.4132 73.135 17.5493 73.206 17.683C73.206 17.683 73.1734 17.6776 73.1083 17.6668C73.2398 17.7818 72.8923 17.9319 73.1214 18.0632L73.047 18.0795L73.147 18.1678C73.0668 18.1759 72.975 18.1679 72.9575 18.1435C72.9268 19.2351 73.31 20.424 72.9945 21.5472L72.9178 21.4914L73.0179 21.7518C73.0179 21.7518 72.9447 21.7181 72.9388 21.71C72.6961 22.0065 72.9287 22.1598 72.8486 22.3401C72.8114 22.3052 72.7415 22.2076 72.6939 22.1925C72.8173 22.4854 72.5357 22.1089 72.6498 22.3716C72.6978 22.8168 72.5016 23.2645 72.3795 23.2657C72.3358 24.0469 72.2337 24.3167 72.1303 24.4644C72.0885 24.5435 72.0467 24.6225 71.9911 24.7853C71.9295 24.94 71.8878 25.1051 71.8217 25.2876L71.8737 24.9307C71.7438 25.2818 71.7191 24.8692 71.7084 24.4588M68.1293 17.3921L68.0518 18.0745C67.9575 17.8223 67.8469 17.5817 68.1084 17.4316C68.1107 17.4177 68.127 17.406 68.1351 17.4002M66.9955 22.4077C66.9349 22.0823 66.987 21.7254 66.888 21.415C66.8971 21.1872 66.7657 21.0722 66.7388 20.8455L66.8492 20.828C66.3585 20.5028 67.1673 20.035 66.6648 19.6935L66.8206 19.7051C66.5974 19.668 66.8252 19.5051 66.5648 19.5192C66.5671 19.5053 66.5717 19.4774 66.5659 19.4693L66.6228 19.4285C66.6228 19.4285 66.5914 19.4018 66.5693 19.4053C66.5669 19.2472 66.5645 19.0891 66.5679 18.9392C66.5934 18.8717 66.6131 18.7961 66.5689 18.7171C66.5712 18.7032 66.5596 18.6869 66.5642 18.659L66.62 18.6683L66.5677 18.5951C66.5677 18.5951 66.5781 18.4893 66.5711 18.4451C66.5792 18.4393 66.5734 18.4312 66.5734 18.4312C66.5873 18.4335 66.6234 18.4323 66.6466 18.4648C67.0464 18.2158 66.6393 17.9045 66.6856 17.6255L66.8647 17.6695C66.6542 17.5127 66.883 17.2999 66.8213 17.1104L66.9108 17.1325L66.7969 17.0419L66.9724 17.0638C67.0176 16.8348 66.8931 16.5919 66.922 16.3745L67.065 16.4198C66.8347 16.1665 67.167 15.978 67.082 15.756L67.1355 15.7792C67.2841 15.4025 67.2571 15.0037 67.2522 14.6015C67.3334 14.3713 67.4204 14.1492 67.5075 13.9271C67.7994 14.1118 67.3252 14.2911 67.7368 14.4885C67.6404 14.5943 67.4406 14.7618 67.5965 14.9454L67.5488 14.9303C67.5489 15.1024 67.5433 15.3523 67.7979 15.5021C67.3876 15.5128 67.4458 15.5942 67.3144 15.6512C67.4994 15.7894 67.41 16.0255 67.5613 16.2369C67.3729 16.2487 67.6276 16.3985 67.344 16.3801C67.8268 16.9691 67.5668 17.5854 67.0951 18.0949C67.2591 18.1866 67.5567 18.2934 67.7347 18.3874C67.7044 18.3967 67.6707 18.384 67.673 18.37C67.7103 18.4909 67.429 18.5445 67.4663 18.6654C67.4663 18.6654 67.4392 18.6561 67.3849 18.6376C67.4605 18.7433 67.1409 18.8121 67.3363 18.9305L67.2561 18.9387L67.3584 19.0131C67.2782 19.0212 67.1747 18.9969 67.1631 18.9806C66.9858 19.8328 67.3467 20.7672 67.1846 21.6578L67.1055 21.616L67.2393 21.8031C67.2393 21.8031 67.1695 21.7915 67.1358 21.7787C66.9651 21.9869 67.2012 22.2483 67.1386 22.453C67.0967 22.446 67.0409 22.4368 66.999 22.4298M68.6656 12.607L68.3408 15.5564C68.2978 15.4274 68.2407 15.2961 68.1976 15.1671C68.5227 14.5042 67.97 13.7315 68.5381 13.1162C68.3903 12.9268 68.5181 12.7617 68.6656 12.607ZM67.9418 13.2968C67.8616 13.305 67.814 13.2899 67.7361 13.2841C67.7628 13.2527 67.7535 13.2225 67.7802 13.1911C67.7953 13.2295 67.8267 13.2562 67.9418 13.2968ZM68.1459 12.4132C68.1459 12.4132 68.1994 12.4364 68.2854 12.4363C68.2215 12.4329 68.1587 12.4655 68.1006 12.4702C68.125 12.4527 68.1273 12.4388 68.1319 12.4109M68.5964 11.5131C68.5964 11.5131 68.6033 11.4713 68.6114 11.4655C68.6614 11.4666 68.6975 11.4654 68.716 11.4398C68.7102 11.4317 68.6684 11.4247 68.6347 11.412C68.637 11.398 68.6532 11.3864 68.6497 11.3643C68.7439 11.3584 68.7881 11.3514 68.7846 11.3293L68.7441 11.6165C68.651 11.5724 68.5476 11.548 68.5661 11.5225C68.5661 11.5225 68.5762 11.5194 68.5964 11.5131ZM63.6106 17.1938C63.9102 14.828 64.6341 12.5398 65.7337 10.4501C65.9821 9.9036 66.27 9.37798 66.5929 8.90116L67.5568 7.41258L68.6522 6.039L69.1586 5.40629C69.1911 5.297 69.3387 5.22832 69.4711 5.12129L69.4249 5.48634C64.4122 10.9404 63.3578 16.3419 63.757 20.716C63.6051 19.5583 63.5335 18.3924 63.5885 17.1973M70.35 8.80811C70.35 8.80811 70.393 8.76507 70.4057 8.73135L70.4465 8.78828C70.4465 8.78828 70.3721 8.80461 70.35 8.80811ZM70.4814 8.83709L70.479 8.85104L70.5547 8.95678C70.514 8.98586 70.4407 8.86617 70.35 8.89413C70.3431 8.93598 70.535 9.03235 70.4303 9.05799C70.2908 8.9488 70.2466 8.95581 70.2141 8.97908C70.2652 8.93022 70.2884 8.87673 70.3314 8.83369L70.4814 8.83709ZM72.7907 13.4925C72.6836 13.3601 72.5603 13.2392 72.4533 13.1068C72.3353 12.1339 71.384 11.5602 71.381 10.5419C71.1496 10.4246 71.1332 10.1782 71.1156 9.8957C71.8417 11.1344 72.3807 12.3349 72.7848 13.4844M73.5937 16.8155C73.4343 16.5238 73.2504 16.2496 73.4351 15.9577C73.4432 15.9519 73.4537 15.9321 73.4502 15.91C73.5131 16.2215 73.5645 16.5168 73.6018 16.8097M69.686 4.82007C70.0229 4.43159 70.3633 4.06519 70.6978 3.69067C71.731 5.06638 72.3499 5.9146 72.9912 7.01738C73.68 8.04923 74.1806 9.17884 74.6835 10.2945C75.1478 11.0812 75.4936 11.9772 75.8092 12.8826C76.0179 13.8276 76.3068 14.7644 76.3539 15.7757C75.8406 12.8233 74.5865 9.54011 72.0501 5.99384L71.7068 5.51395L70.6679 4.1301L69.5991 5.30023L69.5711 5.03753C69.6187 4.96659 69.6558 4.91541 69.6837 4.83402M76.4597 100.152C76.6188 99.9272 76.6664 99.8563 76.9151 99.7398C76.6024 99.6808 76.3745 99.5856 76.0024 99.4951C75.9641 99.5103 75.9478 99.5219 75.9234 99.5394L75.8769 99.4743C75.8769 99.4743 75.9396 99.4417 75.9675 99.4463C75.9013 99.4568 75.8733 99.4522 75.8396 99.4394L75.3266 98.8597C75.43 98.798 75.48 98.7131 75.4485 98.5144L75.2532 98.568C75.324 98.3575 75.2682 98.4343 75.3507 98.3261C75.0575 97.9334 75.2306 97.7112 75.1001 97.3742L75.0757 97.3916C74.7386 97.35 74.6384 97.0037 74.5302 96.8352L74.565 96.7119C74.6543 96.4759 73.8721 96.5682 74.2591 96.4389C73.895 96.0846 73.5297 95.6943 73.1691 95.276C72.8027 94.8496 72.3688 94.4837 71.9652 94.1085C71.7513 94.1016 71.3568 93.4985 71.3385 93.8682C71.358 93.4486 70.8042 92.8119 70.5646 92.6144C70.5972 92.5911 70.6216 92.5737 70.6448 92.6062C70.4851 91.8844 69.8868 92.423 69.7654 91.6861C69.4622 91.9153 69.0175 90.967 68.5061 91.1115C68.4944 91.0092 68.5223 90.9278 68.5769 90.901C68.178 90.5839 67.7639 90.2284 67.3754 89.8916C66.9521 89.5919 66.5404 89.3085 66.1636 89.074C65.3556 88.9757 64.7017 87.9926 63.9124 88.1268C63.481 87.833 62.7646 87.3126 62.0216 87.1678L62.1042 87.1457C61.3541 86.7846 60.3333 86.5435 59.7114 86.6194C59.61 86.151 59.2427 86.1187 58.9379 85.8817C58.3602 85.8647 57.265 85.6398 56.4094 85.6125C56.3139 85.4103 55.7107 85.5467 55.7128 85.2746C53.288 85.4598 50.463 85.1199 47.8799 84.9634C47.5533 85.1601 47.2571 85.5195 46.9539 85.7487C46.9283 85.7301 46.9248 85.708 46.9492 85.6905C46.5273 85.771 46.0796 85.5748 45.6391 85.6809C45.6391 85.6809 45.6565 85.6479 45.6913 85.5821C45.295 85.7671 44.7741 85.5373 44.3232 85.8352L44.2767 85.7701L43.985 85.9296C43.9803 85.8714 43.9605 85.775 44.0175 85.7342C42.4064 86.0259 40.8165 86.536 39.2929 87.2078C38.8989 87.3789 38.5027 87.564 38.1226 87.7374L36.8803 88.3555L35.2592 89.097C36.1911 88.578 37.0952 88.0543 37.9691 87.5399C39.023 86.8476 40.0909 86.1575 41.1529 85.4594L41.1205 85.6547C42.0791 84.9322 43.1214 84.2236 44.1881 83.4975C45.2431 82.7552 46.3761 82.1047 47.3219 81.2438L47.2243 81.3997C50.7136 78.8179 53.7424 75.9877 56.4827 72.8229C58.6259 70.4907 60.5274 68.0611 62.1614 65.5154C64.7372 61.5707 66.7131 57.3543 68.1355 52.8453C70.1123 46.5504 70.9868 39.6424 70.8483 32.0573C70.939 32.0294 71.0424 31.9677 71.219 31.8537L71.1932 31.577C71.5698 31.4675 71.4338 31.4664 71.6175 31.4826C72.4702 30.5776 72.7957 30.603 73.4707 29.9481L73.4649 29.94C73.6714 29.3005 74.2522 28.6514 74.5356 28.2397L74.7482 28.1245C75.098 27.9604 75.0681 26.6294 75.2184 27.1489C76.3841 24.7907 77.2157 21.8107 77.2522 18.8708C77.0996 18.4512 77.145 16.6238 76.9001 17.2784C77.203 16.5331 76.8947 14.3315 76.5978 13.5726C76.6455 13.5877 76.6827 13.6226 76.7119 13.7493C76.712 12.0648 75.7587 12.1073 75.7101 10.5438C75.3055 10.4766 74.6298 8.07071 73.8041 7.60392C73.7784 7.41329 73.8086 7.31795 73.89 7.3458C73.4827 6.69042 73.0556 6.02459 72.6402 5.37503C71.9712 4.43966 71.3196 3.52869 70.7344 2.69324C70.0025 3.47489 69.3427 4.16814 68.8571 4.67529C68.663 4.85094 68.4632 5.01847 68.4516 5.08822L68.4574 5.09636C68.5818 4.99514 68.3135 5.35917 68.1892 5.5464C68.0324 5.75691 67.8675 5.97324 67.7025 6.18956C67.3727 6.62221 66.9614 7.02701 66.6583 7.51428C66.0149 8.45397 65.3645 9.34949 65.215 10.2063C64.459 11.3495 63.4501 13.4112 63.2305 15.3388L63.235 15.1388C62.7504 17.2804 62.808 20.0424 63.268 21.4592C62.9604 22.1464 63.1714 23.0774 63.3022 24.0166C63.8134 25.3845 64.787 28.1552 66.1494 29.9225C66.1764 30.3212 67.2267 31.3772 67.0165 31.5645C67.0304 31.5669 67.0897 31.5982 67.0955 31.6063C67.0932 31.6203 67.1107 31.6447 67.0771 31.89C67.0308 32.255 66.9741 32.6399 66.9197 33.0107C66.7923 33.778 66.6987 34.5581 66.5248 35.3464C66.1317 36.8939 65.7747 38.5262 65.1654 40.0809C64.5528 41.9575 63.7297 43.7633 62.8427 45.4797C62.2134 46.6798 61.5492 47.831 60.9024 48.9207C60.639 49.6869 60.4559 50.617 60.2099 51.4077C60.1588 51.4565 60.1309 51.4519 60.1483 51.3903C59.62 52.3706 58.8056 53.0883 58.24 54.0338C58.2152 54.0106 58.2222 53.94 58.2608 53.8222C57.7767 54.7955 56.8379 55.5285 56.2143 56.6506L56.1202 56.6565L55.9762 56.9193L55.7161 57.3636C55.6614 57.3043 55.5753 57.2183 55.7507 56.9822C49.706 64.6375 41.9054 71.3848 32.976 76.1241C33.0678 76.0461 33.1619 75.9542 33.2618 75.8705C32.7098 76.2161 32.073 76.5978 31.8348 76.7804C31.8522 76.7188 31.9034 76.6699 31.9405 76.6188C31.6523 76.7143 31.4338 76.8214 31.1607 76.9552L30.9643 77.0588C30.9016 77.0914 30.7796 77.1787 30.8539 77.0763L31.028 76.7182C31.1476 76.4728 31.2742 76.1856 31.3972 75.8763C31.6201 75.3972 31.8952 74.7333 32.1238 74.1763C32.1552 74.203 32.0927 74.5797 32.2796 74.2738C32.7226 72.4694 33.5322 71.5215 33.2595 70.487C33.3013 70.408 33.428 70.3788 33.4235 70.5788C34.4386 65.5004 33.9632 59.9883 31.8224 55.2246C29.6624 51.4828 26.9246 47.4659 23.3297 44.8119L23.4029 44.7595C22.5445 44.0579 21.678 43.3622 20.6953 42.5897C20.0671 43.7398 19.5423 44.7422 18.9978 45.8202C18.416 46.8633 18.0203 47.9946 17.5293 49.0958C16.6903 51.3434 16.1024 53.7187 15.9121 56.117C15.6544 58.5758 15.8682 60.2671 16.2952 62.7034L16.1895 62.779C16.7941 64.7932 17.3848 66.8911 18.2684 68.9516C19.1346 70.9877 20.2902 72.9643 21.864 74.4943L21.5489 74.3632C22.1129 74.722 23.0799 76.1943 23.3087 75.9814C23.4088 76.0697 23.4925 76.1696 23.5926 76.2579L23.802 76.5507C23.916 76.6413 24.0241 76.7238 24.1404 76.8004C24.3323 76.9828 24.4929 77.1385 24.6359 77.2697L27.0145 79.3921C26.9564 79.3968 26.9123 79.4038 26.8564 79.3945C26.81 79.4155 26.8449 79.4643 27.0634 79.4432L27.1576 79.5233C26.9554 79.6188 26.7555 79.7003 26.5614 79.7899L26.3499 79.8552C26.0129 79.9856 25.6596 80.1276 25.2865 80.2592C24.6973 80.4839 24.1046 80.7726 23.4631 81.0962C23.4491 81.0939 23.4247 81.1113 23.405 81.1009L23.0819 81.2336L23.1783 81.1278C22.8971 81.2674 22.624 81.4013 22.3451 81.527L21.019 82.0452L21.2725 82.2449C21.2725 82.2449 21.304 82.2717 21.3156 82.2879C21.2226 82.2438 21.1923 82.2531 20.9714 82.1161C21.204 82.3554 21.5099 82.6284 21.8496 82.9142C22.1799 83.1697 22.5055 83.4531 22.8417 83.7168C23.4627 84.207 24.1105 84.6657 24.7641 85.1326C26.0795 86.0606 27.4576 86.956 28.7102 87.9166L28.3219 87.8378C28.8277 88.1153 29.4441 88.5474 30.0989 89.0503C30.7735 89.5637 31.4969 90.1282 32.2028 90.6683C32.7432 90.3924 33.1465 90.1655 33.5218 89.9339L36.0728 90.7158L35.7531 90.6986L36.9843 90.9245C36.9494 90.9617 36.8855 90.9583 36.8192 90.9688C36.9855 91.0466 37.1622 91.1046 37.3367 91.1765L37.6901 91.2926C37.9366 91.3621 38.1692 91.4294 38.4121 91.4769L38.5796 91.5047C37.9251 91.604 37.2614 91.5869 36.5964 91.5339C35.6838 91.4612 34.5143 91.3387 33.7912 91.3764C33.9727 91.5786 34.1519 91.7947 34.3438 91.9771L34.1694 91.9051C35.257 93.082 35.8109 93.8907 36.5136 94.8389C37.1885 95.7824 37.9342 96.6875 38.7624 97.4844C39.4452 98.164 39.9546 98.5496 40.7071 99.1548L40.6548 99.2536C41.4293 99.5972 42.0051 100.23 42.675 100.772C43.0065 101.063 43.3461 101.349 43.6927 101.593C44.0579 101.811 44.4579 101.992 44.8915 102.1L44.7056 102.184C45.0496 102.098 45.5523 102.783 45.6659 102.358L45.8579 102.626C46.4984 102.611 46.9461 102.893 47.4032 103.205C47.8579 103.532 48.3661 103.881 49.0916 103.916L48.9858 103.991C49.3509 104.038 49.7752 104.115 50.0171 104.299C49.9671 104.298 49.9765 104.328 49.8823 104.334C50.3673 104.737 50.9719 104.894 51.6066 104.957C52.2368 105.047 52.8738 105.095 53.4703 105.259L53.2913 105.387C53.9237 105.291 54.9829 105.603 55.785 105.607L55.7269 105.698L56.1349 105.615L56.135 105.787C57.1569 105.893 58.1356 105.697 59.1376 105.705L59.0761 105.86C59.9955 105.633 61.0499 105.715 62.0286 105.519L61.9554 105.571C63.2202 105.552 64.3789 105.178 65.5319 104.882C66.1816 104.724 66.8046 104.512 67.4322 104.273C70.4402 103.596 73.6375 102.514 77.0135 100.874L76.4109 100.187L76.4597 100.152Z" fill="#E77622"/>
<path d="M41.9214 95.9011C41.9214 95.9011 41.84 95.8733 41.7924 95.8582C41.8017 95.8884 41.8796 95.8942 41.9214 95.9011Z" fill="#E77622"/>
<path d="M74.9423 72.4678C77.6824 72.5858 80.6413 73.1989 83.7448 74.5814C85.0995 75.1862 86.4914 75.9119 87.8893 76.8177C87.4813 76.8145 87.057 76.8229 86.5606 76.8337L87.222 76.7786C86.4617 76.7814 85.8317 76.7772 85.3097 76.7694C84.1821 76.7399 83.5171 76.6868 82.7684 76.6199C81.7326 76.5124 80.4759 76.354 79.1367 76.3037C78.0706 76.2055 77.5289 76.2733 76.5699 76.2216L76.5524 76.1112C74.9484 76.447 73.2575 75.4925 71.5745 75.8725L71.6895 75.7411C71.4373 75.9214 70.8199 75.6254 70.7887 75.9428L70.655 75.9277L70.5085 75.8604C70.4457 75.893 70.3876 75.8977 70.3214 75.9082L69.6401 75.8668L68.5136 75.7873C68.1532 75.7131 67.7742 75.6645 67.3313 75.6985L67.1314 75.694L67.1965 75.6474C67.0883 75.651 66.964 75.6662 66.8559 75.6698L66.1886 75.6307C66.1886 75.6307 66.1467 75.6237 66.127 75.6132C66.1851 75.6086 66.1839 75.5725 66.2641 75.5643C65.8373 75.3286 65.5374 75.3218 64.8969 75.3374C64.3145 75.3482 63.395 75.4034 62.8416 75.3689L63.6809 75.2358C63.3961 75.2674 63.0415 75.2874 62.9322 75.2549C63.0357 75.1932 63.2077 75.1071 63.3936 75.0233C63.7818 74.844 64.2013 74.6915 64.3686 74.5472L64.55 74.5773C64.55 74.5773 64.5441 74.4832 64.5534 74.4274L64.9568 74.4585C65.6227 74.2035 66.1026 73.8602 67.1323 73.5295L67.1266 73.6934C67.3521 73.5444 67.5984 73.442 67.8623 73.3639C68.5131 73.1566 69.2362 73.1189 69.8847 72.9255L69.8371 72.9965C71.5655 72.7315 73.2452 72.5014 74.9586 72.4562M88.8371 77.4553C89.1953 77.7155 89.564 77.9559 89.9199 78.23L89.9723 78.3893C89.7618 78.3185 89.8467 78.3684 89.7188 78.2755C89.319 78.5245 89.1074 78.3317 88.761 78.4319C88.761 78.4319 88.7749 78.4342 88.7866 78.4505C88.7275 78.7632 88.3858 78.8355 88.2219 78.9158L88.0987 78.881C87.8917 78.7463 87.9177 79.5391 87.8129 79.1346C87.6595 79.2812 87.4945 79.4115 87.3156 79.5395C86.687 80.0014 85.9316 80.4064 85.2216 80.8404C85.1729 81.0474 84.5034 81.1943 84.85 81.3522C84.4616 81.1873 83.7213 81.4587 83.454 81.6007C83.4528 81.5646 83.4632 81.5449 83.4876 81.5274C82.8343 81.4046 83.0765 82.1903 82.3766 81.9164C82.4384 82.2779 81.4572 82.1436 81.3215 82.6587C81.2366 82.6088 81.1901 82.5437 81.1935 82.4798C80.3126 82.8639 79.2583 82.9541 78.511 83.1813C77.9161 83.6559 76.8778 83.3904 76.3934 83.9336C76.1237 83.9175 75.7703 83.8875 75.4041 83.8912C75.0879 83.896 74.745 83.9323 74.4463 84.0476L74.5114 84.001C73.7465 84.0317 72.8084 84.1125 72.2692 84.3384C72.0527 83.9154 71.7273 83.976 71.4145 83.8309C70.8903 84.0091 69.8951 83.7866 69.0895 83.8464C69.0022 83.6383 68.4327 83.7875 68.465 83.5061C67.3456 83.5568 66.126 83.2612 64.9748 82.769C64.6853 82.6564 64.4144 82.5183 64.1236 82.3697C63.8725 82.242 63.5329 82.0422 63.5038 82.0016C63.391 81.861 63.3932 81.761 63.6013 81.7597C63.4176 81.7435 63.1165 81.7007 62.748 81.6324C62.541 81.5837 62.312 81.5385 62.1108 81.4979C61.8981 81.4411 61.6574 81.3796 61.6062 81.3425C61.676 81.3541 61.7876 81.3726 61.7934 81.3807C62.0049 81.3155 62.8141 81.4498 62.9036 81.3858C62.9563 81.4137 62.9951 81.4392 63.0199 81.4625C62.9873 81.3997 63.1966 81.4345 63.3221 81.4553C63.4477 81.4762 63.5209 81.5098 63.5476 81.3924L63.5941 81.4575C63.5941 81.4575 63.6359 81.3784 63.6708 81.3412C63.6848 81.4295 63.7023 81.5399 63.6779 81.5574C63.7523 81.5411 64.0312 81.5014 64.194 81.471L64.9065 81.3671L66.3164 81.1209C67.251 80.932 68.2134 80.7478 69.1537 80.567C70.2893 80.3326 71.4249 80.0982 72.5756 79.9022C73.3369 79.7634 74.118 79.635 74.8887 79.5264L74.7586 79.6195L75.4826 79.3598C75.4815 79.4098 75.4548 79.4412 75.4141 79.4703C76.3883 79.4743 77.3436 79.0738 78.256 78.9744C78.2549 79.0244 78.1387 79.1198 78.2759 79.1569C78.6222 78.9707 78.7966 79.0427 79.2674 79.0133C79.6557 79.0061 80.0288 78.9605 80.0426 78.7048C80.1065 78.7082 80.2624 78.8058 80.1892 78.8581C82.2174 78.4279 83.9947 78.128 86.1299 77.8302C86.9668 77.7111 87.8758 77.5896 88.879 77.4623M89.238 79.0988C88.8964 79.3432 88.5629 79.5817 88.2236 79.8121C88.2723 79.6051 88.3106 79.4179 88.4571 79.4853L88.428 79.3586C88.6894 79.1224 88.5419 79.4492 88.7964 79.3409C88.872 79.2746 88.6952 79.1306 88.9148 79.0595C89.0219 79.192 89.1346 79.1605 89.2299 79.1046M72.2742 84.9127C72.8054 84.8647 73.3169 84.8062 73.8353 84.7059C74.5467 84.738 75.2419 84.6957 75.9184 84.593C78.1885 84.2602 80.3559 83.337 82.5422 82.8183C83.0941 82.3867 83.817 82.177 84.5562 81.9557C81.5208 83.4874 78.6663 84.3611 76.0056 84.715C74.7131 84.9018 73.4634 84.9596 72.2742 84.9127ZM63.7446 85.948C64.2481 86.1535 64.7702 86.3333 65.3143 86.5097C64.7795 86.3635 64.2435 86.1814 63.7446 85.948ZM61.8728 81.9387C62.3368 82.1232 62.7949 82.2996 63.217 82.4772C63.5937 82.6257 64.0147 82.8533 64.3229 83.1124C64.3601 83.1472 64.4194 83.1786 64.445 83.1972C63.5276 82.8083 62.645 82.3822 61.8589 81.9363M58.6443 83.338C58.6443 83.338 58.6071 83.3031 58.5897 83.2787C59.2502 83.7038 59.9782 84.1544 60.8085 84.5933C59.9632 84.2881 59.1388 83.9433 58.6443 83.338ZM60.0966 78.3896C59.8571 78.3642 59.6316 78.341 59.3944 78.3017C59.6757 78.248 59.9628 78.2025 60.2383 78.1407L61.1892 78.1982L61.195 78.2064L60.0966 78.3896ZM57.25 78.8273C57.3615 78.7598 57.4603 78.726 57.6034 78.7713L57.25 78.8273ZM54.8474 79.1811C55.2402 79.0599 55.7074 78.9224 56.2026 78.7896C56.3932 78.7639 56.5757 78.744 56.7582 78.7242C56.7501 78.73 56.7257 78.7474 56.7117 78.7451C56.7943 78.809 56.8734 78.8508 56.9431 78.8624L54.8474 79.1811ZM56.0555 77.862L57.1622 77.9311C57.0518 77.9486 56.9368 77.994 56.824 78.0255C56.8101 78.0232 56.774 78.0243 56.7601 78.022L56.7845 78.0046C56.7845 78.0046 56.7345 78.0034 56.7205 78.0011L56.0974 77.869C56.0974 77.869 56.0718 77.8504 56.0497 77.8539M55.2549 76.4676L55.1386 76.3909C55.4325 76.1315 55.3501 76.4117 55.6174 76.2697C55.6848 76.2092 55.4488 76.1199 55.7033 76.0116C55.8347 76.1266 55.9393 76.101 56.0369 76.0312L55.119 76.7246C55.0132 76.6282 54.9945 76.4817 55.2549 76.4676ZM75.7879 69.4902C74.6579 69.3026 73.5653 69.4939 72.4935 69.5597C72.1181 69.6192 71.7426 69.6787 71.3788 69.7545C69.4678 69.9534 67.6767 70.3369 66.0728 70.8448C61.5249 72.2043 58.2806 74.3895 57.0071 75.3249C56.9571 75.2378 56.8606 75.1716 56.6723 75.1833L56.7479 75.3751C56.5456 75.2985 56.6224 75.3542 56.5084 75.2636C56.1447 75.5115 55.9249 75.3244 55.6146 75.4234L55.6204 75.4316C55.5346 75.7757 55.0476 75.9888 54.7699 76.1505L54.5653 76.1739C54.3549 76.1892 54.2888 76.3717 54.2923 76.4798C54.2796 76.5996 54.3099 76.6763 54.1122 76.5718C53.4674 77.1313 52.783 77.67 52.0011 78.2785C52.6184 78.3164 53.3217 78.3543 54.0029 78.3958C54.4457 78.2757 55.2073 78.481 55.1757 78.1962C55.1665 78.252 55.2095 78.295 55.2665 78.3403C54.7539 78.4488 54.3285 78.5932 54.1496 78.7212C53.2938 78.4357 52.772 78.6 51.9338 78.597C51.8351 78.6308 51.7095 78.696 51.4585 78.7403C52.3621 79.3849 53.481 80.3305 54.4533 80.9506C54.4405 81.0703 54.6708 81.2376 54.8674 81.3921C54.9755 81.4745 55.0837 81.557 55.0071 81.6733C56.9409 82.6753 58.9832 84.2759 60.8499 85.6825C61.1905 85.6602 61.6158 85.5158 61.9669 85.4737C61.9762 85.5039 61.9576 85.5295 61.9158 85.5225C62.2867 85.663 62.5113 86.0802 62.9252 86.1775C62.9252 86.1775 62.8907 86.1981 62.8218 86.2392C63.2252 86.2703 63.4928 86.7305 64.0055 86.7081L63.9939 86.7779L64.3136 86.7951C64.2822 86.8544 64.2463 86.9416 64.1602 86.9417C67.4986 88.2915 71.2848 88.3252 74.8756 88.1543L74.7373 88.2532L75.4346 88.0249C75.4346 88.0249 75.4091 88.0924 75.3766 88.1156C76.2822 88.1441 77.1922 87.8866 78.043 87.6838C78.0419 87.7338 77.9315 87.8374 78.0687 87.8745C78.1094 87.8454 78.1559 87.8244 78.2163 87.8058C78.7323 87.5474 79.1882 87.9098 79.3762 87.3819C79.4018 87.4005 79.4576 87.4958 79.4042 87.5586C80.2759 87.3162 81.1301 86.9635 81.9913 86.6549C82.8444 86.3521 83.7323 86.0981 84.5574 85.7047C85.1395 85.1777 85.8496 84.8297 86.5817 84.4781C87.2824 84.0999 87.9762 83.6775 88.5408 83.1261L88.5931 83.1993C88.8604 82.9713 89.1694 82.7502 89.4785 82.5291C90.0072 82.151 90.5592 81.8054 91.0983 81.4075C91.95 80.8106 92.861 80.2451 93.6581 79.5889C94.1159 79.2492 94.5759 78.8095 94.9559 78.464C94.7651 78.3176 94.5453 78.1306 94.2894 77.9448L94.3952 77.8692C93.944 77.6509 93.6707 77.4407 93.3799 77.206C93.0891 76.9714 92.7995 76.6868 92.5273 76.4265C91.9655 75.8817 91.3816 75.3403 90.6293 75.0793L90.799 75.0071C90.5037 75.0584 90.1604 74.4925 89.9746 74.7484C89.9374 74.7135 89.8897 74.6984 89.8525 74.6636L89.7769 74.5579C89.7769 74.5579 89.7071 74.5463 89.6513 74.537C89.0873 74.1782 88.5151 73.8251 87.9662 73.5046C87.7674 73.3641 87.5464 73.2271 87.2906 73.1273C87.2173 73.0936 87.1522 73.0541 87.0871 73.0146L87.144 72.9739C87.0626 72.9461 86.9871 72.9263 86.8836 72.902C86.6801 72.7894 86.4801 72.6988 86.2684 72.592C86.2987 72.5827 86.3091 72.5629 86.3789 72.5745C85.5739 71.8101 84.3462 71.6063 83.2975 71.2745L83.4845 71.1407C82.8894 71.1852 82.0067 70.6731 81.3092 70.5573L81.3649 70.4806L80.9988 70.4843L81.0347 70.3111C80.9173 70.2844 80.7859 70.2554 80.6743 70.2369C79.8837 70.077 79.1141 70.0495 78.341 69.914L78.4246 69.7559C77.5563 69.8483 76.6366 69.5594 75.7461 69.5693L75.8112 69.5227L75.7879 69.4902Z" fill="#E77622"/>
<path d="M55.5507 75.4206C55.5507 75.4206 55.4763 75.437 55.4112 75.4835C55.4844 75.4311 55.5204 75.43 55.5507 75.4206Z" fill="#E77622"/>
<path d="M91.7734 51.1353C91.7734 51.1353 91.735 51.1505 91.7188 51.1621C91.735 51.1505 91.7513 51.1388 91.7734 51.1353Z" fill="#E77622"/>
<path d="M77.7301 53.2123L77.7825 53.3715C77.7358 53.1344 78.0253 53.2469 77.8892 52.9878C77.9136 52.9703 77.9275 52.9727 77.9357 52.9668L78.017 52.9947C78.017 52.9947 78.0263 52.9389 78.0333 52.897C78.2053 52.8109 78.3796 52.7108 78.5597 52.6189C78.7038 52.6141 78.8328 52.571 78.9176 52.4489C78.942 52.4315 78.9641 52.428 78.9804 52.4163L78.9851 52.4745C79.0199 52.4372 79.0408 52.3977 79.0757 52.3605C79.1221 52.3395 79.1628 52.3104 79.2233 52.2918C79.2535 52.2825 79.2558 52.2685 79.2814 52.2871C79.2791 52.3011 79.2965 52.3255 79.2779 52.351C79.7872 52.5646 79.988 52.003 80.3634 51.8575L80.3891 52.0481C80.4912 51.7783 80.8935 51.8595 81.1014 51.6861L81.1154 51.7745L81.1932 51.6082L81.2514 51.7755C81.5618 51.6765 81.8209 51.4543 82.1254 51.3472L82.1417 51.5076C82.3577 51.1564 82.7519 51.3294 83.032 51.1536L83.0227 51.2094C83.5888 51.1242 84.1118 50.91 84.6324 50.7097C85.8843 50.552 87.2141 50.4861 88.637 50.5503C88.4895 50.6189 88.3523 50.6678 88.221 50.7249C88.2234 50.883 87.963 50.8111 88.1317 51.047C87.9397 50.7785 87.6654 50.7903 87.5643 50.8381C87.5549 50.8078 87.5596 50.7799 87.5735 50.7823C87.2525 50.4709 87.4855 51.2264 87.1446 50.8186C87.2448 51.1649 86.7924 50.8246 86.8508 51.25C86.8042 51.185 86.7658 51.1141 86.7611 51.056C86.4566 51.1631 86.0765 51.1645 85.8103 51.2565C85.7118 51.6344 85.2268 51.3173 85.1899 51.7986C85.0086 51.7685 84.6958 51.7094 84.5425 51.942L84.5437 51.892C84.3031 52.0026 84.0102 52.126 83.9349 52.4504C83.7149 52.0913 83.6383 52.2076 83.486 52.1322C83.3966 52.3682 83.0328 52.444 82.8469 52.6999C82.7387 52.5314 82.6773 52.8581 82.5632 52.5954C82.0557 53.3641 81.12 53.517 80.226 53.4188C80.1982 53.5862 80.1938 53.8721 80.1648 54.0895C80.1742 54.1198 80.1637 54.1395 80.1614 54.1535C80.1439 54.1291 80.1404 54.107 80.1567 54.0954C80.0428 54.1768 79.8172 53.9817 79.7068 54.0852C79.6928 54.0542 79.689 54.0201 79.6951 53.9829C79.6092 54.155 79.3475 53.875 79.2756 54.1354L79.2348 54.0785L79.178 54.2053C79.1616 54.1309 79.1174 54.0519 79.1383 54.0123C77.9458 54.3734 76.9153 55.2704 75.7042 55.6571L75.7065 55.5571L75.523 55.799C75.523 55.799 75.5148 55.7188 75.5171 55.7048C75.1637 55.6748 74.9535 56.0342 74.6478 56.1053C74.6246 56.0728 74.6431 55.9611 74.5757 55.9356C74.4608 56.2391 74.1233 55.7673 74.2016 56.2892C74.176 56.2707 74.1341 56.1777 74.1433 56.1219C74.0864 56.1626 74.0318 56.1894 73.9795 56.2022C73.9946 56.1545 74.0155 56.115 74.0247 56.0592L74.0771 56.1324C74.3858 55.3952 75.1959 55.1354 75.7292 54.6434C75.9906 54.4932 76.0916 54.2735 76.338 54.085L76.4078 54.1826C76.5887 53.5245 77.5305 53.8959 77.7359 53.2204M88.1122 51.4666L84.1491 52.9734C84.2897 52.8605 84.4326 52.7337 84.5674 52.6127C85.5926 52.4819 86.3081 51.5398 87.3916 51.6624C87.5588 51.4321 87.8227 51.4401 88.1122 51.4666ZM89.623 50.8286C89.623 50.8286 89.552 50.609 89.645 50.6531C89.7113 50.8146 89.759 50.8297 89.8032 50.8227L89.7125 50.8507C89.7125 50.8507 89.6986 50.8483 89.6707 50.8437C89.6707 50.8437 89.6645 50.8522 89.6521 50.8693L89.3999 50.9636C89.3975 50.8055 89.3927 50.6614 89.4777 50.7973L89.4485 50.6706C89.5403 50.5927 89.5056 50.802 89.6114 50.8124M75.5508 61.201C75.9378 60.9857 76.2992 60.8378 76.6838 60.5505C77.022 60.3701 77.1811 60.1456 77.4983 59.9187L77.5681 60.0163C77.8606 59.2908 78.9233 59.6249 79.2111 58.8412L79.2635 59.0004C79.2169 58.7633 79.5657 58.8212 79.4272 58.576L79.4841 58.5353L79.5655 58.5631C79.5655 58.5631 79.5829 58.5015 79.5899 58.4597L80.215 58.0617C80.358 58.0209 80.5114 57.9604 80.6112 57.7906L80.6763 57.7441L80.6926 57.8184C80.7158 57.765 80.7507 57.7277 80.7937 57.6847L80.9726 57.5567C80.9726 57.5567 81.011 57.5416 81.0307 57.552C81.0284 57.566 81.0459 57.5904 81.0389 57.6322C81.6412 57.7179 81.836 57.0621 82.2579 56.8096L82.3056 56.9967C82.3868 56.6805 82.8645 56.6093 83.0701 56.3638L83.0923 56.4464L83.1724 56.2661L83.2713 56.4044C83.6059 56.2019 83.8417 55.8612 84.1671 55.6285L84.2357 55.776C84.3877 55.3354 84.8934 55.3548 85.1466 55.0385L85.1513 55.0966C85.7835 54.7428 86.2645 54.2635 86.7896 53.7773L91.297 50.8485C91.626 50.8959 91.9643 50.9736 92.2968 51.0432C92.1737 51.1804 91.9121 51.0725 91.7528 51.1249C91.7528 51.1249 91.7668 51.1272 91.7784 51.1435C91.9239 51.3468 91.7391 51.3806 91.674 51.4272L91.5705 51.4028C91.3484 51.3158 91.8254 51.8107 91.523 51.5598C91.4046 51.9272 91.1817 52.3203 90.9552 52.6912C91.0483 52.8214 90.7554 52.9448 91.0496 53.0295C90.7194 52.946 90.4684 53.1623 90.4162 53.2612C90.3906 53.2426 90.3673 53.2101 90.3755 53.2043C89.9104 53.1557 90.5373 53.654 90.006 53.53C90.2828 53.7623 89.7144 53.7754 89.9529 54.1089C89.8715 54.0811 89.818 54.0579 89.775 54.0149C89.5438 54.3277 89.1604 54.5651 88.949 54.8024C89.0236 55.2162 88.4191 55.2305 88.5926 55.6966C88.3928 55.7781 88.0383 55.8841 87.9792 56.1968L87.9501 56.1562C87.7608 56.3899 87.5122 56.6784 87.5542 57.0294C87.1972 56.8053 87.1601 56.9425 86.9683 56.9321C86.944 57.2077 86.5908 57.4357 86.469 57.7811C86.3154 57.6696 86.3215 58.0218 86.1342 57.8115C85.7919 58.794 84.7437 59.3224 83.737 59.4277C83.7244 59.6335 83.7664 59.9845 83.7398 60.188C83.7224 60.1636 83.6991 60.131 83.7235 60.1136C83.5945 60.2427 83.3201 60.0824 83.1993 60.2057C83.1799 60.1786 83.1733 60.1465 83.1795 60.1093C83.0912 60.2953 82.7842 60.0723 82.71 60.3467L82.6634 60.2816L82.6101 60.4305C82.5716 60.3596 82.5204 60.2364 82.553 60.2131C81.2141 60.765 79.9127 61.6958 78.3796 61.9072L78.4237 61.8141L78.1471 62.0119C78.1471 62.0119 78.1506 61.948 78.1634 61.9143C77.775 61.8355 77.416 62.1414 77.0382 62.1289C77.0452 62.087 77.0893 61.994 77.0265 61.9406C76.9092 62.086 76.7847 62.0151 76.6836 61.9768C76.6363 61.9451 76.5914 62.0141 76.5488 62.1838C76.5488 62.1838 76.5639 62.0501 76.579 62.0025C76.2245 62.1945 75.5782 62.2019 75.4328 62.0846C75.2213 62.1498 75.0481 62.1999 74.8877 62.2163C74.761 62.2454 74.6645 62.2652 74.5704 62.2711C74.3879 62.291 74.1112 62.3167 74.3192 62.2294C74.5447 62.0805 74.7434 61.9629 74.5515 61.8666L74.6317 61.8584L74.77 61.8455C74.6955 61.6898 75.1441 61.4059 75.5369 61.1987M92.5003 51.0698L92.5236 51.1023C92.5236 51.1023 92.4619 51.0849 92.4363 51.0663L92.5003 51.0698ZM92.4122 51.5139L92.1463 51.95C92.0532 51.8198 91.9718 51.706 92.1206 51.7593L92.0206 51.6711C92.0658 51.5281 92.1531 51.7361 92.2589 51.6605C92.2658 51.6186 92.0658 51.5281 92.1785 51.4966C92.3251 51.5639 92.3832 51.5592 92.418 51.522M91.237 53.4118C90.165 54.9899 89.0604 56.3333 87.9172 57.4337C88.0298 57.2302 88.1424 57.0267 88.233 56.8267C88.7431 56.4742 89.1008 55.9601 89.4306 55.4415C89.7663 54.9309 90.1228 54.4669 90.6609 54.1189C90.6804 53.7853 90.9407 53.5991 91.2347 53.4257M85.339 59.536C85.339 59.536 85.3773 59.5208 85.4052 59.5255C85.0636 59.7698 84.729 59.9723 84.3966 60.1608C84.6696 59.8549 84.9333 59.5188 85.3308 59.5418M79.6684 65.0671C79.0316 65.3628 78.3575 65.5376 77.7506 65.3938C78.3747 65.3039 78.9931 65.2059 79.6684 65.0671ZM81.5446 53.9387L81.6004 53.948L80.6904 54.2915C80.9518 54.0553 81.1993 53.8169 81.5446 53.9387ZM79.0459 54.9145C79.2667 54.7934 79.4747 54.7061 79.7118 54.6594L79.0459 54.9145ZM67.0428 63.2291L66.8313 63.3804C66.8835 63.2815 66.9544 63.2431 67.0428 63.2291ZM70.6233 65.2786C69.8606 65.0373 69.0828 64.8437 68.3003 64.6779C67.4586 64.4808 66.3378 64.2374 65.4018 63.9602C65.7284 63.7635 66.0735 63.5413 66.4419 63.3516C66.4837 63.3585 66.5151 63.3852 66.5407 63.4038L66.5524 63.5061L66.6186 63.4956L66.5663 63.4224C66.5663 63.4224 66.6639 63.4386 66.6977 63.4514L66.0481 63.8668L69.0955 64.7239C69.7396 64.9025 70.6011 65.1101 71.6579 65.264C71.3115 65.2782 70.9732 65.2865 70.6094 65.2763M65.8454 63.188L65.8488 63.1241C65.8488 63.1241 65.8861 63.1589 65.9035 63.1833C65.8896 63.181 65.8617 63.1764 65.8454 63.188ZM77.4548 49.9052L77.4221 49.7564C76.9365 50.2636 76.1683 50.4442 75.628 50.8921L75.6314 50.8282C74.8319 51.2402 74.2057 51.8602 73.5632 52.4058C73.3437 52.6489 73.1043 52.8816 72.8708 53.1223C71.8566 54.0076 70.9678 54.9138 70.2302 55.7733C68.8258 57.454 67.9386 58.9123 67.552 59.6437L65.945 62.5881C65.874 62.5405 65.7822 62.4464 65.9471 62.3161C65.8297 62.2894 65.4334 62.4745 65.5626 62.6895C65.6104 62.8766 65.5861 63.0661 65.6792 63.1963C65.6152 63.1928 65.5652 63.1917 65.5338 63.165C65.004 63.5071 64.3997 63.8655 63.8303 64.1867C64.521 64.4304 65.1581 64.6509 65.7604 64.8225C67.0159 64.8589 68.1742 65.6533 68.5483 65.2997C68.86 65.4948 69.4263 65.8397 69.9901 65.7684L69.925 65.815C70.5168 65.9204 71.2562 66.0431 71.7013 65.8231C71.8155 66.2578 72.0747 66.2077 72.3189 66.3772C72.7466 66.2189 73.543 66.3869 74.1672 66.211C74.2487 66.4109 74.6588 66.1421 74.6846 66.4188C75.5667 66.1566 76.5315 66.0444 77.5254 65.9729C78.4647 65.9281 79.4214 65.9078 80.3385 65.8665C80.5174 65.6525 80.6974 65.3025 80.8809 65.0605C80.9065 65.0791 80.9018 65.107 80.8774 65.1245C81.1761 65.0092 81.5273 65.1392 81.8364 65.0041C81.8364 65.0041 81.8283 65.0386 81.8121 65.1076C82.0549 64.8971 82.4921 65.113 82.7674 64.7931L82.814 64.8582L82.9999 64.6884C83.0162 64.7628 83.036 64.8592 82.9872 64.8941C85.7173 63.9496 87.9421 61.9034 90.0519 59.9887L90.0288 60.1282L90.3261 59.6328C90.3261 59.6328 90.3587 59.6955 90.3459 59.7293C90.6562 59.5442 90.9164 59.272 91.1429 58.9871C91.3438 58.6836 91.5389 58.3719 91.7747 58.1172C91.8038 58.1578 91.8027 58.2938 91.9038 58.2461C92.0523 57.6973 92.6975 57.8259 92.4496 57.2902C92.4914 57.2972 92.5903 57.3494 92.5868 57.4133C93.0201 56.833 93.3568 56.1864 93.7703 55.5956C94.1663 54.9804 94.6251 54.4187 95.0048 53.8151C95.1761 52.5246 96.2171 51.608 96.4383 50.3186L96.5174 50.3604C96.6531 49.9314 96.7691 49.5779 96.9456 49.2058C95.6248 48.8719 94.4632 48.3995 93.2018 48.1829C92.5495 48.0101 92.0845 47.9616 91.3835 47.9097L91.388 47.7958C90.1944 48.1209 88.9905 47.0394 87.7517 47.5935L87.8353 47.4353C87.6622 47.6575 87.2099 47.4032 87.1659 47.6682C87.1159 47.6671 87.0717 47.6741 87.0159 47.6649L86.9426 47.6312C86.9426 47.6312 86.8961 47.6521 86.8636 47.6754C86.3533 47.6839 85.8686 47.7109 85.3873 47.76C85.2036 47.7439 84.9956 47.7452 84.798 47.8127C84.6957 47.8244 84.6073 47.8384 84.5132 47.8443L84.5376 47.8268C84.4795 47.8315 84.433 47.8525 84.3667 47.863C84.1761 47.8887 83.9855 47.9144 83.7925 47.954C83.7867 47.9459 83.7786 47.9517 83.7507 47.9471C83.789 47.9319 83.7658 47.8994 83.8262 47.8808C82.9204 47.5942 82.0885 48.2876 81.2284 48.4602L81.2829 48.2613C80.9321 48.5615 80.1416 48.6596 79.6315 48.9262L79.6314 48.8401L79.4107 49.0472L79.3385 48.8775C78.6237 49.0814 78.0939 49.5956 77.4408 49.9029" fill="#E77622"/>
<path d="M83.5364 29.8556C83.7434 30.0763 83.276 29.9557 83.5285 30.2915C83.4494 30.2497 83.3901 30.2184 83.3494 30.1614C83.167 30.3534 82.8881 30.4791 82.7324 30.6396C82.8326 30.986 82.3269 30.8805 82.5457 31.2896C82.3969 31.3222 82.1098 31.3677 82.1204 31.606L82.0913 31.5653C81.9752 31.7468 81.8103 31.9631 81.9278 32.2478C81.5871 32.0121 81.5744 32.1318 81.4186 32.1203C81.4734 32.3516 81.2375 32.5203 81.2272 32.7981C81.0574 32.6983 81.1669 32.9888 80.9552 32.796C80.9511 33.5981 80.3189 34.0379 79.5983 34.2336C79.6624 34.4091 79.8381 34.6892 79.9359 34.8774C79.9103 34.8589 79.8649 34.8298 79.8893 34.8124C79.8545 34.9356 79.5708 34.8312 79.5279 34.9602C79.5279 34.9602 79.5104 34.9358 79.4755 34.887C79.4919 35.0474 79.157 34.9058 79.2374 35.1557L79.1908 35.0907L79.1956 35.2348C79.1409 35.1755 79.0525 35.1035 79.0769 35.0861C78.3473 35.7677 78.0248 36.8467 77.2883 37.5703L77.2603 37.4796L77.2465 37.7354C77.2093 37.7005 77.1977 37.6842 77.1942 37.6621C76.9059 37.7577 76.9259 38.1122 76.7261 38.2797C76.697 38.2391 76.6528 38.16 76.597 38.1508C76.6099 38.2891 76.5436 38.2996 76.4553 38.3136C76.548 37.8416 76.9302 37.4821 77.0764 37.0333C77.2332 36.8228 77.2075 36.6322 77.3108 36.3985L77.4096 36.4507C77.2128 35.8661 78.1684 35.8957 77.9983 35.2797L78.0925 35.3599C77.9878 35.2135 78.24 35.2052 78.0214 35.0542C78.0237 35.0402 78.04 35.0286 78.0365 35.0065L78.1225 35.0065C78.1225 35.0065 78.1015 34.96 78.0841 34.9356C78.1851 34.8018 78.2583 34.6634 78.3593 34.5297C78.4581 34.4959 78.5359 34.4157 78.551 34.282C78.5591 34.2762 78.5696 34.2564 78.5858 34.2448L78.6149 34.2854L78.6334 34.1738C78.6334 34.1738 78.6834 34.0889 78.7101 34.0575C78.724 34.0598 78.7345 34.0401 78.7426 34.0342C78.7601 34.0586 78.7798 34.0691 78.7892 34.0993C79.2751 34.1083 79.1667 33.5957 79.3723 33.3503L79.4828 33.5048C79.4129 33.2352 79.7744 33.1734 79.8254 32.9525L79.8777 33.0257L79.8695 32.8594L79.9928 32.9802C80.181 32.7965 80.2354 32.5116 80.4295 32.336L80.5225 32.4661C80.513 32.0918 80.8966 32.1125 80.9965 31.8567L81.0372 31.9136C81.4009 31.6658 81.6634 31.2936 81.9537 30.9261C82.458 30.5654 83.0007 30.1896 83.5782 29.8625M83.7421 29.7822C83.77 29.8729 83.8061 29.9577 83.5863 29.8567C83.6328 29.8358 83.6898 29.795 83.7421 29.7822ZM83.9361 29.6926C84.0663 29.5995 84.2057 29.5366 84.3475 29.4598C84.3673 29.5563 84.2104 29.5948 84.4337 29.7179C84.1965 29.5925 84.0094 29.6402 83.9361 29.6926C83.9117 29.71 83.9094 29.724 83.9013 29.7298L83.8838 29.7054C83.8838 29.7054 83.9164 29.6821 83.9303 29.6845M85.3004 28.9873C85.3539 29.0105 85.3947 29.0674 85.447 29.0546C85.4493 29.0406 85.4004 28.9895 85.3713 28.9489C85.3795 28.943 85.3957 28.9314 85.4178 28.9279C85.5062 28.9999 85.5399 29.0127 85.5725 28.9894L85.3587 29.2406C85.2738 29.1047 85.1982 28.999 85.3226 29.0698L85.2586 28.9803C85.2586 28.9803 85.2888 28.971 85.2969 28.9652M84.6222 30.0502L82.3605 32.5777C82.4057 32.4347 82.451 32.2917 82.4927 32.1266C83.2085 31.7006 83.2637 30.6776 84.1633 30.4399C84.1713 30.176 84.3828 30.1108 84.6222 30.0502ZM80.4229 34.7504C80.4971 34.476 80.5818 34.1819 80.9038 34.1852C80.9119 34.1793 80.9282 34.1677 80.9421 34.17L80.4229 34.7504ZM79.4889 35.7996C79.5806 35.6356 79.6979 35.4902 79.8606 35.3739L79.4889 35.7996ZM87.9828 27.9417C87.9178 28.0742 87.6934 28.0872 87.5691 28.1884C87.5691 28.1884 87.5772 28.1826 87.5993 28.1791C87.8075 28.2638 87.6692 28.3627 87.6297 28.4278L87.5332 28.4476C87.3007 28.4664 87.9449 28.645 87.5682 28.5825C87.6428 28.9102 87.6163 29.2857 87.5863 29.6391C87.727 29.6983 87.5283 29.9019 87.8236 29.8506C87.4981 29.9112 87.3925 30.1589 87.3821 30.2647C87.3565 30.2461 87.3344 30.2496 87.3286 30.2415C86.8974 30.3777 87.6845 30.5156 87.1498 30.6275C87.4882 30.7052 86.9989 30.9322 87.3954 31.0912C87.3071 31.1052 87.2431 31.1017 87.1815 31.0843C87.1143 31.4029 86.9052 31.7123 86.8415 31.9669C87.1009 32.2608 86.5837 32.4832 86.9571 32.7817C86.8339 32.919 86.583 33.1353 86.6912 33.3898L86.6621 33.3492C86.5961 33.6178 86.5311 33.9224 86.7371 34.1931C86.3185 34.1236 86.3535 34.2584 86.192 34.3248C86.313 34.5456 86.1342 34.8456 86.2111 35.1594C86.0158 35.127 86.2019 35.3873 85.9438 35.3014C86.142 36.1801 85.5519 36.971 84.7978 37.4121C84.8897 37.5922 85.0922 37.8408 85.1899 38.0291C85.176 38.0268 85.1364 38.0059 85.1411 37.978C85.1075 38.1372 84.8064 38.0944 84.7611 38.2374C84.7611 38.2374 84.7409 38.215 84.7006 38.17C84.7263 38.3607 84.3543 38.2702 84.4404 38.5283L84.3753 38.4888L84.394 38.6352C84.3231 38.5876 84.2091 38.497 84.2637 38.4702C83.4808 39.3868 82.9503 40.6391 81.8883 41.4233L81.8766 41.321L81.7722 41.6047C81.7722 41.6047 81.7396 41.5419 81.7442 41.514C81.3595 41.6294 81.4213 41.9048 81.2214 41.9863C81.2225 41.9363 81.2271 41.8224 81.2143 41.7701C81.1076 42.1538 81.1722 41.4191 81.0053 42.1655C80.996 42.1353 81.0377 41.9702 81.0633 41.9027C80.7822 42.3005 80.3104 42.5519 80.208 42.4775C79.913 42.787 79.6806 42.9777 79.5098 43.0999C79.3634 43.2046 79.1844 43.3326 79.2901 43.171C79.4086 42.9756 79.5084 42.8058 79.2353 42.9397L79.4294 42.764C79.2306 42.7955 79.4512 42.4164 79.6731 42.0733C79.917 41.7268 80.1655 41.4383 80.2758 41.1627C80.4384 40.9604 80.4499 40.7186 80.6043 40.436L80.7194 40.4766C80.5911 39.7815 81.6257 39.6809 81.4799 38.9614L81.5857 39.0578C81.4578 38.8789 81.7472 38.8194 81.5088 38.658L81.5238 38.6103L81.6122 38.5963C81.6122 38.5963 81.5912 38.5498 81.59 38.5138L81.8943 37.9765C82.0023 37.887 82.0906 37.7869 82.1045 37.6172L82.1219 37.5556L82.1626 37.6125C82.1626 37.6125 82.1811 37.5009 82.1857 37.473L82.2775 37.309C82.2775 37.309 82.296 37.2834 82.3123 37.2718C82.3216 37.302 82.3356 37.3043 82.3507 37.3427C82.89 37.2029 82.7234 36.6089 82.9417 36.2438L83.0825 36.389C82.987 36.1008 83.346 35.8808 83.3842 35.6076L83.4552 35.6552L83.419 35.4844L83.5772 35.568C83.7479 35.2738 83.7802 34.9064 83.9207 34.6215L84.0544 34.7226C83.9577 34.3123 84.3854 34.1539 84.4433 33.8051L84.4724 33.8458C84.8057 33.3492 84.9785 32.783 85.1572 32.2249L87.5016 28.0768C87.669 28.0186 87.834 27.9743 88.0014 27.9161M88.3666 28.2204C88.3515 28.3541 88.3505 28.4901 88.3413 28.6319C88.2006 28.5727 88.0599 28.5136 88.2121 28.503L88.0947 28.4763C88.0574 28.3555 88.2389 28.4716 88.2969 28.3809C88.2737 28.3483 88.0574 28.3555 88.133 28.2891C88.305 28.289 88.3538 28.2541 88.3584 28.2262M87.2673 34.3671C87.266 34.159 87.2542 33.9707 87.2448 33.7685C87.7859 32.8405 87.3714 31.7108 88.0137 30.8211C87.8775 30.562 88.025 30.3212 88.2085 30.0793C88.0107 31.6592 87.6943 33.0905 87.2673 34.3671ZM86.1634 36.9148L86.2203 36.8741C86.0612 37.1846 85.8929 37.4648 85.7082 37.7567C85.7743 37.4021 85.8287 37.0313 86.1634 36.9148ZM72.1297 45.6737L72.0123 45.647C71.9714 45.418 72.1587 45.6283 72.2028 45.4493C72.1865 45.3749 71.9714 45.418 72.0423 45.2936C72.2085 45.2853 72.2619 45.2225 72.2677 45.1446L72.2461 45.9224C72.0984 45.819 71.9682 45.74 72.1216 45.6795M76.4554 38.4857C76.4554 38.4857 76.4635 38.4798 76.4577 38.4717L76.4868 38.5124C76.4868 38.5124 76.4612 38.4938 76.4554 38.4857ZM82.3975 45.1778C81.934 45.5954 81.4739 46.0351 80.8973 46.0541C80.8892 46.0599 80.859 46.0692 80.8229 46.0704C81.3331 45.8038 81.856 45.5036 82.3917 45.1696M84.0823 43.9235C84.3693 43.706 84.6714 43.4407 84.9433 43.1848C84.697 43.4593 84.3949 43.7246 84.0823 43.9235ZM79.5903 28.9281L79.5624 28.8375L79.4567 29.0851L79.3334 28.9643C78.8536 29.3936 78.4552 29.8507 78.0625 30.3159L77.9636 30.1776C77.7815 30.7997 77.1191 31.0768 76.8149 31.614L76.7985 31.5396C76.1016 32.3701 75.5988 33.2829 75.1693 34.2295C72.6657 38.516 72.3243 42.8173 72.295 44.289C72.1753 44.2763 72.0788 44.2962 71.9743 44.4078L72.1731 44.4623C71.9732 44.5438 72.0697 44.524 71.9232 44.5427C71.8885 44.838 71.6177 44.8719 71.4888 45.087C71.4888 45.087 71.4969 45.0812 71.5027 45.0893C71.7214 45.2403 71.5948 45.4415 71.5484 45.5485L71.4496 45.5823C71.2241 45.6452 71.8718 45.9319 71.4858 45.8391C71.5699 46.4552 71.5622 47.1492 71.5428 47.8269C71.651 47.9094 71.5791 48.1698 71.664 48.2198L71.5001 48.2141L71.6489 48.2674C71.6489 48.2674 71.6675 48.2419 71.6838 48.2302L71.7489 48.2697L71.7245 48.2872L71.6547 48.2756C71.5363 48.471 71.4283 48.6466 71.3121 48.828C71.3634 49.0372 71.137 49.4082 70.8815 49.8245C71.3453 49.751 71.8893 49.6692 72.5261 49.2875C72.8957 49.3059 73.828 49.303 74.6625 48.9398L74.5811 48.998C75.1379 48.8825 75.2529 48.8371 75.5412 48.7416C75.7876 48.6391 76.0165 48.5123 76.1663 48.3436C76.3921 48.7108 76.6129 48.5898 76.8536 48.6513C77.1382 48.3616 77.8333 48.2333 78.2771 47.8913C78.4237 48.0446 78.6641 47.676 78.7863 47.9328C80.0016 46.916 81.638 46.2989 83.193 45.7399C83.2708 45.4876 83.2775 45.1016 83.3354 44.8389C83.3657 44.8296 83.3843 44.89 83.3518 44.9133C83.5586 44.7039 83.9469 44.7827 84.1362 44.5489C84.1556 44.576 84.1634 44.6155 84.1595 44.6675C84.2896 44.4023 84.722 44.4741 84.8264 44.1044L84.8916 44.1439L84.9844 43.9299C85.0251 43.9869 85.0856 44.0543 85.0682 44.1159C87.0086 42.5314 88.2114 40.208 89.3551 38.0253L89.3924 38.1462L89.456 37.6335C89.4932 37.6683 89.5025 37.6985 89.5141 37.7148C89.9253 37.224 89.9749 36.5369 90.1756 35.9753C90.2233 35.9904 90.2687 36.1055 90.3419 36.0531C90.2474 35.5428 90.8833 35.4692 90.4715 35.0998C90.4959 35.0823 90.6052 35.1148 90.6378 35.1776C90.7839 34.5567 90.8718 33.9405 91.004 33.3174C91.1059 32.7035 91.3415 32.1047 91.4376 31.4827C91.0521 30.3937 91.7233 29.2866 91.3239 28.1953L91.4216 28.2115C91.3084 27.6408 91.2953 27.0724 91.3344 26.4911L91.3862 25.618L91.4111 24.6043C91.1123 24.5476 90.7915 24.4943 90.4904 24.4515C90.2276 24.3935 90.0579 24.3797 89.8126 24.3461C89.4604 24.4382 89.2501 24.5395 88.8874 24.6513L88.8502 24.5304C87.9997 25.2494 86.6496 24.6167 85.8411 25.5146L85.8631 25.3391C85.7993 25.5937 85.3471 25.5114 85.4135 25.759C85.367 25.78 85.3228 25.787 85.2763 25.8079L85.2287 25.7928C85.2287 25.7928 85.1938 25.83 85.1892 25.8579C84.7894 26.0209 84.4117 26.1804 84.0398 26.3481C83.8469 26.3877 83.647 26.4692 83.4657 26.6112C83.425 26.6403 83.3623 26.6728 83.31 26.6857L83.3169 26.6438C83.2763 26.6729 83.2437 26.6962 83.217 26.7276C83.0532 26.8079 82.8951 26.8963 82.7394 26.9708C82.7417 26.9569 82.7463 26.929 82.7731 26.8976C81.9116 26.8621 81.4449 27.6877 80.8174 28.0996L80.7859 27.9009C80.6048 28.3009 79.9086 28.4792 79.6089 28.9025" fill="#E77622"/>
<path d="M83.1719 45.8154C83.1719 45.8154 83.1754 45.8375 83.1672 45.8433L83.1719 45.8154Z" fill="#E77622"/>
<path d="M71.4124 45.2393C71.4124 45.2393 71.4356 45.1858 71.4461 45.166C71.41 45.1672 71.4229 45.2195 71.4124 45.2393Z" fill="#E77622"/>
<path d="M52.1154 20.7688L52.1443 20.6374C52.3734 20.7686 52.17 20.8281 52.3038 21.0151C52.3654 21.0325 52.3816 20.7628 52.491 20.9673C52.4353 21.1301 52.4714 21.215 52.5458 21.2847L51.9329 20.7887C51.9921 20.648 52.0606 20.5375 52.1154 20.7688ZM49.1801 26.2738C48.6603 27.7644 48.3275 29.2073 48.1529 30.5617C48.1224 30.2269 48.1118 29.9026 48.1057 29.5504C48.4781 28.3865 48.6261 27.1495 48.9904 25.9915C49.2039 25.3101 49.4883 24.6764 49.9436 24.0925C49.9922 23.6275 50.3011 23.2344 50.6357 22.8599C50.0412 24.0227 49.5572 25.1681 49.1964 26.2622M52.7228 25.3997L52.8333 25.4682C52.824 25.6101 52.6902 25.423 52.6124 25.5033C52.6101 25.5172 52.6833 25.5509 52.7206 25.5857L52.6101 25.6032C52.6101 25.6032 52.5404 25.5916 52.516 25.6091C52.5508 25.4859 52.6135 25.3672 52.6704 25.2405C52.7762 25.3369 52.8797 25.4473 52.7286 25.4079M52.4651 26.002C52.6325 26.0298 52.5988 26.0171 52.6604 26.0345C52.7604 26.1228 52.8465 26.2087 52.9384 26.3028C53.086 26.2342 53.128 26.4992 53.2639 26.2422C53.1013 26.5306 53.2398 26.7758 53.3224 26.8397C53.298 26.8571 53.2654 26.8804 53.2642 26.8443C53.1006 27.2687 53.7047 26.7383 53.4656 27.229C53.7328 27.001 53.5925 27.5439 53.9713 27.3345C53.9295 27.4135 53.8865 27.4566 53.8296 27.4973C54.0344 27.732 54.1683 28.0911 54.3416 28.2991C54.7403 28.2721 54.5698 28.8244 55.0405 28.709C55.0743 28.8938 55.0932 29.2123 55.3675 29.2865L55.2932 29.3029C55.4851 29.4852 55.6689 29.7595 55.9932 29.7488C55.6982 30.0582 55.8214 30.093 55.7797 30.2581C56.0227 30.3056 56.1937 30.6136 56.4624 30.7657C56.3171 30.9064 56.6473 30.9039 56.4056 31.0645C57.2533 31.4417 57.5038 32.3936 57.4102 33.2597C57.5916 33.2899 57.9159 33.2792 58.1391 33.3162C58.1147 33.3337 58.0845 33.343 58.0729 33.3268C58.1741 33.4511 57.9592 33.6663 58.0685 33.7848C58.0685 33.7848 58.0371 33.7867 57.9743 33.7906C58.1383 33.8824 57.8769 34.1185 58.1129 34.2079L58.0479 34.2544L58.1746 34.3113C58.0944 34.3195 58.0154 34.3637 57.9759 34.3428C58.2695 35.5098 58.9271 36.6869 58.9139 37.975L58.8209 37.9308L58.9954 38.1749C58.9954 38.1749 58.9257 38.1633 58.892 38.1505C58.7608 38.4656 58.9993 38.7991 58.9542 39.1142C58.8984 39.1049 58.8135 39.055 58.7705 39.098C58.8961 39.2049 58.8137 39.313 58.7544 39.3677C58.7033 39.4166 58.6917 39.4003 58.9475 39.5001C58.9172 39.5094 58.8161 39.4711 58.7684 39.456C58.8126 39.5351 58.8325 39.6315 58.8383 39.7257C58.8839 40.0128 58.8027 40.329 58.7248 40.4093C58.8601 41.0625 58.8115 41.3555 58.757 41.5543C58.7326 41.6578 58.6966 41.745 58.6828 41.9147L58.6632 42.2484L58.6553 42.5123L58.6461 42.6541L58.6098 42.3112C58.5647 42.6263 58.4063 42.1986 58.2898 41.7778C58.1698 41.335 58.0893 40.9131 57.9647 40.6702C57.9053 40.3808 57.7681 40.3437 57.6505 40.0589L57.7388 39.9589C57.1888 39.7744 57.7288 38.8104 57.0962 38.476L57.2566 38.4596C57.0043 38.4679 57.1855 38.1539 56.9007 38.2715L56.8716 38.2308L56.9193 38.1599C56.8937 38.1413 56.8658 38.1367 56.8402 38.1181L56.6213 37.537C56.6363 37.4033 56.6013 37.2685 56.492 37.15L56.4513 37.093L56.5233 37.0907C56.4861 37.0558 56.4512 37.007 56.4175 36.9942L56.3534 36.8188C56.3534 36.8188 56.3302 36.7862 56.3546 36.7688C56.3685 36.7711 56.3929 36.7536 56.4243 36.7803C56.4835 36.6397 56.4904 36.5118 56.4531 36.3909C56.3693 36.1189 56.0681 35.9041 55.9702 35.6298L56.1609 35.6041C55.8853 35.4938 55.9466 35.0811 55.7593 34.8708L55.8477 34.8568L55.6895 34.7732L55.8511 34.7069C55.7404 34.3803 55.488 34.1305 55.3507 33.8353L55.5215 33.7992C55.1378 33.6064 55.2875 33.1797 55.0595 32.9125L55.1234 32.9159C54.9545 32.336 54.6333 31.8526 54.3168 31.3413L52.364 26.0498C52.4512 26.0858 52.5384 26.1217 52.6488 26.1042L52.479 26.0044L52.4651 26.002ZM53.1524 41.1615L53.135 41.1371C53.135 41.1371 53.1605 41.1557 53.1908 41.1463C53.1826 41.1522 53.1605 41.1557 53.1524 41.1615ZM52.967 36.5361L53.0406 37.0859C52.9765 36.9104 52.9427 36.7256 52.967 36.5361ZM52.737 34.9425L52.8479 35.6992C52.6792 35.4633 52.5244 35.2298 52.7161 34.982C52.7242 34.9762 52.7346 34.9564 52.7428 34.9506M52.4133 39.6984C52.3527 39.459 52.1771 39.351 52.0863 39.1208L52.2013 39.0754C51.6304 38.8445 52.2647 38.1326 51.6763 37.8772L51.8367 37.8609C51.5984 37.8715 51.7878 37.6377 51.5158 37.7216C51.5181 37.7076 51.5065 37.6914 51.4948 37.6751L51.5599 37.6286C51.5599 37.6286 51.5064 37.6053 51.4808 37.5868C51.44 37.4438 51.3958 37.2787 51.355 37.1358C51.3817 37.0184 51.3862 36.9044 51.2862 36.8162C51.2804 36.808 51.2769 36.7859 51.2711 36.7778L51.3292 36.7731C51.3292 36.7731 51.2745 36.7139 51.2512 36.6813C51.2361 36.643 51.2291 36.5988 51.2221 36.5546C51.2244 36.5407 51.1988 36.5221 51.2232 36.5046C51.2291 36.5128 51.2732 36.5058 51.293 36.5162C51.6055 36.1452 51.145 35.8967 51.0959 35.5875L51.2959 35.5921C51.0482 35.4864 51.2154 35.1701 51.1037 34.9796L51.1897 34.9795L51.0676 34.8947L51.2443 34.8667C51.222 34.6121 51.0452 34.3821 51.0229 34.1275L51.181 34.1251C50.8798 33.9102 51.1563 33.6264 51.0318 33.3835L51.0876 33.3928C51.1338 32.9417 51.0138 32.4989 50.924 32.0467C50.962 31.4294 51.0325 30.7889 51.1494 30.1273C51.4598 30.1144 51.0694 30.3936 51.4809 30.4189C51.3984 30.4411 51.3217 30.4713 51.2636 30.476C51.294 30.7248 51.207 31.0329 51.2222 31.2433C51.5652 31.3791 51.1435 31.7176 51.5934 31.8138C51.5261 31.9603 51.3728 32.1929 51.567 32.3614L51.5112 32.3521C51.5706 32.5555 51.6289 32.8089 51.9126 32.9133C51.514 33.0263 51.614 33.1146 51.4897 33.2158C51.6932 33.3285 51.6806 33.6203 51.8888 33.791C51.7133 33.8551 51.997 33.9595 51.7238 34.0073C52.3403 34.5254 52.2512 35.2776 51.9436 35.9648C52.1064 36.0205 52.4412 36.0761 52.6342 36.1225C52.6098 36.1399 52.5878 36.1434 52.5703 36.119C52.6378 36.2306 52.3845 36.3749 52.4461 36.4783C52.4461 36.4783 52.4202 36.4764 52.3683 36.4725C52.502 36.5736 52.1766 36.7203 52.4103 36.8236L52.3278 36.8457L52.4383 36.9142C52.3581 36.9224 52.2558 36.9341 52.2325 36.9016C52.2959 37.9013 52.9045 38.8553 52.9795 39.8712L52.8761 39.8469L53.0622 40.0211C53.0157 40.0421 52.982 40.0293 52.968 40.027C52.8578 40.3026 53.1508 40.5233 53.1312 40.7709C53.0929 40.786 53.0057 40.75 52.9487 40.7908C53.0813 40.8558 53.0395 40.9349 53 41C52.7022 40.6352 52.6623 40.0981 52.4273 39.7007M49.1606 39.6028C49.3004 39.97 49.4447 40.3094 49.5949 40.6569C49.4145 40.3187 49.2701 39.9794 49.1606 39.6028ZM48.1864 35.7998L48.2026 35.7021C48.2844 36.3321 48.4126 36.9412 48.5513 37.5305C48.2848 36.9343 48.0438 36.3567 48.1887 35.7858M51.9907 29.4642L52.1156 30.3092L52.4671 32.8118C52.3821 32.6759 52.3007 32.562 52.2239 32.4202C52.3442 31.6088 51.6417 30.9187 51.9841 30.1082C51.9864 30.0943 51.9992 30.0606 52.0015 30.0466C51.8212 29.8805 51.892 29.67 51.9988 29.4584M51.1622 30.0936C51.1622 30.0936 51.1947 29.9843 51.2098 29.9367C51.297 29.9726 51.3644 29.9982 51.1622 30.0936ZM51.2376 29.7693C51.2654 29.6018 51.3071 29.4367 51.3489 29.2716C51.4221 29.3053 51.3861 29.3925 51.4861 29.3948C51.5163 29.3855 51.5605 29.3785 51.607 29.3575C51.5686 29.3726 51.5361 29.3959 51.5036 29.4192C51.2909 29.5344 51.2608 29.7158 51.2794 29.7762C51.255 29.7937 51.2492 29.7855 51.2376 29.7693ZM51.7156 28.2717L51.6016 28.2671L51.6109 28.2113C51.6109 28.2113 51.733 28.2101 51.7643 28.1508C51.7585 28.1426 51.6783 28.1508 51.6364 28.1439C51.6387 28.1299 51.6434 28.102 51.6515 28.0962C51.7561 28.0705 51.8049 28.0356 51.8072 28.0217L51.8621 28.339C51.7063 28.3275 51.5749 28.2985 51.7318 28.26M49.7686 22.9883C49.7686 22.9883 49.7197 22.9372 49.7464 22.9058C49.2106 23.0677 49.8956 23.4753 49.2772 23.5733C49.5668 23.7719 48.9265 24.1315 49.2324 24.4906C49.1383 24.4964 49.0685 24.4848 49.0197 24.4337C48.899 24.7291 48.748 25.0337 48.5936 25.3163C48.431 25.6047 48.2882 25.9036 48.2082 26.1698C48.3701 26.7056 47.7206 27.2071 48.0453 27.7125C47.8827 28.0009 47.5912 28.5045 47.6625 28.9822L47.6217 28.9253C47.5081 29.4368 47.469 30.1041 47.6785 30.4829C47.2543 30.5774 47.2928 30.8203 47.136 31.0308C47.3036 31.4027 47.2018 32.1026 47.3416 32.6419C47.1475 32.7315 47.4395 33.0882 47.1489 33.1116C47.6532 34.6074 47.7032 36.379 47.7275 38.046C47.938 38.2028 48.2787 38.3525 48.5217 38.4861C48.5031 38.5116 48.4752 38.507 48.4578 38.4826C48.5742 38.7313 48.4163 39.0778 48.5467 39.3288C48.5467 39.3288 48.5122 39.3207 48.4432 39.3045C48.6503 39.5252 48.4052 39.9218 48.7343 40.1413L48.6693 40.1878L48.8379 40.3377C48.7554 40.3598 48.6706 40.3959 48.6217 40.3448C49.4683 42.7145 51.2307 44.6629 52.7897 46.5847L52.6699 46.5719L53.106 46.8379C53.106 46.8379 53.0316 46.8542 53.0095 46.8577C53.3087 47.4306 53.9563 47.7173 54.3705 48.1588C54.3298 48.1879 54.1996 48.195 54.2415 48.2879C54.7449 48.4073 54.5651 49.0154 55.0648 48.7687C55.0742 48.7989 54.9998 48.9012 54.9417 48.9059C55.8942 49.5156 56.763 50.2835 57.5691 51.0839L58.5218 52.0377L58.4268 50.6672C58.6485 50.2381 58.8971 49.8636 59.1653 49.4136L59.5915 48.703C59.7204 48.4879 59.8272 48.2763 59.9282 48.0565C60.2499 47.5436 60.3391 47.1355 60.5736 46.5867L60.691 46.6134C60.7008 45.5613 61.8326 44.7887 61.6866 43.6391C61.6889 43.6252 61.6772 43.6089 61.6877 43.5891L61.8098 43.6739C61.6644 43.4706 61.9676 43.1553 61.7094 43.0695L61.728 42.9579L61.8012 42.9055C61.7802 42.859 61.779 42.823 61.7639 42.7846C61.8567 42.3986 61.9436 42.0045 62.0212 41.5802C62.0897 41.3837 62.1384 41.1767 62.1057 40.9419L62.1335 40.7745L62.1742 40.8314C62.1602 40.7431 62.1578 40.671 62.1496 40.5908C62.1728 40.4513 62.1924 40.2897 62.1958 40.1397C62.2133 40.1641 62.2435 40.1548 62.2563 40.2071C62.7464 39.5 62.2995 38.6517 62.3107 37.8938L62.4967 37.982C62.293 37.6113 62.4147 36.9219 62.2574 36.4442L62.3551 36.4604L62.198 36.2408L62.3828 36.207C62.3673 35.5664 62.0321 34.9947 61.8958 34.3915L62.0539 34.3891C61.6873 33.8766 61.7369 33.1896 61.4273 32.6364L61.4971 32.648C61.3164 31.8797 60.9231 31.2267 60.5577 30.5782C60.4389 30.3435 60.2854 30.146 60.1422 29.9287C58.7584 27.2547 56.5525 24.4801 53.2273 21.7562C53.2912 21.6736 53.3411 21.5887 53.3166 21.4341L53.1539 21.5505C53.2224 21.354 53.1725 21.4389 53.2433 21.3144C53.0339 21.1077 53.2047 20.8995 52.9371 20.5253C52.9371 20.5253 52.9363 20.53 52.9348 20.5393C52.6453 20.5987 52.4487 20.2722 52.2986 20.0968L52.2345 19.9213C52.1134 19.5284 51.8057 20.1296 51.895 19.7215C51.8043 19.6635 51.7159 19.5915 51.5996 19.5148C51.3871 19.9741 51.1549 20.423 50.9367 20.8742C50.8531 21.0323 50.7695 21.1905 50.6836 21.3626C50.2863 21.8557 49.794 22.8348 49.7348 22.9755" fill="#E77622"/>
<path d="M47.6403 38.0601L47.6578 38.0845L47.6659 38.0787C47.6659 38.0787 47.6543 38.0625 47.6403 38.0601Z" fill="#E77622"/>
<path d="M52.8212 20.4483C52.8503 20.489 52.8794 20.5296 52.9084 20.5703C52.9154 20.5285 52.8445 20.4808 52.8212 20.4483Z" fill="#E77622"/>
<path d="M44.912 48.0144C44.912 48.0144 44.8981 48.0121 44.8923 48.004L44.9039 48.0203L44.912 48.0144Z" fill="#E77622"/>
<path d="M39.6874 39.2844L39.6537 39.2716C39.6537 39.2716 39.6734 39.2821 39.6874 39.2844Z" fill="#E77622"/>
<path d="M38.0898 51.1108C38.0898 51.1108 38.0781 51.0945 38.07 51.1003L38.0816 51.1166L38.0898 51.1108Z" fill="#E77622"/>
<path d="M48.5806 59.7123C48.5717 60.2842 48.286 60.7959 47.9608 61.2867C48.9218 58.7798 49.6823 55.5801 49.4615 51.9022C49.5267 52.1997 49.6002 52.4915 49.6655 52.789C49.4786 55.1234 49.758 57.6284 48.5806 59.7123ZM44.7846 60.7307C44.7205 60.5552 44.6646 60.2879 44.6144 60.0287C44.5106 59.4882 44.4534 59.0127 44.3276 58.6478C44.2751 58.3165 44.1075 58.1167 43.9968 57.7041L44.1038 57.6645C43.5001 57.1127 44.1121 56.1463 43.4526 55.5852L43.6165 55.5909C43.3654 55.5493 43.5593 55.2016 43.2595 55.2808L43.2408 55.2204L43.2826 55.1413C43.2826 55.1413 43.2314 55.1041 43.2 55.0774L42.9915 54.3045C43.0053 54.1348 42.9831 53.9662 42.8528 53.8012L42.8307 53.7187L42.8946 53.7221C42.8597 53.6733 42.8248 53.6245 42.7899 53.5757L42.7328 53.3584C42.7328 53.3584 42.7118 53.3119 42.7304 53.2863C42.7421 53.3026 42.7746 53.2793 42.8118 53.3142C43.0672 52.7258 42.4927 52.3007 42.3703 51.7858L42.5621 51.7961C42.2865 51.5998 42.3617 51.1034 42.1744 50.8071L42.2604 50.8071L42.0952 50.6793L42.2684 50.6292C42.1658 50.2108 41.918 49.8471 41.7852 49.438L41.9456 49.4216C41.5665 49.1149 41.7301 48.6045 41.4985 48.2292L41.5601 48.2466C41.3992 47.4887 41.0884 46.8135 40.7799 46.1244L38.9039 39.1182C38.9888 39.1681 39.076 39.2041 39.1783 39.1924L39.0248 39.0809C39.2154 39.1412 39.1224 39.0971 39.2468 39.1679C39.3374 39.0539 39.5515 39.2328 39.6561 39.2932C39.6561 39.2932 39.6503 39.2851 39.6445 39.2769C39.5118 39.0399 39.6386 39.0968 39.6641 39.1153L39.734 39.2129C39.8318 39.4872 39.5615 38.6109 39.7223 39.1107C39.7385 39.013 39.7767 38.8258 39.8209 38.8188C39.8721 38.856 39.9244 38.9292 39.9872 38.9826C40.0546 38.8361 40.0745 39.1046 40.1754 38.7988C40.071 39.1686 40.0118 39.2232 40.1723 39.3789C40.1479 39.3964 40.1235 39.4138 40.1142 39.3836C39.9599 39.8382 40.5989 39.3565 40.3656 39.8554C40.6723 39.6483 40.5449 40.2436 40.9505 40.0887C40.9028 40.1596 40.8517 40.2085 40.8029 40.2434C41.0473 40.585 41.2173 41.029 41.4209 41.3136C41.8557 41.3715 41.7421 41.9691 42.2327 41.9502C42.2735 42.1791 42.3086 42.572 42.6133 42.723L42.5552 42.7277C42.753 43.0042 43.0136 43.3342 43.3519 43.4118C43.0371 43.7108 43.1813 43.7921 43.1349 43.9851C43.4047 44.0872 43.5712 44.5091 43.884 44.7402C43.7411 44.867 44.0853 44.9528 43.854 45.0936C44.7298 45.7336 45.0444 46.947 44.9358 48.0329C45.1242 48.1071 45.4892 48.1534 45.6974 48.2381C45.673 48.2556 45.6346 48.2707 45.6253 48.2405C45.7196 48.4067 45.5 48.6498 45.5861 48.8218C45.5861 48.8218 45.5555 48.8191 45.4943 48.8137C45.6571 48.9554 45.3632 49.2148 45.6237 49.3728L45.5551 49.3972L45.6889 49.4983C45.6005 49.5123 45.4599 49.5391 45.4796 49.4635C45.7166 51.0153 46.3442 52.6319 46.1801 54.3106L46.0976 54.2467L46.2222 54.5756C46.2222 54.5756 46.1547 54.5501 46.135 54.5396C45.9341 54.9292 46.1878 55.387 46.073 55.7765C46.0311 55.7696 45.9509 55.6918 45.8916 55.7464C46.0941 56.0811 45.5001 56.1617 45.985 56.3927C45.9606 56.4102 45.849 56.3916 45.806 56.3487C45.8518 57.1519 45.5828 58.1681 45.3992 58.41C45.5192 58.8528 45.402 59.1702 45.3185 59.4144C45.2303 59.6865 45.1409 59.8365 45.0136 60.6898L45.018 60.4039C44.9856 60.5992 44.9381 60.8422 44.894 60.9352C44.8707 60.9027 44.8242 60.8376 44.7962 60.7469M39.0013 49.8431L39.0474 50.9044C38.9053 50.5511 38.7551 50.2036 38.9781 49.8966C38.9944 49.885 38.9909 49.8629 39.0013 49.8431ZM38.6327 42.2628L38.8577 46.9091C38.7878 46.7255 38.7179 46.5418 38.6341 46.3559C38.8334 45.2421 38.1433 44.1742 38.5902 43.0801C38.4099 42.8279 38.5062 42.55 38.6246 42.2686M38.7381 58.2073C38.6229 57.9946 38.5333 57.8005 38.4591 58.161L38.4357 57.8704C38.3405 58.0983 38.1263 57.6613 37.9935 57.2522C37.8596 56.8071 37.7582 56.4247 37.6208 56.1295C37.5555 55.8319 37.3939 55.7262 37.2809 55.4136L37.3878 55.374C36.7994 54.9466 37.4219 54.1325 36.8323 53.669L36.9962 53.6747C36.7509 53.6412 36.9634 53.3539 36.6601 53.4111C36.6484 53.3948 36.6507 53.3808 36.6472 53.3588L36.7007 53.2959C36.7007 53.2959 36.6495 53.2588 36.6239 53.2402C36.5808 53.0252 36.5457 52.8043 36.5084 52.5974C36.5397 52.4521 36.5408 52.3161 36.4361 52.1697C36.4326 52.1476 36.4291 52.1255 36.4256 52.1034L36.4814 52.1127C36.4523 52.072 36.4232 52.0313 36.4022 51.9849C36.3976 51.9267 36.3789 51.8663 36.3742 51.8082C36.3847 51.7884 36.3672 51.764 36.3777 51.7442C36.3893 51.7605 36.4195 51.7512 36.4509 51.7779C36.8133 51.322 36.3283 50.9189 36.3083 50.4784L36.4955 50.5166C36.2698 50.3214 36.4649 49.9238 36.3589 49.6553L36.4426 49.6692L36.3158 49.5263L36.496 49.5204C36.49 49.1681 36.3677 48.8253 36.3617 48.473L36.5151 48.4985C36.2568 48.1546 36.5368 47.8068 36.4668 47.4512L36.5203 47.4744C36.6222 46.8605 36.5939 46.2537 36.59 45.6295C36.8577 44.2332 37.2706 42.7821 37.8869 41.2717C37.9161 41.4844 37.9232 41.7006 37.9385 41.911C38.0815 41.9563 37.9398 42.2051 38.2141 42.1073C37.9015 42.2203 37.8307 42.5167 37.8483 42.6272C37.8204 42.6225 37.7843 42.6237 37.7948 42.604C37.3915 42.8309 38.1936 42.835 37.6904 43.0597C38.0462 43.0758 37.5942 43.4236 38.0162 43.5152C37.9395 43.5455 37.8651 43.5618 37.8035 43.5444C37.8095 43.8966 37.7005 44.2943 37.6995 44.6023C38.0182 44.8416 37.5872 45.2359 38.029 45.424C37.9408 45.61 37.7818 45.9205 37.9644 46.1587L37.9109 46.1355C37.9564 46.4226 37.9904 46.7795 38.2683 46.9618C37.8639 47.0667 37.9511 47.1887 37.8222 47.3178C38.028 47.5025 37.9853 47.8896 38.1749 48.172C37.9878 48.2198 38.2716 48.4102 37.9949 48.436C38.565 49.2331 38.432 50.2503 38.0675 51.1503C38.2292 51.256 38.5548 51.3674 38.7466 51.4638C38.7222 51.4812 38.6804 51.4743 38.6769 51.4522C38.7374 51.6056 38.4736 51.7697 38.5261 51.9289C38.5261 51.9289 38.4962 51.9215 38.4365 51.9069C38.5633 52.0498 38.2333 52.2243 38.4554 52.3974L38.3811 52.4137L38.4927 52.5183C38.3986 52.5242 38.2625 52.5231 38.2939 52.4638C38.2726 53.7576 38.8283 55.5486 38.7821 55.9997L38.689 55.8696C38.7506 55.973 38.81 56.0904 38.8671 56.2217C38.8147 56.1485 38.7914 56.116 38.7623 56.0753C38.6007 55.9696 38.894 56.6204 38.8627 56.7657C38.8092 56.6565 38.7335 56.4647 38.6532 56.3009C38.9432 57.1016 38.2912 55.5025 38.8874 57.0924C38.8571 57.0157 38.7325 56.6868 38.6778 56.5415C38.7827 56.946 38.841 57.2854 38.8597 57.5179C38.8691 57.6341 38.8715 57.7062 38.8622 57.762C38.8553 57.8038 38.8518 57.8678 38.7633 57.6237C38.9569 58.6163 38.8115 58.413 38.7137 58.2247M38.3957 40.625C38.3957 40.625 38.4747 40.6668 38.5329 40.6622L38.5387 40.7563C38.3957 40.7111 38.2608 40.66 38.4038 40.6192M38.4688 40.4867C38.4688 40.4867 38.2328 40.4833 38.3107 40.4031C38.3909 40.3949 38.4432 40.3821 38.4676 40.3646C38.5141 40.4297 38.5607 40.4947 38.5026 40.5855L38.3945 40.589C38.3945 40.589 38.4061 40.6053 38.4119 40.6134L38.2922 40.6007C38.2491 40.4717 38.4328 40.5739 38.4793 40.4669M39.1454 38.6135C39.229 38.4553 39.3207 38.2914 39.4124 38.1274C39.4428 38.3761 39.4639 38.5947 39.3917 38.425L39.4441 38.5842C39.4047 38.7354 39.3615 38.4343 39.2824 38.4786C39.2732 38.5344 39.407 38.7214 39.3291 38.7157C39.2244 38.5693 39.1744 38.5681 39.1477 38.5995M43.826 43.1465C43.6539 42.9746 43.4736 42.8084 43.2991 42.6505C42.8159 41.3732 41.5088 40.6975 41.1186 39.3783C40.7953 39.253 40.6603 38.9438 40.5438 38.6091L40.5322 38.5928C41.8735 40.1416 42.9753 41.6649 43.826 43.1465ZM45.7655 47.5255C45.5037 47.1595 45.2419 46.7935 45.3533 46.3819C45.3498 46.3598 45.3463 46.3377 45.3567 46.3179C45.5116 46.7235 45.6385 47.1245 45.7655 47.5255ZM48.0484 45.3886C48.0484 45.3886 48.06 45.4048 48.0577 45.4188C47.833 44.8296 47.5827 44.2217 47.2963 43.6151C47.6954 44.1903 48.0945 44.7655 48.0484 45.3886ZM46.5354 64.6053L46.6273 64.6994C46.5194 64.961 46.4843 64.6541 46.3344 64.8228C46.3066 64.9042 46.5194 64.961 46.3706 65.0797C46.2323 65.0065 46.1532 65.0507 46.0917 65.1194C46.2473 64.8728 46.4017 64.5902 46.5666 64.2879C46.6306 64.4634 46.6912 64.6168 46.5273 64.6111M50.1981 56.8341C50.0175 56.2379 50.503 55.4727 50.1248 54.944C50.2618 54.551 50.4845 53.8998 50.2854 53.3292L50.3319 53.3943C50.2885 52.7491 50.3147 51.9435 49.9657 51.5415C50.3527 51.3262 50.2468 51.0577 50.3454 50.7659C50.0964 50.3662 50.0981 49.492 49.7513 48.904C49.9163 48.7737 49.5546 48.4054 49.8149 48.3053C49.5821 47.8939 49.4063 47.4418 49.2247 46.9816C49.0128 46.5307 48.8335 46.0565 48.6844 45.573C48.4187 44.5827 48.0705 43.6146 47.8363 42.6511C47.5897 42.4955 47.184 42.3923 46.9188 42.2622C46.9316 42.2285 46.9699 42.2134 46.9909 42.2599C46.7954 41.9694 46.8463 41.5764 46.6206 41.2952C46.6532 41.272 46.6532 41.272 46.7345 41.2998C46.4554 41.0814 46.5702 40.6059 46.183 40.3911L46.2283 40.3341L46.0096 40.1831C46.0828 40.1308 46.2141 40.0737 46.2572 40.2027L45.6731 39.2313C45.452 38.9222 45.1984 38.6364 44.9529 38.3448C44.4539 37.7673 43.9548 37.1899 43.4557 36.6125L41.7912 35.0244L40.0836 33.3073L40.2487 33.3491L39.5765 32.9078C39.5765 32.9078 39.6218 32.8508 39.6497 32.8554C39.4787 32.6335 39.2774 32.4209 39.0855 32.2385C38.5989 32.9677 38.1125 33.9549 37.8569 34.2852C37.8255 34.2585 37.8068 34.1121 37.7115 34.1679C37.7023 34.2237 37.693 34.2795 37.6779 34.3272L37.6489 34.3726C37.4562 34.7563 37.0226 34.8205 37.2809 35.2505C37.2507 35.2598 37.1437 35.2133 37.1332 35.1471C36.8233 35.8483 36.4203 36.5053 36.0906 37.196C35.7528 37.8926 35.3952 38.5787 35.0201 39.2403C35.0012 40.6063 34.0487 41.767 34.0973 43.1585L34.0101 43.1225C33.8496 44.8233 33.2787 46.5348 33.2264 48.3181C33.1838 49.0493 33.2946 49.548 33.3101 50.2745L33.1916 50.2978C33.4721 50.8963 33.4214 51.5473 33.3904 52.2088C33.4176 52.8656 33.418 53.5538 33.795 54.1324L33.6241 54.0826C33.8892 54.2126 33.7629 54.7579 34.0441 54.7042C34.0511 54.7484 34.0721 54.7949 34.0791 54.8391L34.0489 54.9344C34.0489 54.9344 34.0955 54.9995 34.1187 55.032C34.2516 55.5271 34.3926 56.0164 34.5521 56.4802C34.5906 56.7231 34.671 56.973 34.8153 57.2263C34.8398 57.2949 34.8665 57.3495 34.891 57.4181L34.8294 57.4007C34.8817 57.4739 34.9341 57.5471 34.9783 57.6261C35.0447 57.7876 35.1087 57.9631 35.1751 58.1247L35.1867 58.1409C35.1634 58.1084 35.1367 58.1398 35.0879 58.0887C35.0455 59.078 35.8852 59.8052 36.3229 60.6233L36.109 60.6164C36.5102 60.9196 36.7537 61.7413 37.1597 62.1886L37.0632 62.2084L37.3249 62.4024L37.1785 62.5071C37.5916 63.1706 38.1522 63.6794 38.6617 64.2371L38.5141 64.3058C39.184 64.675 39.4576 65.4874 40.0369 65.9706L39.9648 65.973C40.1754 66.2158 40.4022 66.447 40.629 66.6782L41.4119 67.4461C41.9248 67.9398 42.3761 68.3302 42.753 68.6508C42.7448 68.5706 42.7284 68.4962 42.7261 68.4241L42.4929 63.6976L43.7956 68.5443L45.504 65.9823C45.5924 66.0543 45.6877 66.0845 45.847 66.0321L45.7306 65.8694C45.9259 65.9018 45.8387 65.8658 45.9736 65.9169C46.1966 65.6099 46.4582 65.7178 46.7022 65.5433C46.7022 65.5433 46.7022 65.5433 46.6906 65.527C46.5928 65.2527 46.8345 65.0922 46.9309 64.9863L47.053 64.9851C47.2924 65.0105 46.8922 64.3993 47.1597 64.6874C47.4441 63.9677 47.8539 63.1827 48.1801 62.3839C48.0939 62.2119 48.4517 61.7839 48.1181 61.8504C48.5098 61.7792 48.7931 61.1955 48.8604 60.9629C48.8778 60.9873 48.9116 61.0001 48.8907 61.0396C49.4357 60.7359 48.7089 60.4074 49.333 60.1454C49.0167 59.9782 49.6557 59.4105 49.3195 59.0608C49.4102 59.0329 49.4822 59.0305 49.5416 59.0618C49.7805 58.3131 50.0416 57.4747 50.1783 56.8237" fill="#E77622"/>
<path d="M47.847 42.6319C47.847 42.6319 47.8668 42.6423 47.8807 42.6446L47.8633 42.6202L47.847 42.6319Z" fill="#E77622"/>
<path d="M46.8223 65.4702C46.8223 65.4702 46.7653 65.5109 46.7328 65.5342C46.7665 65.547 46.7897 65.4935 46.8223 65.4702Z" fill="#E77622"/>
</svg>
