<svg width="119" height="78" viewBox="0 0 119 78" fill="none" xmlns="http://www.w3.org/2000/svg">
<path d="M115.424 14.3525C115.424 14.2481 115.45 14.1437 115.45 14.0523C115.516 14.0523 115.555 14.0784 115.633 14.0654L115.424 14.3525ZM115.242 18.0719C115.15 18.3329 115.072 18.5939 114.981 18.868C115.111 17.5759 115.229 16.2839 115.359 14.9919C115.829 16.1012 115.568 17.067 115.242 18.0849M114.589 21.7521C114.615 21.6477 114.654 21.5433 114.68 21.4389C114.68 21.5825 114.68 21.713 114.68 21.8696L114.576 21.7521H114.589ZM90.7457 34.9723C90.9545 34.6591 91.1634 34.3589 91.3983 34.0718C91.2417 34.3459 91.0198 34.646 90.7457 34.9723ZM114.406 22.3394C114.328 22.8484 114.145 23.3182 113.871 23.6183C114.067 23.2007 114.25 22.7701 114.406 22.3394ZM117.839 1.94142C117.669 1.4716 117.356 0.949577 116.742 0.649415C116.677 0.623314 116.599 0.584162 116.534 0.558061C116.612 0.453657 116.573 0.349252 116.834 0.453657C116.168 0.0490903 115.385 -0.0683644 114.693 0.0360398C114.002 0.127394 113.31 0.362303 112.631 0.714667C111.953 1.06703 111.3 1.5238 110.713 2.12412C110.413 2.41124 110.152 2.75055 109.917 3.07681C109.695 3.39003 109.565 3.63799 109.408 3.9251L109.304 3.84679C108.155 6.73096 107.111 9.52377 106.38 12.4601C106.015 13.9087 105.741 15.3704 105.584 16.806C105.506 17.4976 105.454 18.2937 105.428 18.8941C105.375 19.5205 105.271 20.1339 105.049 20.7342C103.131 23.005 101.225 25.1453 99.1372 27.7162C97.0491 30.3002 94.7262 33.0408 91.855 36.4601L92.7555 35.0376C92.2857 35.6118 91.8289 36.3687 91.2547 36.2904C90.9415 36.2643 90.6674 36.0424 90.6935 35.7553C90.7066 35.4813 90.8501 35.2072 90.9937 34.9201C91.2808 34.3459 91.6984 33.7456 92.1421 33.1452C92.9382 32.1403 93.7343 31.1354 94.5173 30.1175C94.687 29.9087 94.8697 29.6868 95.0263 29.478C96.8664 27.1159 98.1062 25.5107 98.6805 24.1665C99.0198 23.5792 99.2547 23.0963 99.3852 22.6004C99.4504 22.3524 99.4896 22.1045 99.4896 21.8565C99.4896 21.5825 99.4896 21.4259 99.346 20.8908C98.811 18.9724 96.6576 18.0588 95.0785 18.6069C93.904 18.9854 93.0165 19.7162 92.2074 20.4993C92.1683 20.5254 92.1291 20.5515 92.0899 20.5906C90.8893 21.5825 89.8453 22.7179 88.8926 23.9185C88.7229 24.1012 88.5533 24.2839 88.3705 24.4536C86.7784 25.4715 86.0476 27.403 85.121 29.1779C83.842 30.8483 82.3934 32.3752 80.7621 33.6934C79.2091 34.385 77.7735 34.9071 76.2597 35.6901C74.7066 36.5384 73.2972 37.6346 72.0704 38.9266C70.4261 40.6623 69.0297 42.7635 68.2336 45.0212C67.5419 46.2871 67.0199 47.6444 66.7719 49.1582C66.2891 52.1598 65.8845 55.2398 66.3674 58.2153C66.9546 61.8694 66.3021 65.3409 65.6757 68.8515C65.5191 69.7389 65.3755 70.6133 65.2189 71.5007C64.8927 72.2968 64.5272 73.119 64.2662 74.0456C64.1618 74.5154 64.1357 75.0244 64.3706 75.455C64.6186 75.8857 65.0884 76.0815 65.5582 76.1337L65.6365 75.8335C66.0019 76.3947 66.8894 76.0293 67.6072 75.7683C67.8421 75.6769 68.0639 75.5986 68.2597 75.5464C68.4293 75.5464 68.599 75.5464 68.7687 75.5464C68.9122 75.5986 69.0166 75.7291 69.0558 75.9771L68.9122 76.0423C69.1341 76.4208 69.6561 75.951 70.1259 75.5333C70.935 75.5333 71.7572 75.5333 72.5664 75.5333C72.723 75.5986 72.9448 75.5594 73.1667 75.5333C73.3624 75.5333 73.5451 75.5333 73.7409 75.5333C73.9628 75.5986 74.1063 75.7813 74.0802 76.2642C73.6365 76.2642 74.7327 76.9167 73.7148 77.256C73.9889 77.4257 75.3983 77.3474 75.2678 76.6426C75.3331 76.2511 75.4766 75.8857 75.5158 75.5333C78.4652 75.5333 81.4277 75.5072 84.3771 75.5464C85.5255 75.5464 85.9692 75.1679 85.8126 73.9673C85.5908 72.2707 85.6299 70.5611 85.8648 68.8515C86.7131 62.4959 89.7017 57.3148 94.0345 52.8646C93.1862 53.9086 92.3771 54.9918 91.6332 56.1403C91.6332 56.0489 91.5549 55.9445 91.5549 55.8401C91.5288 56.1403 91.594 56.5187 91.4113 56.7145C91.2939 56.7145 91.2808 56.5187 91.2939 56.4274C90.0019 56.845 89.9366 59.2854 89.1275 59.5595C89.0622 59.8597 89.271 60.1337 89.5581 60.1076C87.8485 63.553 86.8697 67.7552 87.4048 71.5138C87.3004 71.6965 87.0916 71.7226 86.8306 71.6704L87.0524 72.2707C87.1177 72.5056 87.196 72.8188 87.2873 73.1712C87.4701 73.8629 87.5875 74.5937 87.5092 75.2071C87.457 75.8205 87.1569 76.473 86.6218 76.8645C86.152 77.2299 85.395 77.4779 84.9644 77.4126C82.9676 77.4387 80.9056 77.2952 78.9481 77.2169C78.8567 77.5431 79.4179 77.5562 79.0916 77.8824C80.5141 78.2609 81.2319 77.0863 82.5761 77.6345L82.537 77.9346C83.4766 78.1173 82.4065 77.1777 83.4505 77.5562C83.9073 77.8041 83.5288 77.9346 83.6985 77.9607C84.1422 77.9216 84.5989 77.9085 85.0688 77.8955C85.3167 77.8824 85.4994 77.9216 85.7865 77.8563C86.0998 77.765 86.3869 77.6475 86.6479 77.4779C87.1829 77.1777 87.6528 76.6165 87.8094 76.0293C87.9921 75.442 87.9529 74.8156 87.7441 74.1369C88.1226 73.9803 87.9921 73.0798 87.966 72.4143C87.9399 71.9053 87.9529 71.5529 88.2792 71.2789C88.0182 70.9135 88.1095 70.548 87.6658 70.3653C88.0573 67.8205 88.5794 65.2495 89.519 62.783C90.4456 60.3164 91.7767 57.9282 93.5647 55.8662C93.8909 54.4567 94.935 53.4388 96.1356 52.5383C97.3624 51.5856 98.7196 50.659 99.7115 49.3931C99.7637 49.4062 99.7898 49.4453 99.8028 49.4975C100.325 48.5318 101.317 47.3703 102.322 46.6134L102.687 45.491C104.227 44.3556 105.728 43.2724 107.098 41.7977C107.777 41.0538 108.429 40.2186 108.938 39.2398C109.186 38.77 109.408 38.1958 109.565 37.7129L109.995 36.3948C111.183 32.8973 112.684 29.4519 114.511 26.1371C114.994 25.1714 115.503 24.3231 116.012 23.2007C116.246 22.6526 116.468 22.0392 116.612 21.3737L116.703 20.8777L116.755 20.4993L116.873 19.7423C117.173 17.7195 117.473 15.7489 117.695 13.7652C117.917 11.7815 118.087 9.79783 118.139 7.78805V6.27419C118.178 5.47811 118.204 4.68203 118.23 3.88595C118.243 3.10291 118.074 2.45039 117.904 1.98057" fill="#E77622"/>
<path d="M20.7427 18.9594C20.6514 18.9855 20.5731 18.9985 20.4817 19.0377C20.4556 18.9855 20.4556 18.9333 20.4165 18.868C20.5339 18.8811 20.6383 18.9333 20.7427 18.9594ZM22.8961 18.7114C23.4703 18.9072 23.9401 19.2726 24.3577 19.7032C24.5665 19.9121 24.7623 20.1339 24.9581 20.3558C24.423 19.9382 23.8488 19.5597 23.2223 19.2726C22.622 18.9985 22.0086 18.8289 21.4214 18.855C21.8912 18.5809 22.4524 18.5679 22.9091 18.7245M27.0331 22.3395C26.9678 22.2742 26.9156 22.1959 26.8504 22.1176C26.8243 22.0915 26.7982 22.0654 26.7721 22.0393C26.9156 22.1306 27.0331 22.2351 27.1897 22.3134L27.0331 22.3395ZM28.3903 23.9577C28.051 23.5271 27.6856 23.1094 27.3202 22.6918C27.8292 23.0572 28.2598 23.501 28.3903 23.9577ZM53.878 70.6395C53.7084 69.1256 53.4604 67.5726 53.1863 66.0196L52.7557 63.7749C52.6382 63.2007 52.5599 62.6264 52.5599 62.0392C52.5208 61.0082 52.8209 59.3116 52.8209 57.8499C52.8992 56.3491 52.8601 54.8222 52.7818 53.3084C52.0248 51.9381 51.8813 50.4372 51.6464 48.8059C51.4245 47.1877 51.033 45.4389 50.0542 44.0033C50.0803 43.9642 50.1325 43.9381 50.1717 43.9381C49.7541 43.5205 49.2973 42.9984 48.8797 42.4242C48.4099 41.8891 48.0183 41.2758 47.6529 40.7146L46.5045 40.2317C45.4082 38.6265 44.0249 37.1388 42.4327 35.9903C41.6627 35.3769 40.7753 34.868 39.9792 34.359C39.2223 33.9022 38.4784 33.4194 37.7737 32.8843C36.3642 31.8141 35.0722 30.5613 33.9368 29.1649C33.3756 28.4602 32.8406 27.7293 32.3577 26.9724L30.8308 24.5058C29.5518 22.6266 28.312 20.9039 26.6285 19.2726C25.7541 18.4634 24.7884 17.7326 23.5225 17.1975C22.87 16.9365 22.0739 16.7277 21.1995 16.7669C20.3251 16.793 19.4377 17.0931 18.7199 17.563C17.9891 18.0328 17.3757 18.6853 16.9842 19.4553C16.5927 20.2253 16.4361 21.1258 16.4752 21.961C16.5144 22.731 16.671 23.3313 16.8406 23.9186C17.0233 24.5058 17.2582 25.067 17.5323 25.6021C18.0804 26.6592 18.7721 27.5988 19.516 28.408C20.2599 29.1779 21.0168 29.8827 21.839 30.6135C21.7346 30.6787 21.7085 30.7831 21.5388 30.6396C22.2174 31.3574 22.7786 32.1273 23.3006 32.8973C21.4344 30.7701 19.6073 28.6298 17.454 26.9593C16.3969 25.6804 15.3007 24.3623 14.1783 23.0181C13.6041 22.3525 13.0299 21.6869 12.4557 21.0083C11.9075 20.421 11.6204 19.6641 11.4769 18.8158C10.9157 15.2922 10.1718 11.6511 8.71015 8.41454L8.95811 8.33624C8.31863 7.05729 7.69221 5.80444 6.98748 4.57769C6.30885 3.39009 5.26481 2.01978 3.85535 1.26285C3.16368 0.884389 2.39369 0.584226 1.61066 0.66253C1.21915 0.714732 0.840681 0.897439 0.592721 1.1976C0.344761 1.49776 0.201206 1.83708 0.109852 2.20249C-0.0989566 2.95942 0.0445992 3.66415 0.0968013 4.39498C0.162054 5.12581 0.253408 5.85664 0.370862 6.61357C0.344761 9.48469 0.984237 12.7604 1.61066 15.762C1.85862 16.9104 2.06743 18.0328 2.31539 19.1421C2.53725 20.7342 2.91572 22.2742 3.50299 23.775C3.56824 23.9969 3.62044 24.2187 3.6857 24.4275C3.88145 26.2938 5.0821 27.912 6.20445 29.5956C7.06578 31.514 7.83576 33.4585 8.51439 35.4552C8.56659 36.2383 8.60575 36.9821 8.7232 37.7782C8.89286 38.7048 9.25827 39.5792 9.72809 40.3753C10.7199 41.9674 11.9467 43.142 13.2126 44.3296C14.9875 45.9218 16.932 47.2921 18.9157 48.6232C19.9728 49.6151 21.0298 50.6069 22.0739 51.6118C27.8422 57.1322 31.4964 63.553 31.5616 71.4616C31.392 72.2316 31.1701 72.9886 30.9743 73.7324C30.9091 74.0848 30.7003 74.5938 30.9743 75.2593C31.1049 75.5987 31.4572 75.8988 31.7704 76.0163C32.0836 76.1337 32.3447 76.1468 32.5926 76.1468L32.4882 75.8075C33.2973 76.46 34.1587 75.7031 34.8765 75.4812C35.0722 75.4812 35.268 75.4812 35.4768 75.4812C35.6203 75.5465 35.7639 75.677 35.8813 75.9119L35.7639 75.9771C36.0771 76.3556 36.4425 75.8988 36.7688 75.4812C37.6171 75.4812 38.4654 75.4812 39.3136 75.4812C39.4311 75.5073 39.5616 75.4943 39.6921 75.4812C39.9401 75.4812 40.175 75.4812 40.4229 75.4812C40.6187 75.5595 40.7622 75.7553 40.7753 76.212C40.3577 76.212 41.4148 76.8646 40.5012 77.2169C40.7622 77.3866 42.0281 77.3083 41.9107 76.5905C41.9629 76.199 42.1195 75.8336 42.1586 75.4812C45.0037 75.4812 47.8487 75.4812 50.6937 75.4812C52.5599 75.4812 52.7557 75.2854 52.4425 73.4975C51.9204 70.4568 51.4115 67.4029 50.8242 64.3752C50.5762 63.1093 50.5501 61.8956 50.7459 60.6167C51.281 57.1061 51.3071 53.8304 50.772 50.8027C51.1374 52.1077 51.3984 53.465 51.5159 54.8744C51.4637 54.7961 51.3332 54.77 51.2679 54.6917C51.4376 54.9266 51.7247 55.2137 51.6855 55.4878C51.5811 55.5531 51.4767 55.4095 51.4245 55.3181C50.6806 56.3752 51.7899 58.5286 51.0983 59.168C51.1374 59.4813 51.4376 59.6509 51.6986 59.5074C51.6333 60.5645 51.4898 61.491 51.5681 62.4176C51.6203 63.3573 51.8682 64.2055 52.1293 65.354C52.6382 67.5073 53.2124 69.6998 53.8911 71.9576C53.8258 72.1403 53.617 72.1403 53.3299 72.0228C53.5648 72.5057 53.7867 73.0016 53.9694 73.5106C54.1782 73.9282 54.2956 74.6982 54.2304 75.2985C54.1912 75.8858 53.8519 76.5513 53.3168 76.8646C52.834 77.1908 52.1815 77.3866 51.5289 77.4388C49.5452 77.4518 47.5094 77.2952 45.5518 77.2039C45.4604 77.5301 46.0216 77.5432 45.6823 77.8825C47.0787 78.274 47.8226 77.0864 49.1407 77.6606L49.1015 77.9739C50.0281 78.1696 48.9971 77.1908 50.0151 77.5823C50.4588 77.8434 50.0803 77.9739 50.25 78C50.6937 77.9608 51.1505 77.9608 51.6072 77.9478C51.7899 77.9608 52.1945 77.8956 52.4947 77.8173C52.8079 77.7259 53.108 77.6215 53.356 77.4779C53.8519 77.2169 54.3348 76.708 54.5175 76.1207C54.6872 75.5595 54.6611 74.9461 54.4392 74.2936C55.1178 73.9934 54.1521 72.4013 54.7133 71.8532C54.3609 71.3311 54.3478 70.8874 53.865 70.6525" fill="#E77622"/>
</svg>
