<svg width="99" height="106" viewBox="0 0 99 106" fill="none" xmlns="http://www.w3.org/2000/svg">
<path d="M0.376224 46.2184C0.376224 46.2184 0.446625 46.2184 0.470092 46.2067L0.0476866 46.0189C-0.186983 46.1011 0.528759 46.1597 0.376224 46.2184Z" fill="#E77622"/>
<path d="M0.328483 46.2768C0.234616 46.3472 0.422351 46.3824 0.492752 46.4058C0.340217 46.3472 0.539686 46.265 0.328483 46.2768Z" fill="#E77622"/>
<path d="M11.8059 49.4096H11.8528C11.8528 49.4096 11.8528 49.4448 11.8763 49.4682L11.8059 49.4096ZM11.0784 49.4096C11.2778 49.4096 11.489 49.4096 11.6885 49.4096C11.5595 49.6325 11.3248 49.5034 11.0784 49.4096ZM10.609 49.4096H10.6794C10.6794 49.4096 10.6325 49.433 10.609 49.4448V49.4096ZM10.2922 49.4096H10.5152C10.4448 49.4448 10.3626 49.4565 10.2922 49.4096ZM15.2086 49.8437L15.232 49.8906C15.3611 49.8202 15.4784 49.7616 15.584 49.6677C15.7014 49.5738 15.76 49.4213 15.7835 49.2805C15.8304 49.0106 15.7952 48.6586 15.807 48.4005C15.807 47.8725 15.807 47.4618 15.6192 47.0159C15.6779 45.9482 15.7248 44.7866 15.76 43.6249L15.8539 43.5898C15.8422 43.4724 15.8539 43.3668 15.8304 43.2495C15.8304 43.1439 15.76 43.0148 15.6544 42.9796C15.4432 42.9092 15.232 42.9092 15.0326 42.8623C14.6336 42.7919 14.2229 42.7215 13.7301 42.7801C13.1435 42.6511 12.3573 42.9092 11.6533 43.0148C11.3834 43.0148 11.1136 43.0148 10.8554 43.0148C10.832 43.0148 10.7968 43.0148 10.7616 43.0031C10.5504 42.8036 10.2101 42.9092 9.8581 43.0148C9.50609 43.0148 9.16582 43.0148 8.81382 43.0148C8.02767 42.5103 7.04206 42.698 6.10338 43.0148C5.46977 43.0148 4.83617 43.0148 4.20256 43.0148C3.31081 43.0148 2.58334 43.3316 2.02013 43.8948C1.75026 43.977 1.45692 44.1178 1.35132 44.3759L1.45692 44.4228C1.18705 44.4228 1.37479 44.6927 1.37479 44.8335C1.37479 44.857 1.35132 44.8804 1.33959 44.9039C1.30439 44.9156 1.25745 44.9274 1.17532 44.9039V44.8804C1.02279 44.8804 1.14012 44.9978 1.26919 45.1034C1.22225 45.2324 1.17532 45.3615 1.12839 45.5023C1.12839 45.514 1.12839 45.5258 1.12839 45.5375C1.12839 45.5727 1.10492 45.6196 1.09319 45.6548C1.05799 45.6783 0.987585 45.69 0.835049 45.6431C0.846783 45.5844 0.588646 45.6783 0.518245 45.5023C0.447845 45.5258 0.424378 45.7135 0.659047 45.7722C0.788116 45.8191 0.90545 45.8895 1.02279 45.9247V46.5231C1.04625 46.5818 1.08145 46.6522 1.10492 46.7226C1.55079 48.4826 2.70067 49.3861 4.49589 49.3978H4.55456C4.34336 49.433 4.12042 49.4682 3.88575 49.48C3.89749 49.4682 3.90922 49.4213 3.93269 49.3978C3.88575 49.4448 3.82709 49.5504 3.78015 49.5269C3.78015 49.4917 3.80362 49.4565 3.81535 49.4448C3.69802 49.1632 3.27561 49.5034 3.21695 49.2688C3.15828 49.2688 3.09961 49.3744 3.11134 49.4565C2.41907 49.3157 1.75026 48.8815 1.16359 48.3535C1.16359 48.3066 1.23399 48.2597 1.30439 48.2127C0.952384 48.0719 0.741182 47.7786 0.623847 47.4735C0.565179 47.321 0.529979 47.1567 0.506512 47.0042C0.506512 46.9221 0.483045 46.8399 0.447845 46.7578L0.412644 46.6405V46.4762C0.318776 46.4527 0.307043 46.5818 0.189708 46.4997C0.107574 46.6991 0.224908 46.7695 0.33051 46.8517C0.436111 46.9338 0.494779 47.0042 0.424378 47.1215H0.318776C0.295309 47.2858 0.588646 47.0746 0.494778 47.2506C0.424378 47.3327 0.36571 47.2741 0.36571 47.3093C0.506512 47.5791 0.541712 47.9311 0.90545 48.0602C0.729448 48.2362 1.05799 48.3535 0.940651 48.5647C1.05799 48.5882 1.09319 48.6586 1.23399 48.5882C1.51559 49.0575 1.99666 49.433 2.51294 49.6325C3.02921 49.8437 3.56895 49.9024 4.08522 49.9493C4.58976 49.5269 5.07084 50.0432 5.61058 49.9024C5.61058 49.9141 5.61058 49.9376 5.61058 49.9493C5.77484 49.832 6.02125 49.785 6.23245 49.8437L6.38498 49.656C7.64047 50.0432 8.86075 49.7733 10.1397 49.9258C11.5712 50.0314 12.9792 50.3365 14.1056 49.7733C14.1291 49.8202 14.1408 49.832 14.1173 49.8554C14.4694 49.7733 14.9035 49.9258 15.2438 49.832" fill="#E77622"/>
<path d="M50.127 0L50.0801 0.152535L50.1505 0.0586674L50.127 0Z" fill="#E77622"/>
<path d="M50.0334 0.0585508C49.9513 -0.176119 49.8926 0.539623 49.8457 0.387088C49.8457 0.410555 49.8457 0.457489 49.8574 0.480956L50.0334 0.0585508Z" fill="#E77622"/>
<path d="M49.7873 0.340401C49.7169 0.246533 49.6934 0.446002 49.6699 0.50467C49.6934 0.352135 49.799 0.551604 49.7873 0.340401Z" fill="#E77622"/>
<path d="M46.3845 10.4313C46.3845 10.6308 46.3845 10.8303 46.3845 11.018C46.1615 10.9007 46.3023 10.666 46.3845 10.4313ZM46.3845 9.97372V10.0324C46.3845 10.0324 46.361 9.98546 46.3493 9.97372H46.3845ZM46.3845 9.66865V9.87985C46.3493 9.80945 46.3375 9.73905 46.3845 9.66865ZM46.3845 11.1823C46.3845 11.1823 46.3493 11.194 46.3258 11.2057L46.3845 11.1353V11.1823ZM45.9386 13.3882C46.0207 13.7284 45.8682 14.1626 45.962 14.4794L45.9268 14.5028C46.009 14.6554 46.0324 14.937 46.2671 15.1247C46.5018 15.289 46.7951 15.2303 47.0885 15.2303C47.7103 15.1951 48.0623 15.1717 48.4965 14.9487C49.529 14.9253 50.6906 14.9135 51.7819 14.89V14.9839C52.0165 14.9605 52.2395 14.9722 52.4741 15.0074C52.5915 15.0074 52.7088 15.0309 52.8261 14.9839C52.9435 14.937 52.9904 14.8196 53.0256 14.7258C53.1312 14.3151 53.1899 13.9162 53.1312 13.4351C53.2251 13.0127 53.1077 12.473 52.9904 11.9801C52.9435 11.7689 52.8965 11.5695 52.8731 11.3817C52.8731 11.1588 52.8731 10.9359 52.8731 10.7247C52.8731 10.6777 52.8731 10.6308 52.8965 10.5839C53.1077 10.314 52.9904 9.99719 52.8731 9.68038C52.8731 9.35185 52.8731 9.03504 52.8731 8.70651C53.4128 7.81476 53.1899 6.94648 52.8731 6.06647C52.8731 5.49153 52.8731 4.91659 52.8731 4.34165C52.8731 3.40297 52.5797 2.65203 52.0517 2.07709C51.9813 1.81895 51.864 1.50215 51.6059 1.39655L51.5589 1.50215C51.5589 1.22055 51.289 1.42001 51.1482 1.40828C51.1365 1.40828 51.1248 1.39655 51.1013 1.38481C51.0778 1.36135 51.0661 1.31441 51.1013 1.20881H51.1248C51.1248 1.05628 51.0192 1.17361 50.9136 1.29095C50.7962 1.24401 50.6789 1.20881 50.5498 1.16188C50.5264 1.13841 50.5029 1.13841 50.4677 1.13841C50.4325 1.13841 50.409 1.11494 50.3738 1.10321C50.3504 1.06801 50.3386 1.00934 50.3856 0.845074C50.4325 0.868541 50.3856 0.598671 50.5146 0.52827C50.5029 0.45787 50.409 0.434403 50.3152 0.669072C50.2448 0.79814 50.1744 0.903742 50.1157 1.00934H49.0949C49.0362 1.03281 48.9658 1.07974 48.9072 1.09148C47.3701 1.51388 46.4901 2.5699 46.4197 4.10698C46.3845 3.88405 46.361 3.66111 46.3727 3.41471C46.3845 3.42644 46.4314 3.43817 46.4431 3.46164C46.3962 3.41471 46.3141 3.34431 46.3375 3.3091C46.3727 3.3091 46.4079 3.34431 46.4197 3.35604C46.7013 3.2739 46.4197 2.8163 46.6543 2.79283C46.6543 2.73416 46.5605 2.66376 46.4783 2.66376C46.7013 2.01842 47.2058 1.43175 47.7573 0.915475C47.8042 0.927209 47.8394 0.985876 47.8746 1.07974C48.0389 0.751207 48.3322 0.563471 48.6373 0.481337C48.8016 0.446136 48.9189 0.317068 49.177 0.375735C49.3061 0.375735 49.353 0.399202 49.4352 0.410936L49.6464 0.434403C49.6698 0.328801 49.5877 0.317068 49.6464 0.199733C49.4469 0.0589312 49.3882 0.469603 49.048 0.270134L49.0714 0.164533C48.8485 0.105865 49.048 0.410936 48.872 0.328801C48.7898 0.270134 48.8602 0.188 48.825 0.188C48.6725 0.293601 48.5317 0.305334 48.3909 0.364002C48.2501 0.422669 48.1327 0.516537 48.0506 0.692539C47.8863 0.516537 47.7573 0.809874 47.5578 0.680806C47.5343 0.79814 47.4522 0.821607 47.5109 0.962409C47.0298 1.17361 46.6191 1.59602 46.3493 2.06536C46.0794 2.54643 45.9503 3.07444 45.8564 3.57897C46.2202 4.10698 45.7274 4.58805 45.8564 5.10433C45.8447 5.10433 45.8212 5.10433 45.8095 5.10433C45.9268 5.2686 45.9738 5.50327 45.9151 5.70273L46.1029 5.85527C45.7156 7.08729 45.9972 8.27237 45.833 9.51612C45.7274 10.9124 45.434 12.3204 45.9855 13.3764C45.9503 13.3999 45.9268 13.4234 45.9034 13.3882" fill="#E77622"/>
<path d="M52.838 73.2873L52.8967 73.1583L52.7441 72.818L52.838 73.2873Z" fill="#E77622"/>
<path d="M52.5079 71.0695C52.4845 71.1399 52.4375 71.1047 52.4141 71.1751L52.8365 72.4775C53.0711 71.8908 52.3554 71.4567 52.5079 71.0695Z" fill="#E77622"/>
<path d="M52.5549 70.6822C52.6488 70.1777 52.4493 69.9665 52.3906 69.8491C52.5432 70.0251 52.3437 70.7995 52.5549 70.6822Z" fill="#E77622"/>
<path d="M44.7285 51.9911C44.7285 51.9911 44.8107 52.0615 44.8459 52.085C44.7989 52.0263 44.752 51.9911 44.7285 51.9911Z" fill="#E77622"/>
<path d="M53.2362 53.5048C53.2362 53.5048 53.2245 53.5048 53.2127 53.5165C53.1775 53.5752 53.201 53.5517 53.2362 53.5048Z" fill="#E77622"/>
<path d="M49.717 90.6292L49.9751 90.4767L49.6466 90.5706L49.6231 90.5354L49.5645 90.6879L49.6466 90.594L49.717 90.6292Z" fill="#E77622"/>
<path d="M51.3002 90.2423C51.3002 90.2423 51.2767 90.1719 51.2181 90.1484L50.2207 90.5708C50.6666 90.8055 50.9951 90.0898 51.2884 90.2423" fill="#E77622"/>
<path d="M52.2254 90.1129C52.0964 90.2655 51.5097 90.066 51.5918 90.2772C51.979 90.3711 52.1316 90.1716 52.2254 90.1129Z" fill="#E77622"/>
<path d="M49.8444 57.0482C49.7388 57.1655 49.645 57.2477 49.5628 57.2829C49.7154 57.2007 49.8092 57.0599 49.9266 56.9426C50.8887 55.8983 51.8508 54.8892 52.8599 53.8332C52.813 53.9036 52.8247 53.9623 52.7661 54.0444C52.9303 53.8097 53.0711 53.5164 53.3058 53.3052C53.3879 53.27 53.3058 53.4225 53.2354 53.5047C53.4818 53.3521 53.7399 53.1175 54.0098 52.8593C53.1181 53.7511 52.2263 54.6428 51.3346 55.5463C50.83 56.0508 50.302 56.5202 49.8444 57.0599M77.3125 37.0543C77.2773 36.9722 77.2538 36.8901 77.2186 36.8079C77.2421 36.8079 77.2538 36.8079 77.2773 36.7845L77.3125 37.0543ZM78.345 40.0816C78.3802 40.3045 78.4155 40.5392 78.4506 40.7738C78.2042 39.6944 77.8992 38.6501 77.5354 37.6293C78.0048 38.4037 78.216 39.225 78.345 40.0816ZM78.8848 43.2496C78.8731 43.144 78.8613 43.0384 78.8379 42.9328C78.8731 43.0619 78.8965 43.1792 78.9317 43.3083L78.8848 43.2496ZM79.0843 44.951C79.0491 44.552 79.0021 44.1531 78.9552 43.7542C79.0491 44.1883 79.1077 44.6107 79.0843 44.951ZM49.469 57.3181C49.469 57.3181 49.4807 57.3181 49.4924 57.3181H49.469ZM46.6647 84.5749C46.7937 84.5515 46.8641 84.4693 46.8993 84.3755C46.8759 84.5045 46.8172 84.5749 46.7233 84.6219C46.7116 84.6101 46.6881 84.5867 46.6647 84.5749ZM46.8641 80.1279C46.8876 79.8346 46.9111 79.5295 46.9228 79.2245C46.9228 80.6794 46.9228 82.1461 46.9228 83.601C46.7351 82.3338 46.782 81.2544 46.8641 80.1279ZM46.9228 73.6628V75.2468C46.8876 74.6601 46.8759 74.0852 46.9228 73.6628ZM46.9228 76.4084C46.9111 76.209 46.8993 76.033 46.8876 75.8218L46.9228 75.9273V76.4084ZM51.8743 62.5512C51.8743 62.1992 51.9682 61.9528 52.2146 61.7181C54.7256 59.2189 57.2365 56.7079 59.7475 54.1969C60.5102 53.4343 60.8504 52.5543 60.5102 51.4982C59.9352 49.6913 57.7176 49.1868 56.333 50.5478C55.5938 51.2753 54.8546 52.0028 54.1271 52.742C54.972 51.8855 55.8402 50.759 56.3448 50.4657C56.5794 50.2076 56.6733 50.0433 56.4504 50.0902C56.9432 49.7148 57.5651 49.4684 58.2104 49.4801C58.8557 49.4801 59.5011 49.7148 60.0056 50.1372C60.5102 50.5713 60.8387 51.1932 60.956 51.8385C61.0851 52.4956 60.9326 53.2231 60.5806 53.7863C60.4163 54.0679 60.1934 54.326 59.9822 54.549L59.372 55.1826L58.1517 56.4615C57.3539 57.3181 56.556 58.1746 55.7698 59.0194C55.5821 59.1485 55.5117 59.125 55.4882 59.0194C54.8664 59.7938 54.2093 60.5448 53.5287 61.284L53.0125 61.8354C52.8482 62.0114 52.6135 62.2344 52.5901 62.293C52.5431 62.3869 52.5314 62.3987 52.5431 62.6568V63.4195C52.5431 65.4494 52.4962 67.491 52.461 69.5091C52.5666 69.6617 52.5783 69.0985 52.6957 69.4974C52.8365 68.2067 52.4258 67.1272 52.6253 65.9422L52.7309 66.0947C52.8013 65.2382 52.461 65.9187 52.6018 65.0387C52.6957 64.6867 52.7426 65.1208 52.7426 64.9683C52.7426 64.5107 52.7426 64.0531 52.7309 63.5955V62.9032V62.5629C52.7309 62.5042 52.7309 62.469 52.7309 62.4573C52.7543 62.4104 52.7074 62.4338 52.8834 62.2578C53.0359 62.0936 53.1885 61.9176 53.341 61.7533C53.6343 61.413 53.9159 61.0728 54.1741 60.7325C54.6434 60.6034 55.5586 59.3597 56.1922 59.0429C56.4621 58.6439 56.8141 58.3271 56.8258 58.0925C57.9757 56.9895 59.1139 55.8631 60.252 54.725C60.5806 54.3964 60.8856 54.0092 61.0851 53.5281C61.2963 53.0588 61.3784 52.5073 61.3198 51.9911C61.2142 51.0054 60.6158 50.0081 59.6888 49.5153C58.7853 49.0108 57.6355 49.0225 56.7437 49.4918C56.2978 49.703 55.8872 50.102 55.6408 50.3601L54.7842 51.2284C53.6343 52.39 52.4962 53.5399 51.3463 54.7015C51.229 54.854 51.1116 55.0066 50.9826 55.1591C50.8652 55.2999 50.7479 55.4407 50.6423 55.5815C50.4076 55.8631 50.1495 56.1447 49.8796 56.4263L49.6802 56.6375C49.6215 56.6962 49.5863 56.7314 49.5394 56.7783C49.4338 56.8722 49.2812 56.8135 49.1991 56.7196C48.9292 56.4263 48.6476 56.133 48.366 55.8396C47.1809 54.5724 45.9841 53.2348 44.6817 52.038C44.6817 52.0145 44.6817 52.0028 44.7169 52.0028C44.271 51.639 43.743 51.1697 43.2033 50.6534L42.7926 50.2662C42.6401 50.1254 42.4641 49.9846 42.2881 49.8556C41.9361 49.6092 41.5254 49.4332 41.1147 49.351C40.6336 49.3276 40.1643 49.4332 39.7654 49.6326C38.639 49.9729 37.7237 51.0758 37.7589 52.3431C37.7589 52.9649 37.9936 53.5751 38.3573 54.0561C38.4395 54.1852 38.5568 54.2908 38.6507 54.4081L38.9323 54.7015L39.4955 55.2764C40.9856 56.8135 42.4993 58.3389 44.0246 59.8525L46.3009 62.117C46.4065 62.2344 46.4535 62.3282 46.4417 62.516V63.3139V64.9096C46.4417 67.0451 46.43 69.1689 46.383 71.2926C46.3478 73.698 46.3126 76.0212 46.2774 78.3092C46.2657 79.4474 46.2423 80.5738 46.2305 81.7002C46.2305 82.2634 46.2188 82.8266 46.2071 83.3781V83.8005C46.2071 83.8005 46.207 83.8826 46.1718 83.9178C46.1484 83.9413 46.1014 83.9413 46.0545 83.9413H45.6673H42.511C41.9947 83.9413 41.4198 83.9765 41.0091 83.9178C40.575 83.8474 40.2699 83.6714 40.0704 83.3546C39.9648 83.2021 39.8944 83.0026 39.8475 82.7797C39.8006 82.5568 39.7888 82.3221 39.7771 82.017C39.7419 81.4304 39.7067 80.8554 39.648 80.2687C39.5424 79.0954 39.3899 77.922 39.2022 76.737C39.2491 76.737 39.2608 76.6666 39.3078 76.913C39.2139 76.2207 39.1552 75.5636 39.0262 74.8713C38.8971 74.1908 38.7211 73.5337 38.4864 72.9001C38.0053 71.6329 37.2896 70.483 36.3979 69.4974L36.4331 69.4739C34.1802 67.1155 31.6458 64.9213 29.745 62.2461C27.8324 59.5826 26.5535 56.5671 25.7439 53.5985C25.0164 49.9377 24.9225 45.8427 25.8377 41.9003C26.3071 39.929 27.0345 38.0165 28.0202 36.233C28.9823 34.4378 30.1204 32.7599 31.4463 31.2697L31.505 31.3401C33.5584 28.9113 36.2101 27.0691 39.0731 25.8606C40.5163 25.2622 41.9947 24.7928 43.5201 24.4526C45.0337 24.0654 46.5825 23.8542 48.1548 23.6547C49.774 23.596 51.4167 23.596 53.0594 23.7603C54.7021 23.948 56.3448 24.2766 57.9523 24.7811C59.1491 25.1918 60.3224 25.6846 61.4371 26.2713C62.9859 27.1395 64.4643 28.2073 65.8958 29.4628C66.0836 29.6388 66.2713 29.8148 66.4473 29.9908C66.7993 30.3663 67.1278 30.7769 67.5033 31.1759C67.8788 31.5631 68.2543 31.9737 68.6415 32.3961C69.3572 33.194 70.0729 34.0623 70.7183 34.9658C71.9738 36.937 72.9007 39.0725 73.4757 41.3371C73.7925 43.2027 73.9215 45.0566 73.9333 46.9105C73.945 48.8465 73.8394 50.759 73.5343 52.6599C73.1236 55.2882 72.3258 57.893 71.1055 60.3218C70.0964 62.0936 68.8409 63.7832 67.3156 65.3672C65.9076 66.8339 64.4643 68.2771 63.1267 69.8259C61.5192 71.6916 60.6744 73.8388 60.428 76.2911C60.2403 78.2858 60.0878 80.2805 60.076 82.2869C60.076 83.8474 59.2195 84.6571 57.6472 84.6688C57.2717 84.6688 56.8845 84.6688 56.509 84.6688C55.676 84.6101 54.8429 84.5632 53.9981 84.5045C53.5522 84.4811 53.1063 84.4576 52.6605 84.4576C52.5431 84.4576 52.4375 84.4576 52.3671 84.4459C52.285 84.4341 52.1911 84.3989 52.1442 84.3285C52.0621 84.1643 52.0973 83.9883 52.0855 83.7536L51.9682 83.9296C52.1911 82.9792 51.9212 82.064 51.8508 81.2661C51.8508 81.0784 51.8508 80.8906 51.8508 80.7029C51.8743 80.5034 51.9095 80.3039 52.0034 80.1279L52.0269 80.257C52.1559 79.8698 52.0034 79.4943 51.8626 79.1541C51.8626 78.1919 51.8626 77.2298 51.8626 76.2676C51.8626 76.1386 51.8626 75.986 51.8626 75.8335C51.8626 75.5519 51.8626 75.282 51.8626 75.0004C51.8861 74.7775 51.9565 74.6132 52.109 74.578C52.109 75.0356 52.3319 73.8505 52.4493 74.8713C52.5079 74.578 52.4845 73.1817 52.2381 73.3108C52.109 73.2521 51.9799 73.0644 51.8626 73.0292C51.8626 69.5443 51.8626 66.0478 51.8626 62.5629M74.2149 65.2734C75.2474 64.0179 76.104 62.6099 76.8784 61.1549C77.6058 59.6765 78.2042 58.1277 78.6619 56.5202C79.0843 54.9127 79.4011 53.2817 79.5771 51.6273C79.7296 49.9729 79.8117 48.3067 79.7531 46.6523C79.6709 44.7632 79.5301 42.9563 79.2016 41.1728C78.8613 39.3893 78.3802 37.6645 77.688 36.0335C76.3152 32.7481 74.2266 29.803 71.4927 27.3625C71.5279 27.339 71.5044 27.2803 71.657 27.3977C70.1316 25.931 68.7823 24.5347 67.0926 23.4435L67.1278 23.4083C65.0041 22.1176 62.7395 20.8973 60.3576 20.0056C57.9757 19.1373 55.5 18.5272 53.1181 18.445C50.2668 18.0578 47.1575 18.1282 44.1185 18.7384C41.0678 19.3368 38.1109 20.4984 35.4474 21.9533L35.424 21.8712C34.896 22.1763 34.3797 22.4931 33.8752 22.8216C33.3824 23.1619 32.8778 23.5022 32.385 23.8424C31.3994 24.5347 30.449 25.2505 29.522 26.0131C27.6799 27.5385 25.9903 29.2985 24.6644 31.3519C23.1625 33.37 22.1182 35.7871 21.4259 38.2629C21.203 39.049 21.027 39.8469 20.8745 40.6448C20.5225 42.1349 20.2761 43.672 20.1353 45.2912C20.1118 45.4555 20.0883 45.6198 20.0649 45.784C19.7129 47.3211 19.8419 49.1398 20.1001 50.8998C20.1001 50.9233 20.1001 50.9468 20.1118 50.9702C20.2526 52.6716 20.5342 54.3377 20.9683 55.9804C21.4142 58.8903 22.5289 61.6829 24.1833 64.0883C25.3449 65.7896 26.7177 67.2915 28.1962 68.7113C28.3604 68.8873 28.5247 69.075 28.7007 69.251C29.921 70.5534 31.2234 71.7972 32.3615 73.1817C33.0656 74.0383 33.5232 74.9652 33.6757 76.0916C33.9573 78.1919 34.0864 80.2922 34.1098 82.4042C34.1098 82.8853 34.145 83.3664 34.2272 83.8357C34.6496 85.9829 35.9403 87.7195 37.7237 88.7168C38.815 89.4678 40.2112 89.9606 41.5958 89.8785L41.5019 89.7611C42.1473 89.9723 42.8865 89.7259 43.4966 89.6438C43.6726 89.6438 43.8486 89.6438 44.0364 89.6438C44.1654 89.6673 44.2945 89.7025 44.3884 89.7846L44.2828 89.8081C44.5526 89.9371 44.8577 89.7846 45.1393 89.6438C45.9254 89.6438 46.7116 89.6438 47.4977 89.6438C47.5095 89.6438 47.5329 89.6438 47.5447 89.6438H48.3073C48.4716 89.6673 48.6007 89.7377 48.6124 89.8902C48.2604 89.8902 49.1639 90.1131 48.366 90.2305C48.5889 90.2891 49.6802 90.2657 49.5863 90.0193C49.6332 89.8785 49.774 89.7611 49.7975 89.6438C52.4962 89.6438 55.1832 89.6555 57.8819 89.6438C62.0003 89.6203 65.0979 86.511 65.1214 82.4042C65.1214 80.5738 65.2857 78.7551 65.4382 76.9364C65.579 75.2351 66.1892 73.7801 67.386 72.5716C67.4681 72.4894 67.5385 72.4073 67.6089 72.3252C67.515 72.4308 67.4329 72.5364 67.339 72.6302C66.6233 73.4164 66.0953 74.3785 65.8254 75.4228C65.8254 75.3524 65.7902 75.3172 65.802 75.2468C65.7902 75.458 65.8254 75.7044 65.7668 75.9273C65.7198 75.9743 65.7081 75.8452 65.7081 75.7748C65.4617 76.1972 65.4382 76.8895 65.4382 77.5231C65.4382 78.1684 65.4382 78.7551 65.3209 79.0367C65.3209 79.2949 65.4382 79.4239 65.5204 79.2831C65.4734 80.1397 65.45 81.0079 65.45 81.8762C65.4617 82.7445 65.45 83.7184 65.1801 84.6101C64.7107 86.4288 63.5139 88.0832 61.9182 89.1275C61.7422 89.1862 61.6835 89.1392 61.6835 89.0454C61.0382 89.5147 60.2872 89.8667 59.4893 90.0779C58.6915 90.2774 57.8232 90.3126 57.084 90.3009C55.5469 90.3009 53.9981 90.2422 52.461 90.207C52.3437 90.3243 52.7778 90.3243 52.4727 90.4417C53.4583 90.5825 54.2797 90.1718 55.1714 90.3713L55.0541 90.4769C55.6994 90.5473 55.1832 90.207 55.8637 90.3478C56.1336 90.4417 55.7933 90.4886 55.9224 90.4886C56.6146 90.4651 57.3069 90.4886 58.0227 90.4534C58.7853 90.4299 59.548 90.2539 60.1934 89.9371C60.3928 89.9958 60.7918 89.8785 61.1907 89.7025C61.3902 89.6086 61.6014 89.5265 61.7891 89.4326C61.9768 89.3387 62.1528 89.2683 62.3054 89.2449C62.5987 88.9632 62.9155 88.7168 62.9507 88.5174C63.9833 87.696 64.8281 86.5814 65.2857 85.3259C65.5321 84.704 65.6846 84.0469 65.755 83.3781C65.802 83.0496 65.7902 82.7093 65.8137 82.3808V81.4773C65.8372 80.2687 65.8958 79.0485 65.978 77.8164L66.0484 76.9012C66.0718 76.6196 66.107 76.3263 66.1657 76.0564C66.2713 75.4932 66.459 74.9535 66.7172 74.4607C66.858 73.9444 67.1396 73.4399 67.5385 72.994C67.9492 72.5364 68.4185 72.0553 68.8879 71.6094C69.8383 70.6825 70.8591 69.7438 71.7508 68.6878C71.7743 68.6878 71.786 68.6995 71.786 68.723C72.314 67.972 73.1354 66.9395 73.8277 66.1064C73.9685 65.8248 74.0975 65.5432 74.2149 65.2499" fill="#E77622"/>
<path d="M49.2344 90.9229C49.2344 90.9229 49.2344 90.9933 49.2578 91.0167L49.5042 90.5943C49.3869 90.3596 49.3048 91.0754 49.2344 90.9229Z" fill="#E77622"/>
<path d="M49.1525 90.8756C49.0587 90.7817 49.0117 90.9812 48.9883 91.0398C49.0235 90.8873 49.1643 91.0868 49.1525 90.8756Z" fill="#E77622"/>
<path d="M40.764 97.5405C40.764 97.5405 40.8109 97.5522 40.8344 97.5522C40.8344 97.5757 40.8344 97.5874 40.8344 97.6109L40.7757 97.5288L40.764 97.5405ZM39.9896 97.3528C39.9896 97.3528 39.8957 97.2589 39.8605 97.212C40.0952 97.341 40.365 97.4349 40.6349 97.5053C40.365 97.6461 40.1538 97.5053 39.9896 97.3528ZM39.3442 96.8717C39.3442 96.8717 39.3794 96.9069 39.4029 96.9186C39.3677 96.9186 39.3442 96.8952 39.309 96.8834L39.3442 96.86V96.8717ZM39.0392 96.5783C39.1096 96.6605 39.1917 96.7309 39.2738 96.8013C39.1565 96.7544 39.0626 96.6722 39.0392 96.5783ZM60.0186 91.9906C59.5493 91.6855 58.9978 91.5799 58.4698 91.6151C58.2821 91.5799 58.0943 91.5564 57.8949 91.5564C56.1466 91.5564 54.3983 91.5564 52.65 91.5564C52.3215 91.4274 51.9812 91.2865 51.6409 91.3335L51.6644 91.4391C51.5001 91.2279 51.3124 91.4743 51.1598 91.5564H51.0425C51.0425 91.5564 50.9721 91.4978 50.9486 91.4156L50.9721 91.3922C50.9017 91.2631 50.8313 91.4156 50.7609 91.5564C50.5732 91.5564 50.3854 91.5564 50.1977 91.5564C50.186 91.5564 50.1625 91.5564 50.1508 91.5564H49.9865C49.9865 91.5564 49.9044 91.4743 49.9044 91.31C49.9982 91.31 49.7636 91.0871 49.963 90.9697C49.9044 90.9111 49.6345 90.9345 49.658 91.1809C49.6462 91.3218 49.611 91.4391 49.611 91.5564C47.1118 91.5564 44.6243 91.5447 42.1251 91.5564C42.4184 91.5095 42.7 91.4626 42.9933 91.4391C42.9699 91.4508 42.9699 91.4978 42.9581 91.5212C43.0051 91.4626 43.0637 91.3687 43.1224 91.3804C43.1341 91.4156 43.1107 91.4508 43.0872 91.4743C43.3219 91.7324 43.7677 91.31 43.9086 91.5095C43.979 91.486 44.0024 91.3687 43.9672 91.2866C44.8238 91.2162 45.739 91.1692 46.6073 90.958C46.6542 90.9932 46.6542 91.0636 46.6425 91.1575C47.3934 90.7351 48.1678 90.8993 48.9305 90.9697C48.954 90.8524 48.8483 90.8524 48.9305 90.7351C48.6841 90.5943 48.4846 91.0049 48.2617 90.8055L48.2851 90.6999C48.1209 90.6295 48.2499 90.9698 48.0857 90.8289C48.0153 90.7351 48.0974 90.6881 48.0739 90.6881C47.7337 90.7351 47.3699 90.6412 47.0531 90.8993C46.971 90.6647 46.6777 90.8993 46.5486 90.6647C46.4664 90.7585 46.3726 90.7351 46.3374 90.8876C45.1288 90.7703 43.9086 90.9932 42.6648 90.9815C42.3832 91.2044 42.0664 91.181 41.7261 91.1223C41.5619 91.0988 41.4093 91.0519 41.2099 91.0401C41.0104 91.0284 40.8109 91.0402 40.6232 91.1223C40.6232 91.1106 40.6232 91.0871 40.6232 91.0754C40.3768 91.2279 40.06 91.3922 39.7549 91.4743C39.708 91.5682 39.661 91.6738 39.6258 91.7676C38.7576 92.0375 38.0887 92.8706 37.8893 93.7975C37.6781 94.7127 37.8423 95.6983 38.3234 96.5549C38.8866 97.5053 39.8253 98.1624 40.8696 98.3266C41.4328 98.4088 41.82 98.3618 42.2659 98.3266C42.7 98.2797 43.1341 98.1858 43.5918 98.0333C43.5918 98.0802 43.5917 98.1037 43.5565 98.1154C44.0728 98.0216 44.5539 98.1858 45.035 98.092V98.1389C46.2435 97.7634 47.5577 98.1858 48.731 97.7869C50.1508 97.8338 51.77 97.7869 53.2836 97.6696V97.7634C54.4922 97.5757 55.6538 98.045 56.8623 97.9042C57.1791 97.9512 57.4842 97.9512 57.801 97.9042C58.1178 97.8808 58.4698 97.7752 58.7749 97.6226C58.9978 97.517 59.1855 97.388 59.3733 97.2472C59.6901 97.0712 59.9717 96.8482 60.2064 96.5783C60.2416 96.5431 60.2885 96.5197 60.3237 96.4845C60.7344 96.3085 60.8752 95.8039 60.8634 95.3581C60.969 94.9474 60.9925 94.5015 60.9104 94.0439C61.1098 93.2578 60.6874 92.413 60.0186 92.0023" fill="#E77622"/>
<path d="M40.7751 105.202C40.7751 105.202 40.822 105.202 40.8338 105.214C40.8338 105.237 40.8338 105.249 40.8338 105.273L40.7868 105.202H40.7751ZM39.989 105.014C39.989 105.014 39.9068 104.932 39.8599 104.885C40.0946 105.014 40.3527 105.108 40.6108 105.167C40.3527 105.296 40.1415 105.167 39.9772 105.003M39.3319 104.522C39.3319 104.522 39.3788 104.557 39.4023 104.58C39.3671 104.58 39.3319 104.557 39.2967 104.545L39.3319 104.522ZM39.0268 104.228C39.0855 104.299 39.1559 104.369 39.2263 104.428C39.1207 104.381 39.0503 104.31 39.0268 104.228ZM60.8863 101.659C61.074 100.884 60.6516 100.028 59.9828 99.6287C59.5135 99.3237 58.962 99.2181 58.434 99.2533C58.2463 99.2181 58.0585 99.1946 57.8591 99.1946C56.1108 99.1946 54.3625 99.1946 52.6259 99.1946C52.2974 99.0655 51.9571 98.9247 51.6169 98.9717L51.6403 99.0773C51.476 98.8661 51.2883 99.1125 51.1358 99.1946H51.0184C51.0184 99.1946 50.948 99.1359 50.9246 99.0538L50.948 99.0303C50.8776 98.9013 50.8072 99.0538 50.7368 99.1946C50.5491 99.1946 50.3614 99.1946 50.1619 99.1946C50.1502 99.1946 50.1267 99.1946 50.115 99.1946H49.9507C49.9507 99.1946 49.8686 99.1125 49.8686 98.9482C49.9624 98.9482 49.7278 98.7253 49.9272 98.6079C49.8686 98.5493 49.5987 98.5727 49.6222 98.8191C49.6104 98.9482 49.5752 99.0773 49.5752 99.1946C47.076 99.1946 44.5768 99.1946 42.0775 99.1946C42.3709 99.1477 42.6642 99.1007 42.9693 99.0773C42.9575 99.089 42.9458 99.1359 42.9341 99.1594C42.981 99.1007 43.0397 99.0069 43.0983 99.0186C43.1101 99.0538 43.0866 99.089 43.0631 99.1125C43.2978 99.3706 43.7437 98.9482 43.8845 99.1477C43.9432 99.1242 43.9784 99.0069 43.9432 98.9247C44.7997 98.8543 45.7149 98.8074 46.5832 98.5962C46.6301 98.6314 46.6301 98.7018 46.6184 98.7957C47.3576 98.3733 48.1437 98.5375 48.9064 98.6079C48.9299 98.4906 48.8243 98.4906 48.9064 98.3733C48.66 98.2325 48.4605 98.6431 48.2376 98.4437L48.2611 98.3381C48.0968 98.2677 48.2259 98.6079 48.0616 98.4671C47.9912 98.3733 48.0733 98.3263 48.0499 98.3263C47.7096 98.3733 47.3459 98.2794 47.0173 98.5375C46.9352 98.3029 46.6419 98.5375 46.5245 98.3029C46.4307 98.3967 46.3485 98.3733 46.3133 98.5258C45.1048 98.4085 43.8845 98.6314 42.6525 98.6079C42.3709 98.8309 42.0541 98.8074 41.7138 98.7487C41.4087 98.6901 40.9863 98.5845 40.5991 98.7487C40.5991 98.737 40.5991 98.7135 40.5991 98.7018C40.3644 98.8661 40.0359 99.0186 39.7426 99.1125C39.6956 99.2063 39.6487 99.3002 39.6135 99.4058C38.757 99.6874 38.0881 100.509 37.8769 101.436C37.6657 102.363 37.8535 103.36 38.3346 104.193C38.886 105.132 39.8364 105.812 40.8924 105.965L41.2914 106C41.4205 106 41.5143 106 41.6199 106C41.8311 106 42.0541 105.977 42.2653 105.953C42.6994 105.906 43.1453 105.812 43.5912 105.66C43.5912 105.707 43.5911 105.73 43.5559 105.742C44.0722 105.648 44.5533 105.812 45.0461 105.718V105.765C46.2664 105.39 47.5805 105.824 48.7421 105.413C50.1619 105.449 51.7811 105.413 53.2947 105.296V105.39C54.5033 105.202 55.6649 105.671 56.8735 105.531C57.1785 105.578 57.4953 105.578 57.8121 105.531C58.1407 105.495 58.4927 105.402 58.786 105.237C59.0089 105.132 59.2084 105.003 59.3961 104.862C59.713 104.686 60.0063 104.451 60.241 104.181C60.2762 104.158 60.2996 104.123 60.3348 104.099C60.7455 103.935 60.8863 103.43 60.8628 102.985C60.9684 102.562 60.9919 102.116 60.9098 101.647" fill="#E77622"/>
<path d="M49.6114 98.1974L49.5527 98.3499L49.6349 98.256L49.6114 98.1974Z" fill="#E77622"/>
<path d="M49.2227 98.5845C49.2227 98.5845 49.2227 98.6549 49.2461 98.6783L49.4925 98.2559C49.3752 98.0213 49.2931 98.737 49.2227 98.5845Z" fill="#E77622"/>
<path d="M49.1408 98.5378C49.047 98.4439 49 98.6434 48.9766 98.7021C49.0118 98.5495 49.1526 98.749 49.1408 98.5378Z" fill="#E77622"/>
<path d="M81.6661 10.5366L81.6191 10.6892L81.6895 10.5953L81.6661 10.5366Z" fill="#E77622"/>
<path d="M81.5491 10.6072C81.4317 10.3726 81.42 11.1 81.3496 10.9475C81.3613 10.971 81.3613 11.0179 81.3731 11.0414C81.4317 10.9006 81.4904 10.748 81.5491 10.6072Z" fill="#E77622"/>
<path d="M81.2794 10.912C81.1856 10.8298 81.1738 11.0293 81.1621 11.0997C81.1621 10.9472 81.3146 11.1232 81.2794 10.912Z" fill="#E77622"/>
<path d="M72.0099 19.7357C72.0099 19.7357 71.9864 19.7592 71.9747 19.7709C71.9512 19.7709 71.9395 19.7709 71.9043 19.7592L71.9982 19.7357H72.0099ZM72.5262 19.2312C72.3854 19.372 72.2446 19.5128 72.092 19.6536C71.9982 19.4541 72.268 19.3602 72.5262 19.2312ZM72.8664 18.9026C72.8664 18.9026 72.8312 18.9261 72.8195 18.9496C72.8195 18.9261 72.8312 18.9144 72.8312 18.8909L72.8664 18.9144V18.9026ZM73.0894 18.6797L72.9368 18.8322C72.9603 18.7618 73.0072 18.7149 73.0894 18.6797ZM71.4349 21.2376C71.5523 21.308 71.6696 21.3784 71.7752 21.4371C71.8808 21.4957 71.9512 21.5075 72.0334 21.5427C71.9982 21.5779 71.9982 21.6013 71.9512 21.5896C72.2915 21.7773 72.4323 22.1411 72.7608 22.3288L72.7256 22.364C73.6291 22.7277 73.9811 23.7368 74.8494 24.124C75.0254 24.3352 75.2718 24.6638 75.5065 24.8984C75.5651 24.9571 75.6238 25.0158 75.7059 25.051C75.7881 25.0862 75.8819 25.0627 75.9523 25.0158C76.0931 24.9219 76.2222 24.7928 76.363 24.652C76.5625 24.4408 76.7502 24.2414 76.9027 24.0536C77.067 23.8659 77.2313 23.6664 77.3956 23.4787L77.4542 23.5374C77.9588 22.7747 78.9209 22.4931 79.4606 21.7656C80.0004 21.4253 80.2703 20.78 80.6457 20.2402C80.8452 20.0408 81.0447 19.8413 81.2441 19.6418C81.2676 19.6301 81.2911 19.6066 81.3145 19.5949C81.6665 19.548 81.8073 19.2429 81.9599 18.9378C82.2063 18.7032 82.441 18.4568 82.6874 18.2221C83.2975 18.0696 83.7082 17.741 84.0367 17.3069C84.2831 17.0135 84.4591 16.6263 84.5412 16.2274C85.0341 15.4061 85.0692 14.4556 84.6351 13.4818C84.4239 12.989 84.1306 12.6017 83.7903 12.3084C83.6847 12.0503 83.5322 11.7687 83.2506 11.6865L83.2154 11.7921C83.1802 11.5105 82.9338 11.7335 82.793 11.7452C82.7695 11.7452 82.7578 11.7335 82.7343 11.7217C82.7108 11.6983 82.6991 11.6513 82.6991 11.5575H82.7226C82.6991 11.4049 82.6052 11.534 82.5114 11.6631C82.3823 11.6279 82.2415 11.6044 82.1007 11.5809C82.0772 11.5809 82.0538 11.5809 82.0303 11.5809C81.9951 11.5809 81.9716 11.5809 81.9364 11.5809C81.9012 11.5575 81.866 11.4988 81.8895 11.3228C81.9599 11.3228 81.7956 11.0881 81.9716 10.9825C81.9247 10.9239 81.7017 10.9239 81.7017 11.1703C81.69 11.3111 81.6548 11.4284 81.6431 11.5575C80.7513 11.6044 80.0121 11.8625 79.402 12.4492C78.651 13.1767 77.9118 13.9159 77.1609 14.6434C77.2782 14.4674 77.3956 14.2914 77.5364 14.1036C77.5364 14.1271 77.5716 14.1506 77.5833 14.174C77.5716 14.1154 77.5246 14.0215 77.5598 13.998C77.595 14.0098 77.6068 14.045 77.6068 14.0684C77.9353 14.1036 77.8414 13.6108 78.0761 13.6578C78.0878 13.6108 78.0174 13.5287 77.947 13.4935C78.3694 12.989 78.7801 12.4844 79.1908 11.8391C79.2494 11.8391 79.2964 11.8977 79.3433 11.9681C79.4489 11.6044 79.7305 11.3463 80.0591 11.2172C80.3876 11.0764 80.7396 11.0412 81.0564 11.0295C81.0564 10.9121 80.9743 10.9239 81.0212 10.7948C80.7748 10.6892 80.6809 11.1351 80.4463 10.9943V10.8887C80.2703 10.8652 80.4932 11.1585 80.3055 11.0647C80.2116 10.9943 80.2703 10.9356 80.2468 10.9356C79.9652 11.0764 79.5897 11.1585 79.4841 11.5457C79.2846 11.3932 79.2025 11.7335 78.9678 11.6513C78.9678 11.7804 78.8857 11.8156 78.9678 11.9447C78.2052 12.5196 77.7006 13.3527 77.0083 13.998C77.0553 14.573 76.2457 14.6316 75.9875 15.0892C75.9758 15.0892 75.9641 15.0775 75.9523 15.0658C75.9171 15.2418 75.7881 15.4413 75.6003 15.5586L75.6473 15.7698C74.427 16.4503 73.7816 17.4594 72.7374 18.2808C72.1742 18.7618 71.5875 19.2077 71.0829 19.677C70.9656 19.8061 70.8248 19.8765 70.7427 20.0642C70.6605 20.252 70.6723 20.5453 70.8131 20.7213C70.9656 20.9091 71.1651 21.0851 71.388 21.2259" fill="#E77622"/>
<path d="M17.3672 10.5366L17.3203 10.6892L17.3907 10.5953L17.3672 10.5366Z" fill="#E77622"/>
<path d="M17.262 10.607C17.1329 10.3841 17.1446 11.0998 17.0625 10.959C17.0742 10.9825 17.0742 11.0294 17.086 11.0529C17.1329 10.9003 17.1916 10.7595 17.2502 10.607" fill="#E77622"/>
<path d="M16.9904 10.9239C16.8965 10.8418 16.8848 11.0413 16.8848 11.1117C16.8848 10.9591 17.0373 11.1351 16.9904 10.9239Z" fill="#E77622"/>
<path d="M19.1394 20.8036L19.1629 20.8271C19.1629 20.8506 19.1511 20.8506 19.1394 20.8741V20.7919V20.8036ZM18.6349 20.2991C18.7757 20.4399 18.9165 20.569 19.0455 20.7098C18.8109 20.7567 18.7287 20.522 18.6349 20.2991ZM18.2829 19.9588C18.2829 19.9588 18.3063 19.9823 18.3181 19.994C18.2946 19.994 18.2829 19.9823 18.2594 19.9823L18.2829 19.9588ZM18.0717 19.7476C18.0717 19.7476 18.1655 19.8415 18.2125 19.8767C18.1538 19.8532 18.0951 19.8063 18.0717 19.7476ZM14.3169 16.6383C14.3169 16.6383 14.2935 16.6617 14.2817 16.6617C14.4812 16.7673 14.6807 16.9433 14.798 17.1428C14.8919 17.1428 14.974 17.1428 15.0679 17.1428C15.678 18.281 16.7692 18.9615 17.5671 19.9588C18.5175 21.0383 19.3389 22.2351 20.5357 22.6458C20.524 22.6927 20.524 22.7162 20.4888 22.7162C20.8056 22.9039 21.0168 23.3146 21.3101 23.4906V23.5375C21.6856 23.6784 22.0141 24.0304 22.3544 24.3706C22.5304 24.5466 22.6947 24.7109 22.8707 24.8517C23.0349 24.9808 23.1992 25.145 23.4456 25.0746C23.5981 25.0746 23.692 24.9456 23.7976 24.84C23.9032 24.7226 24.0088 24.617 24.1144 24.488C24.3021 24.265 24.4899 24.0304 24.6776 23.8074C25.0414 23.3615 25.4051 22.9039 25.7571 22.4698L25.8158 22.5285C26.3203 21.7423 27.259 21.5194 27.8574 20.7919C27.9161 20.745 27.9865 20.6863 28.0451 20.569C28.1038 20.4516 28.0921 20.2522 28.0334 20.1583C27.9161 19.9588 27.8104 19.9119 27.7283 19.8415C27.5406 19.7007 27.3176 19.5834 27.1064 19.4543C26.9422 19.3604 26.7779 19.2548 26.6254 19.1492C26.4494 18.985 26.2851 18.809 26.1091 18.6447C26.0856 18.6095 26.0504 18.5743 26.027 18.5274C25.98 18.1754 25.6632 18.0345 25.3464 17.8937C25.1118 17.6591 24.8771 17.4361 24.6424 17.2015C24.3608 16.1689 23.5629 15.6879 22.6829 15.2772C21.7442 14.3502 20.7938 13.4233 19.8552 12.5081C19.773 12.4259 19.6792 12.3673 19.5853 12.2969C19.5853 12.2969 19.5853 12.2969 19.5853 12.2851C19.4679 12.027 19.3037 11.7454 19.0221 11.6633L18.9986 11.7689C18.9517 11.4873 18.6935 11.7571 18.5527 11.7454H18.5293C18.4941 11.7219 18.4706 11.675 18.4823 11.5694H18.5058C18.4823 11.4051 18.3885 11.5577 18.2946 11.6867C18.1655 11.6633 18.0482 11.6398 17.9074 11.6281C17.8722 11.5929 17.8253 11.6163 17.7666 11.6163H17.7431C17.6962 11.6163 17.661 11.5459 17.6727 11.3465C17.7431 11.3465 17.5789 11.1118 17.7431 11.0062C17.6962 10.9358 17.4733 10.9593 17.485 11.2057C17.4733 11.3465 17.4381 11.4755 17.4381 11.5929C16.1591 11.6867 15.1266 12.2851 14.5868 13.5524C14.3052 14.2094 14.2348 14.8548 14.3756 15.4532C14.2817 15.2537 14.2113 15.0308 14.1879 14.7961C14.1996 14.8078 14.2465 14.8196 14.27 14.8313C14.2113 14.7961 14.1175 14.7374 14.1292 14.6905C14.1644 14.6905 14.1996 14.7022 14.2113 14.7257C14.4812 14.5849 14.1057 14.186 14.3404 14.1156C14.3287 14.0569 14.2231 14.01 14.1409 14.0217C14.2583 13.3412 14.5516 12.6489 14.9975 11.9683C15.0444 11.9683 15.1031 12.0153 15.15 12.0974C15.2439 11.7219 15.5255 11.4638 15.8423 11.323C16.1591 11.1705 16.5111 11.1235 16.8396 11.1001C16.8396 10.9827 16.7458 10.9945 16.7927 10.8654C16.5346 10.7715 16.4642 11.2174 16.2178 11.0883V10.9827C16.0418 10.971 16.2647 11.2526 16.077 11.1705C15.9831 11.1118 16.0418 11.0414 16.0183 11.0414C15.7367 11.1939 15.373 11.2878 15.2791 11.675C15.0796 11.5225 15.0092 11.8745 14.7746 11.7923C14.7746 11.9214 14.6924 11.9566 14.7746 12.0974C14.3404 12.4494 14.0705 12.9657 13.918 13.4702C13.7537 13.9865 13.7068 14.538 13.7303 15.1012C13.9649 15.3476 13.9884 15.594 14.0236 15.8873C14.0588 16.1689 14.1057 16.5092 14.3287 16.7204" fill="#E77622"/>
<path d="M84.4707 49.4217H84.5176C84.5176 49.4217 84.4941 49.4569 84.4941 49.4804L84.4707 49.4217ZM83.8488 49.3865C83.8488 49.3865 83.8018 49.2809 83.8018 49.2222C83.8722 49.363 84.0248 49.4217 84.2946 49.4217H84.3533C84.1069 49.5977 83.9309 49.539 83.837 49.3865M83.7314 48.7881C83.7314 48.7881 83.7314 48.835 83.7314 48.8467C83.7197 48.8233 83.7197 48.8115 83.6962 48.7881H83.7314ZM83.7314 48.483C83.7314 48.5534 83.7314 48.6238 83.7314 48.6825C83.708 48.6121 83.6962 48.5417 83.7314 48.483ZM98.1402 46.9342C98.41 46.6995 98.3396 46.3006 98.1871 45.9838C98.1871 45.9838 98.1871 45.972 98.1871 45.9603C98.1636 45.6435 98.0932 45.3267 97.9876 45.0451C98.0932 44.4115 97.7178 43.8365 97.2249 43.5315C96.8612 43.3203 96.4505 43.2381 96.0399 43.2381C95.6644 43.1091 95.2655 43.0269 94.8313 43.0269C93.8105 43.0269 92.778 43.0269 91.7571 43.0269C91.5107 42.8979 91.2526 42.7571 90.9945 42.7923L91.0179 42.9096C90.8889 42.6867 90.7481 42.9565 90.6425 43.0269H90.5603C90.5603 43.0269 90.5017 42.9683 90.4899 42.8861L90.5134 42.8627C90.4665 42.7336 90.4078 42.8861 90.3491 43.0269H89.9267C89.9267 43.0269 89.9033 43.0269 89.8798 43.0269H89.7625C89.7625 43.0269 89.7038 42.9448 89.7038 42.7805C89.7742 42.7805 89.5982 42.5576 89.7507 42.4403C89.7038 42.3816 89.5043 42.4051 89.5278 42.6515C89.5278 42.7805 89.4926 42.9096 89.4926 43.0269C87.6387 43.0269 85.7848 43.0269 83.9309 43.0269C83.9426 43.0269 83.9544 43.0269 83.9661 43.0269C84.1421 42.9917 84.3181 42.9565 84.5059 42.9331C84.5059 42.9448 84.5293 42.9917 84.5176 43.0035C84.5176 42.9565 84.5176 42.8627 84.5645 42.8744C84.5997 42.9096 84.588 42.9448 84.588 42.9565C84.8931 43.1912 85.0104 42.804 85.2216 42.9917C85.2568 42.9683 85.2216 42.8627 85.1629 42.7923C85.7965 42.7336 86.4771 42.6749 87.1107 42.4755C87.1576 42.5107 87.1811 42.5811 87.1928 42.6632C87.6739 42.2525 88.3662 42.4051 88.9646 42.4637C88.9763 42.3581 88.8942 42.3464 88.9528 42.2291C88.7416 42.1 88.6126 42.4989 88.4131 42.3112V42.2056C88.284 42.1352 88.4248 42.4755 88.2723 42.3347C88.2019 42.2408 88.2723 42.2056 88.2371 42.1939C87.9672 42.2408 87.6504 42.1469 87.4392 42.4051C87.3219 42.1821 87.1459 42.4051 86.9816 42.1821C86.9347 42.276 86.8525 42.2525 86.8643 42.3933C85.8552 42.2877 84.9517 42.5107 83.9778 42.4989C83.884 42.7219 83.6258 42.628 83.309 42.7336C82.9805 42.8861 82.9336 43.2147 83.004 43.6136C82.9922 43.6136 82.9688 43.6136 82.957 43.6019C83.0157 43.7427 83.0861 43.8952 83.1213 44.0478C83.1682 44.212 83.1682 44.2824 83.1448 44.3998L83.356 44.5523C83.0744 45.7608 83.4029 46.9459 83.2152 48.1427C83.2034 48.3539 83.1682 48.5182 83.1565 48.8115C83.133 49.0814 83.133 49.3396 83.2269 49.5625C83.4146 50.0553 84.06 50.1492 84.2946 50.1257C84.9517 50.1492 85.644 50.0788 86.4301 49.7972C86.4184 49.8441 86.4184 49.8676 86.3715 49.8793C86.7939 49.7854 87.099 49.9497 87.5096 49.8558V49.9028C88.5187 49.539 89.4104 49.9497 90.3726 49.5625C91.4286 49.5977 92.6606 49.5625 93.787 49.4452V49.539C94.2446 49.4334 94.667 49.539 95.1364 49.5742C95.594 49.6212 96.1103 49.5742 96.5209 49.3044C97.0255 49.187 97.3892 48.7411 97.6004 48.2835C97.6943 48.0841 97.7647 47.8963 97.8351 47.7086C97.929 47.5209 98.0111 47.3331 98.0815 47.1219C98.105 47.0633 98.1284 47.0046 98.1636 46.9577" fill="#E77622"/>
<path d="M17.5313 81.9116L17.5782 81.759L17.5195 81.8529L17.5313 81.9116Z" fill="#E77622"/>
<path d="M17.6367 81.8409C17.7423 82.0755 17.7423 81.3481 17.8127 81.5006C17.801 81.4771 17.801 81.4302 17.7893 81.4067C17.7423 81.5475 17.6954 81.7001 17.6367 81.8409Z" fill="#E77622"/>
<path d="M17.8713 81.5478C17.9535 81.6417 17.9652 81.4422 17.9652 81.3718C17.9652 81.5244 17.8361 81.3366 17.8713 81.5478Z" fill="#E77622"/>
<path d="M25.6388 74.3434C25.6388 74.3434 25.545 74.3903 25.498 74.4138C25.6623 74.2378 25.7092 74.1204 25.5919 73.9444C25.897 74.0383 25.8148 74.2612 25.6388 74.3434ZM25.2164 74.6954C25.2164 74.6954 25.2399 74.6719 25.2516 74.6602C25.2516 74.6837 25.2399 74.6954 25.2516 74.7189L25.2164 74.6954ZM25.017 74.8831C25.017 74.8831 25.1108 74.7893 25.1578 74.7541C25.146 74.8127 25.0991 74.8714 25.017 74.8831ZM25.5919 73.8271C25.5919 73.8271 25.5567 73.8623 25.545 73.874C25.545 73.874 25.545 73.8506 25.5215 73.8388C25.545 73.8388 25.5567 73.8388 25.5919 73.8271ZM25.7914 73.041L25.5802 72.8298L25.4159 72.689C25.193 72.513 24.9466 72.3604 24.6415 72.2431C24.6767 72.2196 24.6884 72.1962 24.7236 72.2079C24.442 72.0084 24.3716 71.6799 24.1017 71.4921L24.1369 71.4687C23.3508 71.0932 23.1865 70.2015 22.3887 69.7908C22.2361 69.5679 22.0836 69.3449 21.9076 69.1572C21.8254 69.0633 21.6612 69.0281 21.5556 69.1102C21.4382 69.1807 21.3678 69.2862 21.274 69.3684C20.922 69.7439 20.5582 70.1428 20.2297 70.5417L20.2062 70.4479C19.7017 71.1753 19.0094 71.2575 18.4931 71.9497C18.0355 72.2196 17.7539 72.8532 17.4137 73.346C17.2377 73.5103 17.0734 73.6863 16.8974 73.8506C16.8739 73.8623 16.8505 73.8858 16.827 73.8975C16.5219 73.8975 16.3928 74.1791 16.2755 74.4724C16.0643 74.6837 15.8531 74.8831 15.6536 75.0943C15.3955 75.1413 15.1608 75.2351 14.9614 75.3642C14.7502 75.5167 14.5859 75.7279 14.4686 75.9626C14.316 76.3029 14.2926 76.6783 14.3512 77.0303C14.2104 77.6405 14.2808 78.2976 14.5742 78.9664C14.8323 79.553 15.2078 79.9989 15.6419 80.304C15.7475 80.5387 15.8883 80.7851 16.1347 80.8437L16.1582 80.7381C16.1934 80.9963 16.3928 80.7733 16.5102 80.7381C16.5336 80.7381 16.5571 80.7499 16.5806 80.7616C16.6041 80.7851 16.6158 80.832 16.6041 80.9141L16.5806 80.9376C16.5923 81.0784 16.6862 80.9376 16.7683 80.8085C16.8857 80.832 16.9913 80.8555 17.1086 80.8789C17.1321 80.8907 17.1438 80.8907 17.179 80.8789C17.2025 80.8789 17.2259 80.8789 17.2494 80.8789C17.2846 80.9024 17.3081 80.9611 17.2846 81.1371C17.2259 81.1371 17.3667 81.3717 17.2142 81.4773C17.2494 81.536 17.4489 81.5243 17.4489 81.2779C17.4606 81.1371 17.4958 81.0197 17.5075 80.8907C18.4814 80.8437 19.2558 80.5269 19.9012 79.8933C20.4174 79.3888 20.9454 78.8725 21.4617 78.368C21.3678 78.5205 21.2622 78.6848 21.1449 78.849C21.1449 78.8256 21.1097 78.8021 21.098 78.7786C21.1214 78.8373 21.1684 78.9312 21.1332 78.9429C21.098 78.9312 21.0862 78.8842 21.0862 78.8725C20.7812 78.8138 20.8985 79.2949 20.6756 79.2245C20.6756 79.2714 20.7342 79.3536 20.8164 79.4005C20.4526 79.8346 20.1358 80.3157 19.6665 80.8555C19.6196 80.8437 19.5726 80.7851 19.5374 80.7029C19.291 81.3717 18.5753 81.4421 18.0238 81.4421C18.0238 81.5595 18.0942 81.5477 18.059 81.6768C18.2702 81.7941 18.3523 81.3483 18.5518 81.5125V81.6181C18.7043 81.6533 18.5166 81.3483 18.6691 81.4421C18.7513 81.5125 18.6926 81.5829 18.7161 81.5829C18.9625 81.4656 19.291 81.4421 19.3966 81.0901C19.5609 81.2661 19.6548 80.9493 19.8542 81.0901C19.8542 80.9728 19.9364 80.9493 19.8542 80.8085C20.0537 80.7029 20.2532 80.5504 20.4057 80.3861C20.5465 80.2453 20.6873 80.0811 20.8164 79.9285C21.0862 79.6117 21.3326 79.2832 21.6377 79.0016C21.5556 78.4618 22.3065 78.4618 22.5177 78.0512C22.5295 78.0512 22.5529 78.0629 22.5529 78.0746C22.5647 77.9104 22.682 77.7226 22.8463 77.6288L22.7876 77.4176C23.8788 76.8778 24.4185 75.9743 25.3338 75.2821C25.5919 75.0709 25.8383 74.8714 26.0847 74.6837C26.2138 74.5781 26.3311 74.3668 26.3546 74.1556C26.3546 73.9327 26.3194 73.745 26.1786 73.5572C26.0495 73.3812 25.9087 73.17 25.7679 73.041" fill="#E77622"/>
<path d="M81.5137 81.9116L81.5606 81.759L81.4902 81.8529L81.5137 81.9116Z" fill="#E77622"/>
<path d="M81.6074 81.8526C81.7013 82.0873 81.7365 81.3598 81.7952 81.524C81.7952 81.5006 81.7952 81.4536 81.7717 81.4302C81.7248 81.571 81.6661 81.7118 81.6074 81.8526Z" fill="#E77622"/>
<path d="M81.8544 81.5593C81.9365 81.6532 81.9483 81.4537 81.96 81.3833C81.96 81.5358 81.8309 81.3481 81.8544 81.5593Z" fill="#E77622"/>
<path d="M81.5251 73.0642C81.5251 73.0642 81.5134 73.0525 81.5017 73.0408C81.5017 73.029 81.5134 73.0173 81.5251 72.9938V73.0642ZM81.9593 73.4984C81.8419 73.381 81.7246 73.2637 81.6073 73.1464C81.8302 73.0877 81.8889 73.2989 81.9593 73.4984ZM82.2643 73.8034L82.2291 73.7682C82.2291 73.7682 82.2643 73.78 82.2878 73.7682L82.2643 73.7917V73.8034ZM82.4521 73.9912L82.3347 73.8738C82.3347 73.8738 82.4286 73.9325 82.4521 73.9912ZM85.4206 77.1005C85.4206 77.1005 85.4558 77.1005 85.4676 77.1005C85.3268 76.948 85.2212 76.7251 85.1977 76.5256L84.963 76.4435C84.9278 75.8451 84.5054 75.3053 84.1182 74.9533C83.731 74.5661 83.3203 74.2141 82.9801 73.7682C82.1705 72.8296 81.4665 71.7383 80.387 71.445C80.3987 71.4098 80.3987 71.3746 80.4339 71.3863C80.1523 71.2338 79.9763 70.8583 79.7182 70.7175V70.6706C79.0611 70.4829 78.5214 69.4386 77.9112 69.3213C77.8291 69.2391 77.7469 69.1453 77.6179 69.0983C77.4888 69.0396 77.3597 69.1452 77.2893 69.2391C77.1133 69.4386 76.9491 69.6733 76.7965 69.9079C76.5032 70.3421 76.2451 70.741 75.9869 71.1634L75.9165 71.1047C75.5762 71.8322 74.7314 72.1138 74.3325 72.7826C73.9922 73.0173 73.8162 73.4045 73.6285 73.7917C73.5816 73.8856 73.5229 74.0146 73.5464 74.132C73.5581 74.1906 73.5933 74.2376 73.6285 74.2845C73.6637 74.3315 73.6989 74.3784 73.7576 74.4253C73.8632 74.5309 73.9688 74.6365 74.0744 74.7421C74.0978 74.7773 74.1213 74.8008 74.1448 74.8477C74.1682 75.1763 74.4498 75.2936 74.7432 75.3992C74.9426 75.5987 75.1538 75.7981 75.3533 75.9976C75.5411 76.948 76.2451 77.3352 77.0429 77.652C77.8291 78.4264 78.6152 79.2008 79.4014 79.9753C79.4952 80.0691 79.6126 80.1513 79.7182 80.2334C79.812 80.4681 79.9411 80.7379 80.1758 80.7966L80.211 80.691C80.2344 80.9609 80.4691 80.7145 80.5864 80.7145C80.5864 80.7145 80.6099 80.7145 80.6216 80.7145C80.6451 80.7379 80.6569 80.7849 80.6451 80.8905H80.6216C80.6216 81.043 80.7273 80.9022 80.8094 80.7731C80.915 80.8083 81.0323 80.8318 81.1379 80.8435C81.1614 80.8787 81.2083 80.8553 81.2553 80.8553C81.2553 80.8553 81.267 80.8553 81.2787 80.8553C81.3257 80.867 81.3491 80.9257 81.3374 81.1251C81.267 81.1251 81.4195 81.3598 81.267 81.4654C81.3022 81.5358 81.5251 81.5123 81.5134 81.2659C81.5134 81.1251 81.5486 81.0078 81.5603 80.8905C83.027 80.8905 84.2004 80.1278 84.6932 78.9544C84.8105 78.6494 84.8926 78.356 84.9396 78.0744C84.9513 78.2622 84.9513 78.4499 84.9396 78.6611C84.9278 78.6494 84.8809 78.6259 84.8692 78.6142C84.9161 78.6611 84.9982 78.7315 84.9748 78.7667C84.9396 78.7667 84.9044 78.7315 84.8926 78.7198C84.611 78.7667 84.8926 79.2008 84.658 79.2126C84.658 79.2595 84.7518 79.3299 84.834 79.3534C84.611 79.9283 84.1886 80.4446 83.731 80.9491C83.6841 80.9374 83.6489 80.8787 83.602 80.7966C83.3321 81.4537 82.6163 81.5006 82.0766 81.4771C82.0766 81.5945 82.147 81.5945 82.1001 81.7118C82.3113 81.8291 82.3934 81.395 82.6046 81.5593V81.6649C82.7454 81.7001 82.5694 81.395 82.7337 81.5006C82.8041 81.571 82.7571 81.6414 82.7806 81.6414C83.027 81.5241 83.3438 81.5241 83.4611 81.1721C83.6254 81.3598 83.7193 81.0547 83.9188 81.1838C83.9305 81.0665 84.0009 81.043 83.9422 80.9022C84.834 80.4798 85.2446 79.4238 85.4558 78.5907C85.2916 78.3326 85.3502 78.1214 85.4324 77.8867C85.5028 77.652 85.5966 77.3704 85.4793 77.1123" fill="#E77622"/>
</svg>
